<?xml version="1.0" encoding="UTF-8" standalone="no"?>
<!-- Created with Inkscape (http://www.inkscape.org/) -->

<svg
   xmlns:dc="http://purl.org/dc/elements/1.1/"
   xmlns:cc="http://creativecommons.org/ns#"
   xmlns:rdf="http://www.w3.org/1999/02/22-rdf-syntax-ns#"
   xmlns:svg="http://www.w3.org/2000/svg"
   xmlns="http://www.w3.org/2000/svg"
   version="1.1"
   width="140"
   height="90"
   id="svg2">
  <defs
     id="defs4">
    <clipPath
       id="clipPath3002">
      <rect
         width="102.32143"
         height="25"
         x="199.82143"
         y="756.64789"
         id="rect3004"
         style="fill:#000000" />
    </clipPath>
  </defs>
  <metadata
     id="metadata7">
    <rdf:RDF>
      <cc:Work
         rdf:about="">
        <dc:format>image/svg+xml</dc:format>
        <dc:type
           rdf:resource="http://purl.org/dc/dcmitype/StillImage" />
        <dc:title></dc:title>
      </cc:Work>
    </rdf:RDF>
  </metadata>
  <path
     d="m 10,69.999999 -10,6.1953 10,6.1954 10,-6.1954 -10,-6.1953 z m -8.16165,8.8338 -1.83835,1.137 10,6.1954 10,-6.1954 -1.83834,-1.137 -8.16166,5.0583 -8.16165,-5.0583 z m 0,3.8338 -1.83835,1.137 10,6.1954 10,-6.1954 -1.83834,-1.137 -8.16166,5.0583 -8.16165,-5.0583 z"
     id="rect3029"
     style="fill:#000000" />
  <path
     d="m 98.69792,69.999999 c -0.79283,0 -1.43262,0.6398 -1.43262,1.4327 l 0,5.8326 -5.83267,0 c -0.79284,0 -1.43263,0.6399 -1.43263,1.4327 l 0,2.604 c 0,0.7928 0.63979,1.4327 1.43263,1.4327 l 5.83267,0 0,5.8326 c 0,0.7929 0.63979,1.4327 1.43262,1.4327 l 2.60416,0 c 0.79284,0 1.43263,-0.6398 1.43263,-1.4327 l 0,-5.8326 5.83267,0 c 0.79284,0 1.43262,-0.6399 1.43262,-1.4327 l 0,-2.604 c 0,-0.7928 -0.63978,-1.4327 -1.43262,-1.4327 l -5.83267,0 0,-5.8326 c 0,-0.7929 -0.63979,-1.4327 -1.43263,-1.4327 l -2.60416,0 z"
     id="rect3263"
     style="fill:#000000" />
  <path
     d="m 39.999235,70.000199 c -1.1092,0 -1.69513,0.01 -1.69513,0.03 0,0.018 -0.0361,0.03 -0.08,0.03 -0.0439,0 -0.10941,0.02 -0.14501,0.04 -0.10033,0.056 -0.27503,0.2494 -0.27503,0.305 0,0.028 -0.0129,0.045 -0.03,0.045 -0.0171,0 -0.03,0.04 -0.03,0.085 0,0.045 -0.0129,0.085 -0.03,0.085 -0.0205,0 -0.035,0.9914 -0.035,2.9149 l 0,2.9199 -1.59512,0 c -1.74437,0 -1.77062,0 -1.96515,0.185 -0.17342,0.1674 -0.24385,0.3521 -0.24502,0.625 -9.6e-4,0.2083 0.01,0.2628 0.075,0.36 0.0986,0.1468 5.55343,5.8754 5.67043,5.9548 0.0485,0.033 0.13735,0.067 0.20002,0.08 0.14742,0.031 0.40171,0.01 0.51504,-0.055 0.0986,-0.053 5.54854,-5.756 5.69544,-5.9598 0.0824,-0.1143 0.095,-0.1545 0.095,-0.365 0,-0.1847 -0.015,-0.2639 -0.075,-0.39 -0.0818,-0.172 -0.26193,-0.3391 -0.43503,-0.4 -0.0737,-0.026 -0.59608,-0.035 -1.72014,-0.035 l -1.61012,0 0,-2.8849 c 0,-2.8143 -0.004,-2.8866 -0.065,-3.0549 -0.0976,-0.2681 -0.27527,-0.4549 -0.44504,-0.4549 -0.0439,0 -0.085,-0.012 -0.085,-0.03 0,-0.021 -0.58093,-0.03 -1.69013,-0.03 z m -7.18055,13.5796 c -2.11826,0.001 -2.0436,0.017 -2.32018,0.22 -0.19974,0.1463 -0.37981,0.4097 -0.44503,0.6449 -0.0713,0.257 -0.0713,4.4902 0,4.7049 0.0516,0.1554 0.12525,0.3219 0.17501,0.385 0.12032,0.1525 0.21071,0.24 0.24002,0.24 0.0188,0 0.0349,0.01 0.035,0.02 0,0.022 0.11373,0.077 0.35503,0.165 0.13987,0.051 18.1166,0.056 18.26641,0 0.0611,-0.021 0.15611,-0.061 0.21001,-0.085 0.0539,-0.024 0.1094,-0.04 0.12001,-0.04 0.0414,0 0.36003,-0.3582 0.36003,-0.4049 0,-0.027 0.0129,-0.055 0.03,-0.055 0.0171,0 0.03,-0.024 0.03,-0.06 0,-0.036 0.0129,-0.07 0.03,-0.07 0.0171,0 0.03,-0.041 0.03,-0.095 0,-0.054 0.0179,-0.1 0.035,-0.1 0.0204,0 0.03,-0.772 0.03,-2.25 0,-1.478 -0.01,-2.2449 -0.03,-2.2449 -0.0171,0 -0.035,-0.052 -0.035,-0.115 0,-0.063 -0.0129,-0.12 -0.03,-0.12 -0.0171,0 -0.03,-0.024 -0.03,-0.06 0,-0.036 -0.0129,-0.065 -0.03,-0.065 -0.0171,0 -0.03,-0.023 -0.03,-0.05 0,-0.027 -0.0129,-0.05 -0.03,-0.05 -0.0171,0 -0.035,-0.012 -0.035,-0.03 0,-0.048 -0.15223,-0.2119 -0.29503,-0.31 -0.27634,-0.1897 -0.17521,-0.1793 -3.31025,-0.18 l -2.88022,0 -0.72506,0.76 c -0.99729,1.0456 -1.11395,1.16 -1.16009,1.16 -0.0222,0 -0.0603,0.029 -0.085,0.065 -0.0247,0.036 -0.0696,0.07 -0.1,0.07 -0.0304,0 -0.06,0.012 -0.06,0.03 0,0.018 -0.0196,0.03 -0.05,0.03 -0.0304,0 -0.0754,0.034 -0.10001,0.07 -0.0263,0.038 -0.0842,0.06 -0.13501,0.06 -0.0475,0 -0.085,0.022 -0.085,0.04 0,0.018 -0.0566,0.03 -0.12501,0.03 -0.0684,0 -0.12501,0.012 -0.12501,0.03 0,0.018 -0.086,0.035 -0.20001,0.035 -0.11403,0 -0.20502,0.012 -0.20502,0.03 0,0.018 -0.0451,0.035 -0.10501,0.035 -0.0599,0 -0.11,-0.017 -0.11,-0.035 0,-0.019 -0.0956,-0.03 -0.22002,-0.03 -0.1244,0 -0.21502,-0.016 -0.21502,-0.035 0,-0.018 -0.0501,-0.03 -0.11001,-0.03 -0.0599,0 -0.11,-0.012 -0.11,-0.03 0,-0.018 -0.0375,-0.04 -0.085,-0.04 -0.0508,0 -0.10368,-0.022 -0.13001,-0.06 -0.0247,-0.036 -0.0696,-0.07 -0.10001,-0.07 -0.0304,0 -0.055,-0.012 -0.055,-0.03 0,-0.018 -0.0246,-0.03 -0.055,-0.03 -0.0304,0 -0.0754,-0.034 -0.10001,-0.07 -0.0247,-0.036 -0.0628,-0.065 -0.085,-0.065 -0.0493,0 -0.24396,-0.1855 -1.17009,-1.16 l -0.72006,-0.76 -2.87022,0 -1.05008,0 z m 11.7159,3.1949 c 0.028,0 0.0565,1e-4 0.085,0 0.11406,-0.001 0.22487,0.017 0.30502,0.06 0.26203,0.1418 0.47504,0.4848 0.47504,0.7699 0,0.296 -0.28561,0.735 -0.48004,0.735 -0.0435,0 -0.08,0.012 -0.08,0.03 0,0.019 -0.0956,0.03 -0.22002,0.03 -0.12439,0 -0.21502,-0.011 -0.21502,-0.03 0,-0.018 -0.0365,-0.03 -0.08,-0.03 -0.0435,0 -0.0997,-0.023 -0.12501,-0.045 -0.16288,-0.1443 -0.23502,-0.2136 -0.23502,-0.245 0,-0.02 -0.0129,-0.035 -0.03,-0.035 -0.0171,0 -0.03,-0.034 -0.03,-0.07 0,-0.036 -0.0129,-0.065 -0.03,-0.065 -0.0183,0 -0.03,-0.112 -0.03,-0.275 0,-0.163 0.0117,-0.28 0.03,-0.28 0.0171,0 0.03,-0.024 0.03,-0.06 0,-0.036 0.0129,-0.07 0.03,-0.07 0.0171,0 0.03,-0.012 0.03,-0.03 0,-0.057 0.20582,-0.2482 0.34003,-0.32 0.0628,-0.034 0.14592,-0.061 0.23001,-0.07 z m 3.07524,0 c 0.028,0 0.0565,1e-4 0.085,0 0.11406,-0.001 0.22987,0.017 0.31002,0.06 0.26203,0.1418 0.47004,0.4848 0.47004,0.7699 0,0.296 -0.28561,0.735 -0.48004,0.735 -0.0435,0 -0.08,0.012 -0.08,0.03 0,0.019 -0.0906,0.03 -0.21502,0.03 -0.1244,0 -0.22002,-0.011 -0.22002,-0.03 0,-0.018 -0.0315,-0.03 -0.075,-0.03 -0.0435,0 -0.0997,-0.023 -0.12501,-0.045 -0.16288,-0.1443 -0.23502,-0.2136 -0.23502,-0.245 0,-0.02 -0.0129,-0.035 -0.03,-0.035 -0.0171,0 -0.03,-0.034 -0.03,-0.07 0,-0.036 -0.0129,-0.065 -0.03,-0.065 -0.0183,0 -0.035,-0.112 -0.035,-0.275 0,-0.163 0.0167,-0.28 0.035,-0.28 0.0171,0 0.03,-0.024 0.03,-0.06 0,-0.036 0.0129,-0.07 0.03,-0.07 0.0171,0 0.03,-0.012 0.03,-0.03 0,-0.057 0.20582,-0.2482 0.34002,-0.32 0.0628,-0.034 0.14093,-0.061 0.22502,-0.07 z"
     id="path3268"
     style="fill:#000000" />
  <path
     d="m 70,69.999997 c -5.52268,0 -10,4.4773 -10,10.000001 0,5.5227 4.47732,10.000001 10,10.000001 5.52268,0 10,-4.477301 10,-10.000001 0,-5.522701 -4.47732,-10.000001 -10,-10.000001 z m 0,2.8903 c 3.92608,0 7.10968,3.1836 7.10968,7.109701 0,3.9261 -3.1836,7.109701 -7.10968,7.109701 -3.92608,0 -7.10761,-3.183601 -7.10761,-7.109701 0,-3.926101 3.18153,-7.109701 7.10761,-7.109701 z m 0.0601,2.1356 c -0.7454,0 -1.40283,0.014 -1.45967,0.029 -0.0568,0.015 -0.11964,0.063 -0.14099,0.1058 -0.0214,0.043 -0.0513,1.1454 -0.0643,2.448701 l -0.0228,2.3678 -1.32697,0.025 c -1.44356,0.026 -1.50813,0.037 -1.5592,0.2923 -0.0147,0.073 -0.005,0.1819 0.0187,0.2405 0.0478,0.1168 4.24519,4.3182 4.36036,4.3645 0.0391,0.016 0.14002,0.019 0.22393,0.01 0.12838,-0.016 0.48571,-0.3517 2.25171,-2.119 1.15426,-1.1552 2.12381,-2.1602 2.15633,-2.2331 0.082,-0.1837 0.0744,-0.2884 -0.0311,-0.4188 -0.0904,-0.1117 -0.0915,-0.1111 -1.43272,-0.1348 l -1.34356,-0.025 -0.0228,-2.3761 -0.0249,-2.378201 -0.11404,-0.1 c -0.10972,-0.095 -0.16213,-0.098 -1.46796,-0.097 z"
     id="path3432"
     style="fill:#000000" />
  <path
     d="m 129.99895,69.999999 c -5.52315,0 -9.99895,4.4758 -9.99895,9.999 0,5.5231 4.4758,10.001 9.99895,10.001 5.52315,0 10.00105,-4.4779 10.00105,-10.001 0,-5.5232 -4.4779,-9.999 -10.00105,-9.999 z m -0.7938,3.8957 1.5897,0 c 0.48394,0 0.87339,0.3915 0.87339,0.8755 l 0,3.5585 3.56058,0 c 0.48394,0 0.87548,0.3915 0.87548,0.8754 l 0,1.5897 c 0,0.484 -0.39154,0.8734 -0.87548,0.8734 l -3.56058,0 0,3.5606 c 0,0.484 -0.38945,0.8755 -0.87339,0.8755 l -1.5897,0 c -0.48393,0 -0.87548,-0.3915 -0.87548,-0.8755 l 0,-3.5606 -3.55849,0 c -0.48394,0 -0.87548,-0.3894 -0.87548,-0.8734 l 0,-1.5897 c 0,-0.4839 0.39154,-0.8754 0.87548,-0.8754 l 3.55849,0 0,-3.5585 c 0,-0.484 0.39155,-0.8755 0.87548,-0.8755 z"
     id="path4352"
     style="fill:#000000" />
  <path
     d="m 10,39.999998 -10,6.1953 10,6.1954 10,-6.1954 -10,-6.1953 z m -8.16165,8.8338 -1.83835,1.137 10,6.1954 10,-6.1954 -1.83834,-1.137 -8.16166,5.0583 -8.16165,-5.0583 z m 0,3.8338 -1.83835,1.137 10,6.1954 10,-6.1954 -1.83834,-1.137 -8.16166,5.0583 -8.16165,-5.0583 z"
     id="path4367"
     style="fill:#b3b3b3" />
  <path
     d="m 98.69792,39.999998 c -0.79283,0 -1.43262,0.6398 -1.43262,1.4327 l 0,5.8326 -5.83267,0 c -0.79284,0 -1.43263,0.6399 -1.43263,1.4327 l 0,2.604 c 0,0.7928 0.63979,1.4327 1.43263,1.4327 l 5.83267,0 0,5.8326 c 0,0.7929 0.63979,1.4327 1.43262,1.4327 l 2.60416,0 c 0.79284,0 1.43263,-0.6398 1.43263,-1.4327 l 0,-5.8326 5.83267,0 c 0.79284,0 1.43262,-0.6399 1.43262,-1.4327 l 0,-2.604 c 0,-0.7928 -0.63978,-1.4327 -1.43262,-1.4327 l -5.83267,0 0,-5.8326 c 0,-0.7929 -0.63979,-1.4327 -1.43263,-1.4327 l -2.60416,0 z"
     id="path4369"
     style="fill:#b3b3b3" />
  <path
     d="m 39.999235,40.000198 c -1.1092,0 -1.69513,0.01 -1.69513,0.03 0,0.018 -0.0361,0.03 -0.08,0.03 -0.0439,0 -0.10941,0.02 -0.14501,0.04 -0.10033,0.056 -0.27503,0.2494 -0.27503,0.305 0,0.028 -0.0129,0.045 -0.03,0.045 -0.0171,0 -0.03,0.04 -0.03,0.085 0,0.045 -0.0129,0.085 -0.03,0.085 -0.0205,0 -0.035,0.9914 -0.035,2.9149 l 0,2.9199 -1.59512,0 c -1.74437,0 -1.77062,0 -1.96515,0.185 -0.17342,0.1674 -0.24385,0.3521 -0.24502,0.625 -9.6e-4,0.2083 0.01,0.2628 0.075,0.36 0.0986,0.1468 5.55343,5.8754 5.67043,5.9548 0.0485,0.033 0.13735,0.067 0.20002,0.08 0.14742,0.031 0.40171,0.01 0.51504,-0.055 0.0986,-0.053 5.54854,-5.756 5.69544,-5.9598 0.0824,-0.1143 0.095,-0.1545 0.095,-0.365 0,-0.1847 -0.015,-0.2639 -0.075,-0.39 -0.0818,-0.172 -0.26193,-0.3391 -0.43503,-0.4 -0.0737,-0.026 -0.59608,-0.035 -1.72014,-0.035 l -1.61012,0 0,-2.8849 c 0,-2.8143 -0.004,-2.8866 -0.065,-3.0549 -0.0976,-0.2681 -0.27527,-0.4549 -0.44504,-0.4549 -0.0439,0 -0.085,-0.012 -0.085,-0.03 0,-0.021 -0.58093,-0.03 -1.69013,-0.03 z m -7.18055,13.5796 c -2.11826,0.001 -2.0436,0.017 -2.32018,0.22 -0.19974,0.1463 -0.37981,0.4097 -0.44503,0.6449 -0.0713,0.257 -0.0713,4.4902 0,4.7049 0.0516,0.1554 0.12525,0.3219 0.17501,0.385 0.12032,0.1525 0.21071,0.24 0.24002,0.24 0.0188,0 0.0349,0.01 0.035,0.02 0,0.022 0.11373,0.077 0.35503,0.165 0.13987,0.051 18.1166,0.056 18.26641,0 0.0611,-0.021 0.15611,-0.061 0.21001,-0.085 0.0539,-0.024 0.1094,-0.04 0.12001,-0.04 0.0414,0 0.36003,-0.3582 0.36003,-0.4049 0,-0.027 0.0129,-0.055 0.03,-0.055 0.0171,0 0.03,-0.024 0.03,-0.06 0,-0.036 0.0129,-0.07 0.03,-0.07 0.0171,0 0.03,-0.041 0.03,-0.095 0,-0.054 0.0179,-0.1 0.035,-0.1 0.0204,0 0.03,-0.772 0.03,-2.25 0,-1.478 -0.01,-2.2449 -0.03,-2.2449 -0.0171,0 -0.035,-0.052 -0.035,-0.115 0,-0.063 -0.0129,-0.12 -0.03,-0.12 -0.0171,0 -0.03,-0.024 -0.03,-0.06 0,-0.036 -0.0129,-0.065 -0.03,-0.065 -0.0171,0 -0.03,-0.023 -0.03,-0.05 0,-0.027 -0.0129,-0.05 -0.03,-0.05 -0.0171,0 -0.035,-0.012 -0.035,-0.03 0,-0.048 -0.15223,-0.2119 -0.29503,-0.31 -0.27634,-0.1897 -0.17521,-0.1793 -3.31025,-0.18 l -2.88022,0 -0.72506,0.76 c -0.99729,1.0456 -1.11395,1.16 -1.16009,1.16 -0.0222,0 -0.0603,0.029 -0.085,0.065 -0.0247,0.036 -0.0696,0.07 -0.1,0.07 -0.0304,0 -0.06,0.012 -0.06,0.03 0,0.018 -0.0196,0.03 -0.05,0.03 -0.0304,0 -0.0754,0.034 -0.10001,0.07 -0.0263,0.038 -0.0842,0.06 -0.13501,0.06 -0.0475,0 -0.085,0.022 -0.085,0.04 0,0.018 -0.0566,0.03 -0.12501,0.03 -0.0684,0 -0.12501,0.012 -0.12501,0.03 0,0.018 -0.086,0.035 -0.20001,0.035 -0.11403,0 -0.20502,0.012 -0.20502,0.03 0,0.018 -0.0451,0.035 -0.10501,0.035 -0.0599,0 -0.11,-0.017 -0.11,-0.035 0,-0.019 -0.0956,-0.03 -0.22002,-0.03 -0.1244,0 -0.21502,-0.016 -0.21502,-0.035 0,-0.018 -0.0501,-0.03 -0.11001,-0.03 -0.0599,0 -0.11,-0.012 -0.11,-0.03 0,-0.018 -0.0375,-0.04 -0.085,-0.04 -0.0508,0 -0.10368,-0.022 -0.13001,-0.06 -0.0247,-0.036 -0.0696,-0.07 -0.10001,-0.07 -0.0304,0 -0.055,-0.012 -0.055,-0.03 0,-0.018 -0.0246,-0.03 -0.055,-0.03 -0.0304,0 -0.0754,-0.034 -0.10001,-0.07 -0.0247,-0.036 -0.0628,-0.065 -0.085,-0.065 -0.0493,0 -0.24396,-0.1855 -1.17009,-1.16 l -0.72006,-0.76 -2.87022,0 -1.05008,0 z m 11.7159,3.1949 c 0.028,0 0.0565,10e-5 0.085,0 0.11406,-10e-4 0.22487,0.017 0.30502,0.06 0.26203,0.1418 0.47504,0.4848 0.47504,0.7699 0,0.296 -0.28561,0.735 -0.48004,0.735 -0.0435,0 -0.08,0.012 -0.08,0.03 0,0.019 -0.0956,0.03 -0.22002,0.03 -0.12439,0 -0.21502,-0.011 -0.21502,-0.03 0,-0.018 -0.0365,-0.03 -0.08,-0.03 -0.0435,0 -0.0997,-0.023 -0.12501,-0.045 -0.16288,-0.1443 -0.23502,-0.2136 -0.23502,-0.245 0,-0.02 -0.0129,-0.035 -0.03,-0.035 -0.0171,0 -0.03,-0.034 -0.03,-0.07 0,-0.036 -0.0129,-0.065 -0.03,-0.065 -0.0183,0 -0.03,-0.112 -0.03,-0.275 0,-0.163 0.0117,-0.28 0.03,-0.28 0.0171,0 0.03,-0.024 0.03,-0.06 0,-0.036 0.0129,-0.07 0.03,-0.07 0.0171,0 0.03,-0.012 0.03,-0.03 0,-0.057 0.20582,-0.2482 0.34003,-0.32 0.0628,-0.034 0.14592,-0.061 0.23001,-0.07 z m 3.07524,0 c 0.028,0 0.0565,10e-5 0.085,0 0.11406,-10e-4 0.22987,0.017 0.31002,0.06 0.26203,0.1418 0.47004,0.4848 0.47004,0.7699 0,0.296 -0.28561,0.735 -0.48004,0.735 -0.0435,0 -0.08,0.012 -0.08,0.03 0,0.019 -0.0906,0.03 -0.21502,0.03 -0.1244,0 -0.22002,-0.011 -0.22002,-0.03 0,-0.018 -0.0315,-0.03 -0.075,-0.03 -0.0435,0 -0.0997,-0.023 -0.12501,-0.045 -0.16288,-0.1443 -0.23502,-0.2136 -0.23502,-0.245 0,-0.02 -0.0129,-0.035 -0.03,-0.035 -0.0171,0 -0.03,-0.034 -0.03,-0.07 0,-0.036 -0.0129,-0.065 -0.03,-0.065 -0.0183,0 -0.035,-0.112 -0.035,-0.275 0,-0.163 0.0167,-0.28 0.035,-0.28 0.0171,0 0.03,-0.024 0.03,-0.06 0,-0.036 0.0129,-0.07 0.03,-0.07 0.0171,0 0.03,-0.012 0.03,-0.03 0,-0.057 0.20582,-0.2482 0.34002,-0.32 0.0628,-0.034 0.14093,-0.061 0.22502,-0.07 z"
     id="path4371"
     style="fill:#b3b3b3" />
  <path
     d="m 70,39.999992 c -5.52268,0 -10,4.477301 -10,10.000001 0,5.522701 4.47732,10.000002 10,10.000002 5.52268,0 10,-4.477301 10,-10.000002 0,-5.5227 -4.47732,-10.000001 -10,-10.000001 z m 0,2.890301 c 3.92608,0 7.10968,3.1836 7.10968,7.1097 0,3.926101 -3.1836,7.109701 -7.10968,7.109701 -3.92608,0 -7.10761,-3.1836 -7.10761,-7.109701 0,-3.9261 3.18153,-7.1097 7.10761,-7.1097 z m 0.0601,2.1356 c -0.7454,0 -1.40283,0.014 -1.45967,0.029 -0.0568,0.015 -0.11964,0.063 -0.14099,0.1058 -0.0214,0.043 -0.0513,1.1454 -0.0643,2.4487 l -0.0228,2.3678 -1.32697,0.025 c -1.44356,0.026 -1.50813,0.037 -1.5592,0.2923 -0.0147,0.073 -0.005,0.1819 0.0187,0.2405 0.0478,0.1168 4.24519,4.3182 4.36036,4.3645 0.0391,0.016 0.14002,0.019 0.22393,0.01 0.12838,-0.016 0.48571,-0.3517 2.25171,-2.119 1.15426,-1.1552 2.12381,-2.1602 2.15633,-2.2331 0.082,-0.1837 0.0744,-0.2884 -0.0311,-0.4188 -0.0904,-0.1117 -0.0915,-0.1111 -1.43272,-0.1348 l -1.34356,-0.025 -0.0228,-2.3761 -0.0249,-2.3782 -0.11404,-0.1 c -0.10972,-0.095 -0.16213,-0.098 -1.46796,-0.097 z"
     id="path4373"
     style="fill:#b3b3b3" />
  <path
     d="m 129.99895,39.999998 c -5.52315,0 -9.99895,4.4758 -9.99895,9.999 0,5.5231 4.4758,10.001 9.99895,10.001 5.52315,0 10.00105,-4.4779 10.00105,-10.001 0,-5.5232 -4.4779,-9.999 -10.00105,-9.999 z m -0.7938,3.8957 1.5897,0 c 0.48394,0 0.87339,0.3915 0.87339,0.8755 l 0,3.5585 3.56058,0 c 0.48394,0 0.87548,0.3915 0.87548,0.8754 l 0,1.5897 c 0,0.484 -0.39154,0.8734 -0.87548,0.8734 l -3.56058,0 0,3.5606 c 0,0.484 -0.38945,0.8755 -0.87339,0.8755 l -1.5897,0 c -0.48393,0 -0.87548,-0.3915 -0.87548,-0.8755 l 0,-3.5606 -3.55849,0 c -0.48394,0 -0.87548,-0.3894 -0.87548,-0.8734 l 0,-1.5897 c 0,-0.4839 0.39154,-0.8754 0.87548,-0.8754 l 3.55849,0 0,-3.5585 c 0,-0.484 0.39155,-0.8755 0.87548,-0.8755 z"
     id="path4375"
     style="fill:#b3b3b3" />
  <path
     d="m 10,10.000008 -10,6.1953 10,6.19539 10,-6.19539 -10,-6.1953 z m -8.16165,8.83379 -1.83835,1.137 10,6.1954 10,-6.1954 -1.83834,-1.137 -8.16166,5.0583 -8.16165,-5.0583 z m 0,3.8338 -1.83835,1.137 10,6.1954 10,-6.1954 -1.83834,-1.137 -8.16166,5.0583 -8.16165,-5.0583 z"
     id="path4377"
     style="fill:#ffffff" />
  <path
     d="m 98.69792,10.000008 c -0.79283,0 -1.43262,0.6398 -1.43262,1.4327 l 0,5.8326 -5.83267,0 c -0.79284,0 -1.43263,0.63989 -1.43263,1.43269 l 0,2.604 c 0,0.7928 0.63979,1.4327 1.43263,1.4327 l 5.83267,0 0,5.8326 c 0,0.7929 0.63979,1.4327 1.43262,1.4327 l 2.60416,0 c 0.79284,0 1.43263,-0.6398 1.43263,-1.4327 l 0,-5.8326 5.83267,0 c 0.79284,0 1.43262,-0.6399 1.43262,-1.4327 l 0,-2.604 c 0,-0.7928 -0.63978,-1.43269 -1.43262,-1.43269 l -5.83267,0 0,-5.8326 c 0,-0.7929 -0.63979,-1.4327 -1.43263,-1.4327 l -2.60416,0 z"
     id="path4379"
     style="fill:#ffffff" />
  <path
     d="m 39.999235,10.000208 c -1.1092,0 -1.69513,0.01 -1.69513,0.03 0,0.018 -0.0361,0.03 -0.08,0.03 -0.0439,0 -0.10941,0.02 -0.14501,0.04 -0.10033,0.056 -0.27503,0.2494 -0.27503,0.305 0,0.028 -0.0129,0.045 -0.03,0.045 -0.0171,0 -0.03,0.04 -0.03,0.085 0,0.045 -0.0129,0.085 -0.03,0.085 -0.0205,0 -0.035,0.9914 -0.035,2.9149 l 0,2.9199 -1.59512,0 c -1.74437,0 -1.77062,0 -1.96515,0.185 -0.17342,0.1674 -0.24385,0.3521 -0.24502,0.625 -9.6e-4,0.2083 0.01,0.2628 0.075,0.36 0.0986,0.14679 5.55343,5.87539 5.67043,5.95479 0.0485,0.033 0.13735,0.067 0.20002,0.08 0.14742,0.031 0.40171,0.01 0.51504,-0.055 0.0986,-0.053 5.54854,-5.756 5.69544,-5.9598 0.0824,-0.11429 0.095,-0.15449 0.095,-0.36499 0,-0.1847 -0.015,-0.2639 -0.075,-0.39 -0.0818,-0.172 -0.26193,-0.3391 -0.43503,-0.4 -0.0737,-0.026 -0.59608,-0.035 -1.72014,-0.035 l -1.61012,0 0,-2.8849 c 0,-2.8143 -0.004,-2.8866 -0.065,-3.0549 -0.0976,-0.2681 -0.27527,-0.4549 -0.44504,-0.4549 -0.0439,0 -0.085,-0.012 -0.085,-0.03 0,-0.021 -0.58093,-0.03 -1.69013,-0.03 z m -7.18055,13.57959 c -2.11826,0.001 -2.0436,0.017 -2.32018,0.22 -0.19974,0.1463 -0.37981,0.4097 -0.44503,0.6449 -0.0713,0.257 -0.0713,4.4902 0,4.7049 0.0516,0.1554 0.12525,0.3219 0.17501,0.385 0.12032,0.1525 0.21071,0.24 0.24002,0.24 0.0188,0 0.0349,0.01 0.035,0.02 0,0.022 0.11373,0.077 0.35503,0.165 0.13987,0.051 18.1166,0.056 18.26641,0 0.0611,-0.021 0.15611,-0.061 0.21001,-0.085 0.0539,-0.024 0.1094,-0.04 0.12001,-0.04 0.0414,0 0.36003,-0.3582 0.36003,-0.4049 0,-0.027 0.0129,-0.055 0.03,-0.055 0.0171,0 0.03,-0.024 0.03,-0.06 0,-0.036 0.0129,-0.07 0.03,-0.07 0.0171,0 0.03,-0.041 0.03,-0.095 0,-0.054 0.0179,-0.1 0.035,-0.1 0.0204,0 0.03,-0.772 0.03,-2.25 0,-1.478 -0.01,-2.2449 -0.03,-2.2449 -0.0171,0 -0.035,-0.052 -0.035,-0.115 0,-0.063 -0.0129,-0.12 -0.03,-0.12 -0.0171,0 -0.03,-0.024 -0.03,-0.06 0,-0.036 -0.0129,-0.065 -0.03,-0.065 -0.0171,0 -0.03,-0.023 -0.03,-0.05 0,-0.027 -0.0129,-0.05 -0.03,-0.05 -0.0171,0 -0.035,-0.012 -0.035,-0.03 0,-0.048 -0.15223,-0.2119 -0.29503,-0.31 -0.27634,-0.1897 -0.17521,-0.1793 -3.31025,-0.18 l -2.88022,0 -0.72506,0.76 c -0.99729,1.0456 -1.11395,1.16 -1.16009,1.16 -0.0222,0 -0.0603,0.029 -0.085,0.065 -0.0247,0.036 -0.0696,0.07 -0.1,0.07 -0.0304,0 -0.06,0.012 -0.06,0.03 0,0.018 -0.0196,0.03 -0.05,0.03 -0.0304,0 -0.0754,0.034 -0.10001,0.07 -0.0263,0.038 -0.0842,0.06 -0.13501,0.06 -0.0475,0 -0.085,0.022 -0.085,0.04 0,0.018 -0.0566,0.03 -0.12501,0.03 -0.0684,0 -0.12501,0.012 -0.12501,0.03 0,0.018 -0.086,0.035 -0.20001,0.035 -0.11403,0 -0.20502,0.012 -0.20502,0.03 0,0.018 -0.0451,0.035 -0.10501,0.035 -0.0599,0 -0.11,-0.017 -0.11,-0.035 0,-0.019 -0.0956,-0.03 -0.22002,-0.03 -0.1244,0 -0.21502,-0.016 -0.21502,-0.035 0,-0.018 -0.0501,-0.03 -0.11001,-0.03 -0.0599,0 -0.11,-0.012 -0.11,-0.03 0,-0.018 -0.0375,-0.04 -0.085,-0.04 -0.0508,0 -0.10368,-0.022 -0.13001,-0.06 -0.0247,-0.036 -0.0696,-0.07 -0.10001,-0.07 -0.0304,0 -0.055,-0.012 -0.055,-0.03 0,-0.018 -0.0246,-0.03 -0.055,-0.03 -0.0304,0 -0.0754,-0.034 -0.10001,-0.07 -0.0247,-0.036 -0.0628,-0.065 -0.085,-0.065 -0.0493,0 -0.24396,-0.1855 -1.17009,-1.16 l -0.72006,-0.76 -2.87022,0 -1.05008,0 z m 11.7159,3.1949 c 0.028,0 0.0565,10e-5 0.085,0 0.11406,-0.001 0.22487,0.017 0.30502,0.06 0.26203,0.1418 0.47504,0.4848 0.47504,0.7699 0,0.296 -0.28561,0.735 -0.48004,0.735 -0.0435,0 -0.08,0.012 -0.08,0.03 0,0.019 -0.0956,0.03 -0.22002,0.03 -0.12439,0 -0.21502,-0.011 -0.21502,-0.03 0,-0.018 -0.0365,-0.03 -0.08,-0.03 -0.0435,0 -0.0997,-0.023 -0.12501,-0.045 -0.16288,-0.1443 -0.23502,-0.2136 -0.23502,-0.245 0,-0.02 -0.0129,-0.035 -0.03,-0.035 -0.0171,0 -0.03,-0.034 -0.03,-0.07 0,-0.036 -0.0129,-0.065 -0.03,-0.065 -0.0183,0 -0.03,-0.112 -0.03,-0.275 0,-0.163 0.0117,-0.28 0.03,-0.28 0.0171,0 0.03,-0.024 0.03,-0.06 0,-0.036 0.0129,-0.07 0.03,-0.07 0.0171,0 0.03,-0.012 0.03,-0.03 0,-0.057 0.20582,-0.2482 0.34003,-0.32 0.0628,-0.034 0.14592,-0.061 0.23001,-0.07 z m 3.07524,0 c 0.028,0 0.0565,10e-5 0.085,0 0.11406,-0.001 0.22987,0.017 0.31002,0.06 0.26203,0.1418 0.47004,0.4848 0.47004,0.7699 0,0.296 -0.28561,0.735 -0.48004,0.735 -0.0435,0 -0.08,0.012 -0.08,0.03 0,0.019 -0.0906,0.03 -0.21502,0.03 -0.1244,0 -0.22002,-0.011 -0.22002,-0.03 0,-0.018 -0.0315,-0.03 -0.075,-0.03 -0.0435,0 -0.0997,-0.023 -0.12501,-0.045 -0.16288,-0.1443 -0.23502,-0.2136 -0.23502,-0.245 0,-0.02 -0.0129,-0.035 -0.03,-0.035 -0.0171,0 -0.03,-0.034 -0.03,-0.07 0,-0.036 -0.0129,-0.065 -0.03,-0.065 -0.0183,0 -0.035,-0.112 -0.035,-0.275 0,-0.163 0.0167,-0.28 0.035,-0.28 0.0171,0 0.03,-0.024 0.03,-0.06 0,-0.036 0.0129,-0.07 0.03,-0.07 0.0171,0 0.03,-0.012 0.03,-0.03 0,-0.057 0.20582,-0.2482 0.34002,-0.32 0.0628,-0.034 0.14093,-0.061 0.22502,-0.07 z"
     id="path4381"
     style="fill:#ffffff" />
  <path
     d="m 70,9.9999986 c -5.52268,0 -10,4.4773004 -10,9.9999914 0,5.522701 4.47732,10.000001 10,10.000001 5.52268,0 10,-4.4773 10,-10.000001 0,-5.522691 -4.47732,-9.9999914 -10,-9.9999914 z m 0,2.8903004 c 3.92608,0 7.10968,3.1836 7.10968,7.109691 0,3.926101 -3.1836,7.109701 -7.10968,7.109701 -3.92608,0 -7.10761,-3.1836 -7.10761,-7.109701 0,-3.926091 3.18153,-7.109691 7.10761,-7.109691 z m 0.0601,2.1356 c -0.7454,0 -1.40283,0.014 -1.45967,0.029 -0.0568,0.015 -0.11964,0.063 -0.14099,0.1058 -0.0214,0.043 -0.0513,1.1454 -0.0643,2.448701 l -0.0228,2.36779 -1.32697,0.025 c -1.44356,0.026 -1.50813,0.037 -1.5592,0.2923 -0.0147,0.073 -0.005,0.1819 0.0187,0.2405 0.0478,0.1168 4.24519,4.318201 4.36036,4.364501 0.0391,0.016 0.14002,0.019 0.22393,0.01 0.12838,-0.016 0.48571,-0.3517 2.25171,-2.119001 1.15426,-1.1552 2.12381,-2.1602 2.15633,-2.2331 0.082,-0.1837 0.0744,-0.2884 -0.0311,-0.4188 -0.0904,-0.1117 -0.0915,-0.1111 -1.43272,-0.1348 l -1.34356,-0.025 -0.0228,-2.37609 -0.0249,-2.378201 -0.11404,-0.1 c -0.10972,-0.095 -0.16213,-0.098 -1.46796,-0.097 z"
     id="path4383"
     style="fill:#ffffff" />
  <path
     d="m 129.99895,10.000008 c -5.52315,0 -9.99895,4.4758 -9.99895,9.99899 0,5.5231 4.4758,10.001 9.99895,10.001 5.52315,0 10.00105,-4.4779 10.00105,-10.001 0,-5.52319 -4.4779,-9.99899 -10.00105,-9.99899 z m -0.7938,3.8957 1.5897,0 c 0.48394,0 0.87339,0.3915 0.87339,0.8755 l 0,3.55849 3.56058,0 c 0.48394,0 0.87548,0.3915 0.87548,0.8754 l 0,1.589699 c 0,0.484001 -0.39154,0.873401 -0.87548,0.873401 l -3.56058,0 0,3.5606 c 0,0.484 -0.38945,0.8755 -0.87339,0.8755 l -1.5897,0 c -0.48393,0 -0.87548,-0.3915 -0.87548,-0.8755 l 0,-3.5606 -3.55849,0 c -0.48394,0 -0.87548,-0.3894 -0.87548,-0.873401 l 0,-1.589699 c 0,-0.4839 0.39154,-0.8754 0.87548,-0.8754 l 3.55849,0 0,-3.55849 c 0,-0.484 0.39155,-0.8755 0.87548,-0.8755 z"
     id="path4385"
     style="fill:#ffffff" />
</svg>
