<?xml version="1.0" standalone="no"?><svg xmlns="http://www.w3.org/2000/svg" xmlns:xlink="http://www.w3.org/1999/xlink" style="isolation:isolate" viewBox="-108 8 1002.331 218" width="1002.331" height="218"><g id="Design"><path d=" M 817.992 182.153 L 804.536 182.153 L 770.897 85.264 L 784.353 85.264 L 811.264 162.775 L 824.72 124.02 L 811.264 85.264 L 824.72 85.264 L 831.448 104.642 L 838.176 85.264 L 851.632 85.264 L 838.176 124.02 L 851.632 162.775 L 878.544 85.264 L 892 85.264 L 858.36 182.153 L 844.904 182.153 L 831.448 143.397 L 817.992 182.153 Z " fill-rule="evenodd" fill="rgb(255,255,255)" vector-effect="non-scaling-stroke" stroke-width="4.661" stroke="rgb(0,0,0)" stroke-opacity="100" stroke-linejoin="round" stroke-linecap="butt" stroke-miterlimit="1.41421"/><path d=" M 761.926 182.153 L 708.102 182.153 L 708.102 85.264 L 761.926 85.264 L 761.926 99.797 L 721.558 99.797 L 721.558 121.597 L 761.926 121.597 L 761.926 136.131 L 721.558 136.131 L 721.558 167.62 L 761.926 167.62 L 761.926 182.153 Z " fill-rule="evenodd" fill="rgb(255,255,255)" vector-effect="non-scaling-stroke" stroke-width="4.661" stroke="rgb(0,0,0)" stroke-opacity="100" stroke-linejoin="round" stroke-linecap="butt" stroke-miterlimit="1.41421"/><rect x="685.676" y="85.264" width="13.456" height="96.889" transform="matrix(1,0,0,1,0,0)" fill="rgb(255,255,255)" vector-effect="non-scaling-stroke" stroke-width="4.661" stroke="rgb(0,0,0)" stroke-opacity="100" stroke-linejoin="round" stroke-linecap="butt" stroke-miterlimit="1.41421"/><path d=" M 643.065 182.153 L 629.609 182.153 L 595.969 85.264 L 609.425 85.264 L 636.337 162.775 L 663.249 85.264 L 676.705 85.264 L 643.065 182.153 Z " fill-rule="evenodd" fill="rgb(255,255,255)" vector-effect="non-scaling-stroke" stroke-width="4.661" stroke="rgb(0,0,0)" stroke-opacity="100" stroke-linejoin="round" stroke-linecap="butt" stroke-miterlimit="1.41421"/><path d=" M 555.602 182.153 L 519.719 182.153 L 519.719 85.264 C 519.719 85.264 533.323 85.264 555.602 85.264 C 577.88 85.264 595.969 106.972 595.969 133.708 C 595.969 160.445 577.88 182.153 555.602 182.153 Z  M 555.602 99.797 C 570.453 99.797 582.514 114.994 582.514 133.708 C 582.514 152.423 570.453 167.62 555.602 167.62 C 547.071 167.62 533.175 167.62 533.175 167.62 L 533.175 99.797 C 533.175 99.797 540.751 99.797 555.602 99.797 Z " fill-rule="evenodd" fill="rgb(255,255,255)" vector-effect="non-scaling-stroke" stroke-width="4.661" stroke="rgb(0,0,0)" stroke-opacity="100" stroke-linejoin="round" stroke-linecap="butt" stroke-miterlimit="1.41421"/><path d=" M 456.925 85.264 L 470.381 85.264 L 470.381 167.62 L 510.749 167.62 L 510.749 182.153 L 470.381 182.153 L 456.925 182.153 L 456.925 85.264 L 456.925 85.264 Z " fill-rule="evenodd" fill="rgb(255,255,255)" vector-effect="non-scaling-stroke" stroke-width="4.661" stroke="rgb(0,0,0)" stroke-opacity="100" stroke-linejoin="round" stroke-linecap="butt" stroke-miterlimit="1.41421"/><path d=" M 396.373 182.153 L 382.917 182.153 L 382.917 85.264 L 414.314 85.264 C 429.165 85.264 441.226 98.291 441.226 114.331 C 441.226 123.777 437.046 132.178 430.574 137.487 C 441.074 146.241 447.954 160.818 447.954 177.308 C 447.954 179.067 447.788 182.129 447.788 182.153 L 434.332 182.153 C 434.332 182.153 434.498 179.019 434.498 177.308 C 434.498 158.594 422.437 143.397 407.586 143.397 C 407.586 143.397 396.373 143.397 396.373 143.397 L 396.373 182.153 Z  M 414.314 128.864 C 421.742 128.864 427.77 122.353 427.77 114.331 C 427.77 106.308 421.742 99.797 414.314 99.797 C 409.497 99.797 396.373 99.797 396.373 99.797 L 396.373 128.864 L 414.314 128.864 Z " fill-rule="evenodd" fill="rgb(255,255,255)" vector-effect="non-scaling-stroke" stroke-width="4.661" stroke="rgb(0,0,0)" stroke-opacity="100" stroke-linejoin="round" stroke-linecap="butt" stroke-miterlimit="1.41421"/><path d=" M 333.579 85.264 C 355.857 85.264 373.947 106.972 373.947 133.708 C 373.947 160.445 355.857 182.153 333.579 182.153 C 311.3 182.153 293.211 160.445 293.211 133.708 C 293.211 106.972 311.3 85.264 333.579 85.264 Z  M 333.579 99.797 C 348.43 99.797 360.491 114.994 360.491 133.708 C 360.491 152.423 348.43 167.62 333.579 167.62 C 318.728 167.62 306.667 152.423 306.667 133.708 C 306.667 114.994 318.728 99.797 333.579 99.797 Z " fill-rule="evenodd" fill="rgb(255,255,255)" vector-effect="non-scaling-stroke" stroke-width="4.661" stroke="rgb(0,0,0)" stroke-opacity="100" stroke-linejoin="round" stroke-linecap="butt" stroke-miterlimit="1.41421"/><path d=" M 202.271 182.153 L 184.106 182.153 L 138.692 51.353 L 156.858 51.353 L 193.189 155.993 L 211.354 103.673 L 193.189 51.353 L 211.354 51.353 L 220.437 77.513 L 229.52 51.353 L 247.685 51.353 L 229.52 103.673 L 247.685 155.993 L 284.016 51.353 L 302.182 51.353 L 256.768 182.153 L 238.602 182.153 L 220.437 129.833 L 202.271 182.153 Z " fill-rule="evenodd" fill="rgb(255,255,255)" vector-effect="non-scaling-stroke" stroke-width="4.661" stroke="rgb(0,0,0)" stroke-opacity="100" stroke-linejoin="round" stroke-linecap="butt" stroke-miterlimit="1.41421"/><g id="NASA"><path d=" M -94.27 117 C -94.27 56.842 -49.05 8 6.649 8 C 62.348 8 107.569 56.842 107.569 117 C 107.569 177.158 62.348 226 6.649 226 C -49.05 226 -94.27 177.158 -94.27 117 Z " fill="rgb(11,61,145)"/><g id="Group"><path d=" M -0.438 28.938 C -0.438 28.264 0.069 27.717 0.693 27.717 C 1.316 27.717 1.823 28.264 1.823 28.938 C 1.823 29.611 1.316 30.158 0.693 30.158 C 0.069 30.158 -0.438 29.611 -0.438 28.938 Z " fill="rgb(255,255,255)"/><path d=" M 11.175 30.565 C 11.175 29.892 11.682 29.345 12.305 29.345 C 12.928 29.345 13.435 29.892 13.435 30.565 C 13.435 31.239 12.928 31.786 12.305 31.786 C 11.682 31.786 11.175 31.239 11.175 30.565 Z " fill="rgb(255,255,255)"/><path d=" M 26.411 52.724 C 26.411 52.051 26.918 51.503 27.542 51.503 C 28.165 51.503 28.672 52.051 28.672 52.724 C 28.672 53.397 28.165 53.945 27.542 53.945 C 26.918 53.945 26.411 53.397 26.411 52.724 Z " fill="rgb(255,255,255)"/><path d=" M -57.159 166.777 C -57.159 166.103 -56.652 165.556 -56.029 165.556 C -55.405 165.556 -54.898 166.103 -54.898 166.777 C -54.898 167.45 -55.405 167.997 -56.029 167.997 C -56.652 167.997 -57.159 167.45 -57.159 166.777 Z " fill="rgb(255,255,255)"/><path d=" M -54.217 176.553 C -54.217 175.879 -53.71 175.332 -53.086 175.332 C -52.463 175.332 -51.956 175.879 -51.956 176.553 C -51.956 177.226 -52.463 177.774 -53.086 177.774 C -53.71 177.774 -54.217 177.226 -54.217 176.553 Z " fill="rgb(255,255,255)"/><path d=" M -67.964 168.24 C -67.964 167.736 -67.583 167.324 -67.116 167.324 C -66.65 167.324 -66.269 167.736 -66.269 168.24 C -66.269 168.744 -66.65 169.155 -67.116 169.155 C -67.583 169.155 -67.964 168.744 -67.964 168.24 Z " fill="rgb(255,255,255)"/><path d=" M -21.954 187.443 C -21.954 186.939 -21.573 186.527 -21.106 186.527 C -20.64 186.527 -20.258 186.939 -20.258 187.443 C -20.258 187.947 -20.64 188.359 -21.106 188.359 C -21.573 188.359 -21.954 187.947 -21.954 187.443 Z " fill="rgb(255,255,255)"/><path d=" M 50.206 171.258 C 50.206 170.754 50.587 170.342 51.054 170.342 C 51.52 170.342 51.901 170.754 51.901 171.258 C 51.901 171.762 51.52 172.173 51.054 172.173 C 50.587 172.173 50.206 171.762 50.206 171.258 Z " fill="rgb(255,255,255)"/><path d=" M 71.179 146.653 C 71.179 146.149 71.56 145.737 72.027 145.737 C 72.493 145.737 72.875 146.149 72.875 146.653 C 72.875 147.157 72.493 147.568 72.027 147.568 C 71.56 147.568 71.179 147.157 71.179 146.653 Z " fill="rgb(255,255,255)"/><path d=" M -31.611 59.869 C -31.611 59.366 -31.229 58.954 -30.763 58.954 C -30.296 58.954 -29.915 59.366 -29.915 59.869 C -29.915 60.373 -30.296 60.785 -30.763 60.785 C -31.229 60.785 -31.611 60.373 -31.611 59.869 Z " fill="rgb(255,255,255)"/><path d=" M -8.529 41.562 C -8.529 41.058 -8.148 40.647 -7.682 40.647 C -7.215 40.647 -6.834 41.058 -6.834 41.562 C -6.834 42.066 -7.215 42.478 -7.682 42.478 C -8.148 42.478 -8.529 42.066 -8.529 41.562 Z " fill="rgb(255,255,255)"/><path d=" M -11.037 39.77 C -11.037 39.266 -10.655 38.854 -10.189 38.854 C -9.722 38.854 -9.341 39.266 -9.341 39.77 C -9.341 40.274 -9.722 40.685 -10.189 40.685 C -10.655 40.685 -11.037 40.274 -11.037 39.77 Z " fill="rgb(255,255,255)"/><path d=" M -13.297 37.977 C -13.297 37.474 -12.916 37.062 -12.449 37.062 C -11.983 37.062 -11.602 37.474 -11.602 37.977 C -11.602 38.481 -11.983 38.893 -12.449 38.893 C -12.916 38.893 -13.297 38.481 -13.297 37.977 Z " fill="rgb(255,255,255)"/><path d=" M -27.991 64.598 C -27.991 64.094 -27.61 63.682 -27.143 63.682 C -26.677 63.682 -26.296 64.094 -26.296 64.598 C -26.296 65.101 -26.677 65.513 -27.143 65.513 C -27.61 65.513 -27.991 65.101 -27.991 64.598 Z " fill="rgb(255,255,255)"/><path d=" M 6.008 16.962 C 6.008 16.458 6.389 16.047 6.855 16.047 C 7.322 16.047 7.703 16.458 7.703 16.962 C 7.703 17.466 7.322 17.878 6.855 17.878 C 6.389 17.878 6.008 17.466 6.008 16.962 Z " fill="rgb(255,255,255)"/><path d=" M 11.592 43.355 C 11.592 42.851 11.973 42.439 12.44 42.439 C 12.906 42.439 13.287 42.851 13.287 43.355 C 13.287 43.859 12.906 44.27 12.44 44.27 C 11.973 44.27 11.592 43.859 11.592 43.355 Z " fill="rgb(255,255,255)"/><path d=" M 2.783 38.2 C 2.783 37.696 3.164 37.285 3.63 37.285 C 4.097 37.285 4.478 37.696 4.478 38.2 C 4.478 38.704 4.097 39.116 3.63 39.116 C 3.164 39.116 2.783 38.704 2.783 38.2 Z " fill="rgb(255,255,255)"/><path d=" M -12.301 45.21 C -12.301 44.706 -11.92 44.295 -11.454 44.295 C -10.987 44.295 -10.606 44.706 -10.606 45.21 C -10.606 45.714 -10.987 46.126 -11.454 46.126 C -11.92 46.126 -12.301 45.714 -12.301 45.21 Z " fill="rgb(255,255,255)"/><path d=" M 54.225 195.432 C 54.225 194.928 54.606 194.516 55.072 194.516 C 55.539 194.516 55.92 194.928 55.92 195.432 C 55.92 195.935 55.539 196.347 55.072 196.347 C 54.606 196.347 54.225 195.935 54.225 195.432 Z " fill="rgb(255,255,255)"/><path d=" M -58.312 172.968 C -58.312 172.464 -57.93 172.052 -57.464 172.052 C -56.998 172.052 -56.616 172.464 -56.616 172.968 C -56.616 173.472 -56.998 173.883 -57.464 173.883 C -57.93 173.883 -58.312 173.472 -58.312 172.968 Z " fill="rgb(255,255,255)"/><path d=" M 0.675 184.779 C 0.675 184.275 1.056 183.863 1.522 183.863 C 1.989 183.863 2.37 184.275 2.37 184.779 C 2.37 185.282 1.989 185.694 1.522 185.694 C 1.056 185.694 0.675 185.282 0.675 184.779 Z " fill="rgb(255,255,255)"/><path d=" M -40.756 172.232 C -40.756 171.728 -40.375 171.316 -39.908 171.316 C -39.442 171.316 -39.061 171.728 -39.061 172.232 C -39.061 172.735 -39.442 173.147 -39.908 173.147 C -40.375 173.147 -40.756 172.735 -40.756 172.232 Z " fill="rgb(255,255,255)"/><path d=" M -33.418 185.166 C -33.418 184.662 -33.037 184.251 -32.571 184.251 C -32.104 184.251 -31.723 184.662 -31.723 185.166 C -31.723 185.67 -32.104 186.082 -32.571 186.082 C -33.037 186.082 -33.418 185.67 -33.418 185.166 Z " fill="rgb(255,255,255)"/><path d=" M 20.585 177.023 C 20.585 176.519 20.966 176.107 21.433 176.107 C 21.899 176.107 22.28 176.519 22.28 177.023 C 22.28 177.526 21.899 177.938 21.433 177.938 C 20.966 177.938 20.585 177.526 20.585 177.023 Z " fill="rgb(255,255,255)"/><path d=" M 50.358 158.871 C 50.358 158.367 50.74 157.955 51.206 157.955 C 51.673 157.955 52.054 158.367 52.054 158.871 C 52.054 159.374 51.673 159.786 51.206 159.786 C 50.74 159.786 50.358 159.374 50.358 158.871 Z " fill="rgb(255,255,255)"/><path d=" M 72.928 170.013 C 72.928 169.509 73.31 169.097 73.776 169.097 C 74.243 169.097 74.624 169.509 74.624 170.013 C 74.624 170.517 74.243 170.928 73.776 170.928 C 73.31 170.928 72.928 170.517 72.928 170.013 Z " fill="rgb(255,255,255)"/><path d=" M 80.625 175.327 C 80.625 174.823 81.007 174.412 81.473 174.412 C 81.939 174.412 82.321 174.823 82.321 175.327 C 82.321 175.831 81.939 176.243 81.473 176.243 C 81.007 176.243 80.625 175.831 80.625 175.327 Z " fill="rgb(255,255,255)"/><path d=" M 81.89 160.828 C 81.89 160.324 82.271 159.912 82.738 159.912 C 83.204 159.912 83.586 160.324 83.586 160.828 C 83.586 161.332 83.204 161.743 82.738 161.743 C 82.271 161.743 81.89 161.332 81.89 160.828 Z " fill="rgb(255,255,255)"/><path d=" M -30.346 140.297 C -30.346 139.793 -29.965 139.381 -29.498 139.381 C -29.032 139.381 -28.65 139.793 -28.65 140.297 C -28.65 140.801 -29.032 141.213 -29.498 141.213 C -29.965 141.213 -30.346 140.801 -30.346 140.297 Z " fill="rgb(255,255,255)"/><path d=" M -30.31 161.317 C -30.31 160.644 -29.803 160.096 -29.18 160.096 C -28.556 160.096 -28.049 160.644 -28.049 161.317 C -28.049 161.99 -28.556 162.538 -29.18 162.538 C -29.803 162.538 -30.31 161.99 -30.31 161.317 Z " fill="rgb(255,255,255)"/><path d=" M -23.519 176.795 C -23.519 176.122 -23.012 175.574 -22.389 175.574 C -21.765 175.574 -21.259 176.122 -21.259 176.795 C -21.259 177.468 -21.765 178.016 -22.389 178.016 C -23.012 178.016 -23.519 177.468 -23.519 176.795 Z " fill="rgb(255,255,255)"/><path d=" M 57.791 160.663 C 57.791 159.99 58.297 159.442 58.921 159.442 C 59.544 159.442 60.051 159.99 60.051 160.663 C 60.051 161.336 59.544 161.884 58.921 161.884 C 58.297 161.884 57.791 161.336 57.791 160.663 Z " fill="rgb(255,255,255)"/><path d=" M 87.053 158.871 C 87.053 158.197 87.56 157.65 88.183 157.65 C 88.806 157.65 89.313 158.197 89.313 158.871 C 89.313 159.544 88.806 160.091 88.183 160.091 C 87.56 160.091 87.053 159.544 87.053 158.871 Z " fill="rgb(255,255,255)"/><path d=" M 72.574 152.195 C 72.574 151.522 73.081 150.974 73.704 150.974 C 74.328 150.974 74.835 151.522 74.835 152.195 C 74.835 152.868 74.328 153.416 73.704 153.416 C 73.081 153.416 72.574 152.868 72.574 152.195 Z " fill="rgb(255,255,255)"/><path d=" M 57.791 152.844 C 57.791 152.171 58.297 151.623 58.921 151.623 C 59.544 151.623 60.051 152.171 60.051 152.844 C 60.051 153.517 59.544 154.065 58.921 154.065 C 58.297 154.065 57.791 153.517 57.791 152.844 Z " fill="rgb(255,255,255)"/><path d=" M 28.425 28.172 L 31.237 27.882 L 28.43 27.707 C 28.34 27.121 27.905 26.666 27.358 26.588 L 27.089 23.56 L 26.927 26.612 C 26.42 26.733 26.03 27.194 25.967 27.765 L 23.092 28.046 L 25.99 28.216 C 26.093 28.739 26.488 29.146 26.981 29.248 L 27.241 32.363 L 27.394 29.253 C 27.914 29.156 28.327 28.725 28.425 28.172 Z " fill="rgb(255,255,255)"/><path d=" M -19.056 62.001 L -16.244 61.71 L -19.052 61.541 C -19.137 60.95 -19.577 60.494 -20.124 60.417 L -20.393 57.394 L -20.55 60.441 C -21.061 60.562 -21.451 61.022 -21.514 61.594 L -24.389 61.875 L -21.496 62.045 C -21.389 62.568 -20.998 62.98 -20.505 63.076 L -20.24 66.191 L -20.088 63.081 C -19.568 62.989 -19.155 62.553 -19.056 62.001 Z " fill="rgb(255,255,255)"/><path d=" M 86.124 151.444 L 88.937 151.153 L 86.129 150.984 C 86.044 150.393 85.604 149.937 85.057 149.86 L 84.788 146.837 L 84.631 149.884 C 84.124 150.005 83.734 150.465 83.671 151.037 L 80.791 151.318 L 83.689 151.488 C 83.796 152.011 84.187 152.423 84.68 152.519 L 84.94 155.634 L 85.097 152.524 C 85.613 152.432 86.026 152.001 86.124 151.444 Z " fill="rgb(255,255,255)"/><path d=" M -28.561 198.207 L -25.748 197.917 L -28.556 197.747 C -28.646 197.161 -29.081 196.701 -29.628 196.628 L -29.897 193.605 L -30.054 196.652 C -30.566 196.773 -30.956 197.234 -31.019 197.8 L -33.894 198.086 L -30.996 198.251 C -30.893 198.779 -30.498 199.191 -30.009 199.283 L -29.745 202.403 L -29.588 199.293 C -29.072 199.196 -28.659 198.765 -28.561 198.207 Z " fill="rgb(255,255,255)"/><path d=" M 77.185 175.4 L 79.997 175.109 L 77.19 174.94 C 77.104 174.353 76.669 173.893 76.118 173.816 L 75.848 170.793 L 75.691 173.84 C 75.185 173.961 74.794 174.421 74.732 174.988 L 71.856 175.274 L 74.749 175.439 C 74.857 175.967 75.247 176.374 75.741 176.47 L 76.005 179.59 L 76.158 176.475 C 76.674 176.388 77.091 175.952 77.185 175.4 Z " fill="rgb(255,255,255)"/></g><path d=" M 30.583 90.888 C 18.849 95.815 7.403 100.214 -2.254 103.479 C -21.878 110.111 -75.567 128.079 -108 150.727 L -105.286 151.865 C -85.524 139.812 -72.678 136.024 -60.33 131.829 C -46.906 127.265 -3.501 116.293 16.149 110.32 C 22.792 108.304 30.565 105.659 38.804 102.447 C 36.889 99.56 34.866 96.663 32.74 93.776 C 32.027 92.797 31.305 91.838 30.583 90.888 Z  M 44.918 112.233 C 42.078 114.302 39.697 115.958 38.028 117 C 28.376 123.026 -18.693 157.732 -29.399 165.716 C -40.11 173.699 -69.83 204.006 -78.581 212.804 L -78.881 216.384 C -50.673 189.013 -41.824 182.26 -30.61 173.05 C -16.728 161.642 11.978 140.544 21.738 133.781 C 31.063 127.319 39.477 121.375 47.026 115.934 C 46.905 115.711 46.779 115.489 46.658 115.266 C 46.088 114.258 45.51 113.246 44.918 112.233 L 44.918 112.233 Z  M 89.013 61.928 C 75.27 70.629 53.61 81.132 32.597 90.041 C 33.103 90.704 33.601 91.378 34.099 92.051 C 36.449 95.248 38.661 98.46 40.746 101.677 C 57.266 95.108 75.391 86.286 89.771 75.614 C 82.922 82.624 60.271 100.907 46.461 111.099 C 47.169 112.349 47.86 113.604 48.524 114.849 C 69.448 99.725 83.527 88.597 91.731 81.151 C 103.047 70.891 128.842 47.913 138.647 17.122 C 121.446 40.748 101.114 54.269 89.013 61.928 Z " fill="rgb(252,61,33)"/><path d=" M -6.336 143.988 C -8.561 140.965 -11.638 136.911 -13.948 133.771 C -17.038 129.571 -19.9 125.328 -22.519 121.089 C -23.371 121.316 -24.223 121.549 -25.076 121.781 C -21.913 127.11 -18.401 132.434 -14.575 137.637 C -11.781 141.435 -9.238 144.497 -7.937 146.401 C -7.673 146.788 -7.148 147.641 -6.444 148.775 C -5.627 148.179 -4.806 147.573 -3.977 146.968 C -4.78 146.023 -5.569 145.03 -6.336 143.988 Z  M 9.905 159.912 C 8.075 158.047 3.644 154.922 -0.967 150.243 C -1.985 150.998 -3.017 151.764 -4.044 152.534 C -1.066 157.068 2.993 162.64 6.169 164.262 C 10.955 166.714 12.247 162.31 9.905 159.912 Z  M 34.099 92.051 C 7.721 56.193 -24.506 36.49 -38.397 48.412 C -49.189 57.675 -44.757 84.736 -29.884 113.168 C -29.117 112.882 -28.354 112.601 -27.601 112.325 C -42.613 84.625 -46.717 58.886 -36.54 50.152 C -23.752 39.174 7.129 58.949 32.745 93.771 C 38.046 100.979 42.706 108.212 46.654 115.266 C 61.769 142.283 66.411 166.719 55.965 176.693 C 52.771 179.745 43.002 180.942 30.21 174.722 C 30.035 174.964 30.322 175.618 30.542 175.778 C 41.585 180.574 52.166 182.405 57.503 177.822 C 70.336 166.806 60.477 127.915 34.099 92.051 Z " fill="rgb(255,255,255)"/><g id="Group"><path d=" M -79.034 96.309 L -62.138 96.309 L -47.96 122.295 C -47.96 122.295 -47.96 103.479 -47.96 102.011 C -47.96 99.73 -50.637 96.755 -51.579 96.309 C -50.449 96.309 -40.568 96.309 -39.886 96.309 C -40.604 96.513 -42.905 99.526 -42.905 102.011 C -42.905 103.232 -42.905 130.521 -42.905 131.829 C -42.905 133.66 -40.456 136.184 -39.285 137.163 L -55.576 137.163 L -69.983 111.051 C -69.983 111.051 -69.983 130.521 -69.983 131.582 C -69.983 133.616 -68.135 135.574 -66.21 137.245 L -78.657 137.245 C -76.885 136.431 -75.185 133.864 -75.037 131.829 C -74.885 129.789 -75.037 103.518 -75.037 102.379 C -75.037 99.894 -77.262 97.855 -79.034 96.309 Z " fill="rgb(255,255,255)"/><path d=" M 75.512 137.163 L 97.988 137.163 C 96.745 136.838 95.351 135.249 94.597 133.132 C 93.843 131.01 81.926 96.309 81.926 96.309 L 73.377 96.309 C 70.955 98.194 68.358 100.18 65.586 102.273 C 65.577 102.35 65.568 102.428 65.559 102.501 C 65.187 104.942 58.499 131.102 58.091 132.396 C 57.526 134.188 54.619 136.184 53.453 137.245 L 65.559 137.245 C 64.348 135.777 63.37 134.353 63.595 132.725 C 63.823 131.092 64.501 127.837 64.501 127.837 L 77.024 127.837 C 77.589 129.465 78.01 130.928 78.23 132.313 C 78.49 133.985 76.907 135.859 75.512 137.163 Z  M 65.631 122.62 L 69.856 107.713 L 75.436 122.62 L 65.631 122.62 Z  M 63.729 97.797 C 64.348 97.302 64.972 96.804 65.595 96.309 L 62.312 96.309 C 62.639 96.634 63.182 97.147 63.729 97.797 Z " fill="rgb(255,255,255)"/><path d=" M -22.236 132.725 C -22.012 131.092 -21.335 127.837 -21.335 127.837 L -8.812 127.837 C -8.247 129.465 -7.825 130.928 -7.605 132.313 C -7.341 133.985 -8.924 135.859 -10.323 137.163 L 9.466 137.163 C 9.878 136.862 10.291 136.567 10.699 136.271 C 9.932 135.535 9.228 134.435 8.762 133.132 C 8.008 131.01 -3.909 96.309 -3.909 96.309 L -23.519 96.309 C -22.577 97.244 -19.864 99.768 -20.276 102.501 C -20.649 104.942 -27.336 131.102 -27.744 132.396 C -28.309 134.188 -31.216 136.184 -32.382 137.245 L -20.276 137.245 C -21.483 135.777 -22.465 134.353 -22.236 132.725 Z  M -15.979 107.713 L -10.395 122.62 L -20.2 122.62 L -15.979 107.713 Z " fill="rgb(255,255,255)"/><path d=" M 46.12 116.588 C 42.428 119.243 38.535 122.014 34.431 124.911 C 36.27 125.875 37.737 127.086 37.88 128.651 C 38.14 131.587 32.673 133.006 27.734 132.396 C 26.743 132.275 25.774 131.994 24.85 131.621 C 23.823 132.333 22.787 133.054 21.738 133.781 C 20.67 134.522 19.369 135.433 17.889 136.489 L 17.889 140.704 C 18.871 138.63 21.015 136.77 22.68 136.673 C 23.397 136.635 25.887 139.12 36.144 138.504 C 41.123 138.209 50.74 132.478 50.587 125.88 C 50.497 121.98 48.609 118.938 46.12 116.588 Z  M 17.889 126.776 L 17.889 131.073 C 18.795 130.419 19.692 129.775 20.567 129.145 C 19.19 128.108 18.208 127.139 17.889 126.776 Z  M 42.612 113.89 C 41.657 113.279 40.688 112.747 39.76 112.272 C 34.933 109.83 29.878 109.38 28.824 106.081 C 28.08 103.755 30.183 101.6 35.31 101.682 C 40.441 101.764 45.191 105.063 46.474 106.245 L 46.474 95.733 C 46.097 96.145 44.442 98.194 42.931 97.855 C 40.024 97.201 35.086 96.353 29.43 96.387 C 22.94 96.426 17.36 101.842 17.172 108.687 C 16.907 118.26 23.998 120.866 27.995 122.372 C 28.407 122.528 28.878 122.692 29.39 122.871 C 33.22 120.178 36.252 118.105 38.028 116.995 C 39.221 116.254 40.782 115.193 42.612 113.89 Z " fill="rgb(255,255,255)"/></g></g></g></svg>