<?xml version="1.0" encoding="UTF-8" standalone="no"?><!DOCTYPE svg PUBLIC "-//W3C//DTD SVG 1.1//EN" "http://www.w3.org/Graphics/SVG/1.1/DTD/svg11.dtd"><svg width="100%" height="100%" viewBox="0 0 30 24" version="1.1" xmlns="http://www.w3.org/2000/svg" xmlns:xlink="http://www.w3.org/1999/xlink" xml:space="preserve" style="fill-rule:evenodd;clip-rule:evenodd;stroke-linejoin:round;stroke-miterlimit:1.41421;"><g id="NASA"><circle cx="13.633" cy="12" r="12" style="fill:#0b3d91;"/><g><circle cx="12.924" cy="2.305" r="0.135" style="fill:#fff;"/><circle cx="14.305" cy="2.484" r="0.135" style="fill:#fff;"/><circle cx="16.117" cy="4.924" r="0.135" style="fill:#fff;"/><circle cx="6.18" cy="17.48" r="0.135" style="fill:#fff;"/><circle cx="6.529" cy="18.556" r="0.135" style="fill:#fff;"/><circle cx="4.861" cy="17.641" r="0.101" style="fill:#fff;"/><circle cx="10.332" cy="19.755" r="0.101" style="fill:#fff;"/><circle cx="18.913" cy="17.973" r="0.101" style="fill:#fff;"/><circle cx="21.406" cy="15.265" r="0.101" style="fill:#fff;"/><circle cx="9.184" cy="5.711" r="0.101" style="fill:#fff;"/><circle cx="11.929" cy="3.695" r="0.101" style="fill:#fff;"/><circle cx="11.63" cy="3.498" r="0.101" style="fill:#fff;"/><circle cx="11.361" cy="3.3" r="0.101" style="fill:#fff;"/><circle cx="9.615" cy="6.231" r="0.101" style="fill:#fff;"/><circle cx="13.657" cy="0.987" r="0.101" style="fill:#fff;"/><circle cx="14.321" cy="3.892" r="0.101" style="fill:#fff;"/><circle cx="13.274" cy="3.325" r="0.101" style="fill:#fff;"/><circle cx="11.48" cy="4.097" r="0.101" style="fill:#fff;"/><circle cx="19.39" cy="20.635" r="0.101" style="fill:#fff;"/><circle cx="6.009" cy="18.161" r="0.101" style="fill:#fff;"/><circle cx="13.023" cy="19.462" r="0.101" style="fill:#fff;"/><circle cx="8.097" cy="18.081" r="0.101" style="fill:#fff;"/><circle cx="8.969" cy="19.505" r="0.101" style="fill:#fff;"/><circle cx="15.39" cy="18.608" r="0.101" style="fill:#fff;"/><circle cx="18.931" cy="16.61" r="0.101" style="fill:#fff;"/><circle cx="21.615" cy="17.836" r="0.101" style="fill:#fff;"/><circle cx="22.529" cy="18.422" r="0.101" style="fill:#fff;"/><circle cx="22.68" cy="16.825" r="0.101" style="fill:#fff;"/><circle cx="9.334" cy="14.565" r="0.101" style="fill:#fff;"/><circle cx="9.372" cy="16.879" r="0.135" style="fill:#fff;"/><circle cx="10.18" cy="18.583" r="0.135" style="fill:#fff;"/><circle cx="19.848" cy="16.807" r="0.135" style="fill:#fff;"/><circle cx="23.328" cy="16.61" r="0.135" style="fill:#fff;"/><circle cx="21.606" cy="15.874" r="0.135" style="fill:#fff;"/><circle cx="19.848" cy="15.946" r="0.135" style="fill:#fff;"/><path d="M16.222,2.221l0.334,-0.032l-0.334,-0.019c-0.01,-0.065 -0.062,-0.115 -0.127,-0.124l-0.032,-0.333l-0.019,0.336c-0.06,0.013 -0.107,0.064 -0.114,0.127l-0.342,0.031l0.344,0.018c0.013,0.058 0.059,0.103 0.118,0.114l0.031,0.343l0.018,-0.342c0.062,-0.011 0.111,-0.058 0.123,-0.119Z" style="fill:#fff;fill-rule:nonzero;"/><path d="M10.576,5.945l0.334,-0.032l-0.334,-0.019c-0.01,-0.064 -0.062,-0.115 -0.127,-0.123l-0.032,-0.333l-0.019,0.335c-0.06,0.014 -0.107,0.064 -0.114,0.127l-0.342,0.031l0.344,0.019c0.013,0.057 0.059,0.103 0.118,0.113l0.031,0.344l0.019,-0.343c0.061,-0.01 0.11,-0.058 0.122,-0.119l0,0Z" style="fill:#fff;fill-rule:nonzero;"/><path d="M23.083,15.792l0.334,-0.032l-0.334,-0.019c-0.01,-0.064 -0.062,-0.115 -0.127,-0.123l-0.032,-0.333l-0.019,0.335c-0.06,0.014 -0.107,0.064 -0.114,0.127l-0.342,0.031l0.344,0.019c0.013,0.057 0.059,0.103 0.118,0.113l0.031,0.344l0.019,-0.343c0.061,-0.01 0.11,-0.058 0.122,-0.119l0,0Z" style="fill:#fff;fill-rule:nonzero;"/><path d="M9.446,20.941l0.334,-0.032l-0.334,-0.019c-0.01,-0.065 -0.062,-0.115 -0.127,-0.124l-0.032,-0.333l-0.019,0.336c-0.061,0.013 -0.107,0.064 -0.114,0.127l-0.342,0.031l0.344,0.018c0.013,0.058 0.059,0.103 0.118,0.114l0.031,0.343l0.018,-0.343c0.062,-0.01 0.111,-0.058 0.123,-0.118l0,0Z" style="fill:#fff;fill-rule:nonzero;"/><path d="M22.02,18.429l0.334,-0.032l-0.334,-0.019c-0.01,-0.064 -0.062,-0.115 -0.127,-0.123l-0.032,-0.333l-0.019,0.335c-0.06,0.014 -0.107,0.064 -0.114,0.127l-0.342,0.031l0.344,0.019c0.013,0.057 0.06,0.103 0.118,0.113l0.031,0.344l0.019,-0.343c0.061,-0.01 0.11,-0.058 0.122,-0.119Z" style="fill:#fff;fill-rule:nonzero;"/></g><path d="M16.478,9.126c-1.395,0.542 -2.756,1.026 -3.904,1.385c-2.333,0.731 -8.717,2.709 -12.574,5.202l0.323,0.126c2.35,-1.328 3.877,-1.745 5.345,-2.207c1.597,-0.502 6.757,-1.71 9.094,-2.367c0.79,-0.223 1.715,-0.513 2.694,-0.867c-0.228,-0.318 -0.468,-0.637 -0.721,-0.955c-0.085,-0.107 -0.171,-0.213 -0.257,-0.317l0,0Zm1.705,2.349c-0.338,0.228 -0.621,0.41 -0.819,0.525c-1.148,0.664 -6.745,4.484 -8.018,5.363c-1.273,0.879 -4.807,4.215 -5.848,5.184l-0.036,0.394c3.355,-3.013 4.407,-3.756 5.74,-4.771c1.651,-1.255 5.064,-3.578 6.225,-4.322c1.109,-0.712 2.109,-1.366 3.007,-1.965c-0.015,-0.025 -0.03,-0.049 -0.044,-0.074c-0.068,-0.111 -0.137,-0.222 -0.207,-0.334Zm5.243,-5.538c-1.634,0.958 -4.209,2.114 -6.708,3.095c0.06,0.073 0.119,0.147 0.179,0.222c0.279,0.351 0.542,0.705 0.79,1.059c1.964,-0.723 4.119,-1.694 5.829,-2.869c-0.814,0.772 -3.508,2.784 -5.15,3.906c0.085,0.138 0.167,0.276 0.246,0.413c2.488,-1.665 4.162,-2.89 5.137,-3.709c1.346,-1.131 4.413,-3.66 5.579,-7.05c-2.045,2.601 -4.463,4.09 -5.902,4.933l0,0Z" style="fill:#fc3d21;fill-rule:nonzero;"/><path d="M12.088,14.971c-0.264,-0.333 -0.63,-0.779 -0.905,-1.125c-0.367,-0.462 -0.707,-0.929 -1.019,-1.396c-0.101,0.025 -0.203,0.051 -0.304,0.076c0.376,0.587 0.794,1.173 1.249,1.746c0.332,0.418 0.634,0.755 0.789,0.965c0.032,0.042 0.094,0.136 0.178,0.261c0.097,-0.066 0.195,-0.132 0.293,-0.199c-0.095,-0.104 -0.189,-0.213 -0.281,-0.328Zm1.932,1.753c-0.218,-0.205 -0.745,-0.549 -1.293,-1.064c-0.121,0.083 -0.244,0.167 -0.366,0.252c0.354,0.499 0.837,1.113 1.214,1.291c0.57,0.27 0.723,-0.215 0.445,-0.479l0,0Zm2.877,-7.47c-3.137,-3.948 -6.969,-6.117 -8.621,-4.805c-1.283,1.02 -0.756,3.999 1.012,7.129c0.092,-0.032 0.183,-0.062 0.272,-0.093c-1.785,-3.049 -2.273,-5.883 -1.063,-6.845c1.521,-1.208 5.193,0.969 8.238,4.803c0.631,0.793 1.185,1.59 1.655,2.366c1.797,2.975 2.348,5.665 1.107,6.763c-0.38,0.336 -1.542,0.467 -3.063,-0.217c-0.021,0.026 0.013,0.099 0.04,0.116c1.313,0.528 2.571,0.729 3.206,0.225c1.525,-1.213 0.353,-5.495 -2.783,-9.442l0,0Z" style="fill:#fff;fill-rule:nonzero;"/><g><path d="M3.444,9.722l2.009,0l1.686,2.861c0,0 0,-2.072 0,-2.233c0,-0.251 -0.318,-0.579 -0.43,-0.628c0.134,0 1.309,0 1.39,0c-0.085,0.022 -0.359,0.354 -0.359,0.628c0,0.134 0,3.139 0,3.282c0,0.202 0.292,0.48 0.431,0.588l-1.938,0l-1.713,-2.875c0,0 0,2.144 0,2.26c0,0.225 0.22,0.44 0.449,0.624l-1.48,0c0.211,-0.09 0.413,-0.372 0.431,-0.597c0.018,-0.224 0,-3.116 0,-3.242c0,-0.273 -0.265,-0.498 -0.476,-0.668l0,0Z" style="fill:#fff;fill-rule:nonzero;"/><path d="M21.821,14.22l2.673,0c-0.148,-0.036 -0.314,-0.211 -0.404,-0.444c-0.09,-0.233 -1.507,-4.054 -1.507,-4.054l-1.016,0c-0.288,0.207 -0.597,0.426 -0.927,0.657c-0.001,0.008 -0.001,0.017 -0.003,0.025c-0.044,0.269 -0.839,3.149 -0.888,3.291c-0.067,0.197 -0.412,0.417 -0.551,0.534l1.439,0c-0.143,-0.162 -0.26,-0.319 -0.233,-0.498c0.027,-0.179 0.108,-0.538 0.108,-0.538l1.488,0c0.068,0.179 0.118,0.34 0.144,0.493c0.031,0.184 -0.157,0.39 -0.323,0.534l0,0Zm-1.175,-1.601l0.502,-1.641l0.664,1.641l-1.166,0Zm-0.226,-2.733c0.074,-0.055 0.148,-0.109 0.222,-0.164l-0.391,0c0.039,0.036 0.104,0.092 0.169,0.164l0,0Z" style="fill:#fff;fill-rule:nonzero;"/><path d="M10.198,13.731c0.027,-0.179 0.107,-0.538 0.107,-0.538l1.489,0c0.067,0.179 0.118,0.34 0.144,0.493c0.031,0.184 -0.157,0.39 -0.323,0.534l2.353,0c0.049,-0.033 0.097,-0.066 0.146,-0.099c-0.091,-0.08 -0.175,-0.201 -0.23,-0.345c-0.09,-0.233 -1.507,-4.054 -1.507,-4.054l-2.332,0c0.112,0.103 0.435,0.381 0.386,0.682c-0.044,0.269 -0.84,3.149 -0.888,3.291c-0.067,0.197 -0.413,0.417 -0.552,0.534l1.44,0c-0.144,-0.162 -0.26,-0.319 -0.233,-0.498l0,0Zm0.744,-2.753l0.664,1.641l-1.166,0l0.502,-1.641Z" style="fill:#fff;fill-rule:nonzero;"/><path d="M18.326,11.955c-0.439,0.292 -0.902,0.597 -1.39,0.916c0.219,0.106 0.393,0.239 0.41,0.412c0.031,0.323 -0.619,0.479 -1.206,0.412c-0.118,-0.013 -0.233,-0.044 -0.343,-0.085c-0.122,0.078 -0.245,0.157 -0.37,0.238c-0.127,0.081 -0.282,0.182 -0.458,0.298l0,0.464c0.117,-0.229 0.372,-0.434 0.57,-0.444c0.085,-0.005 0.381,0.269 1.601,0.202c0.592,-0.033 1.735,-0.664 1.717,-1.39c-0.011,-0.43 -0.235,-0.765 -0.531,-1.023Zm-3.357,1.121l0,0.473c0.108,-0.072 0.214,-0.143 0.319,-0.212c-0.165,-0.114 -0.281,-0.221 -0.319,-0.261l0,0Zm2.94,-1.418c-0.114,-0.068 -0.229,-0.126 -0.339,-0.178c-0.574,-0.27 -1.175,-0.319 -1.301,-0.682c-0.088,-0.256 0.162,-0.493 0.772,-0.484c0.61,0.009 1.175,0.372 1.327,0.502l0,-1.157c-0.045,0.045 -0.242,0.27 -0.422,0.233c-0.345,-0.072 -0.932,-0.165 -1.605,-0.161c-0.771,0.004 -1.435,0.6 -1.457,1.354c-0.032,1.054 0.811,1.341 1.287,1.507c0.049,0.017 0.105,0.035 0.165,0.054c0.456,-0.296 0.817,-0.525 1.028,-0.646c0.142,-0.082 0.327,-0.199 0.545,-0.342l0,0Z" style="fill:#fff;fill-rule:nonzero;"/></g></g></svg>