<?xml version="1.0" encoding="UTF-8" standalone="no"?><!DOCTYPE svg PUBLIC "-//W3C//DTD SVG 1.1//EN" "http://www.w3.org/Graphics/SVG/1.1/DTD/svg11.dtd"><svg width="247px" height="45px" version="1.1" xmlns="http://www.w3.org/2000/svg" xmlns:xlink="http://www.w3.org/1999/xlink" xml:space="preserve" style="fill-rule:evenodd;clip-rule:evenodd;stroke-linejoin:round;stroke-miterlimit:1.41421;"><g id="WV"><path d="M206.45,35.949l-3,0l-7.5,-20l3,0l6,16l3,-8l-3,-8l3,0l1.5,4l1.5,-4l3,0l-3,8l3,8l6,-16l3,0l-7.5,20l-3,0l-3,-8l-3,8Z" style="fill:#fff;"/><path d="M193.95,35.949l-12,0l0,-20l12,0l0,3l-9,0l0,4.5l9,0l0,3l-9,0l0,6.5l9,0l0,3Z" style="fill:#fff;"/><rect x="176.95" y="15.949" width="3" height="20" style="fill:#fff;"/><path d="M167.45,35.949l-3,0l-7.5,-20l3,0l6,16l6,-16l3,0l-7.5,20Z" style="fill:#fff;"/><path d="M147.95,35.949l-8,0l0,-20c0,0 3.033,0 8,0c4.967,0 9,4.481 9,10c0,5.519 -4.033,10 -9,10Zm0,-17c3.311,0 6,3.137 6,7c0,3.863 -2.689,7 -6,7c-1.902,0 -5,0 -5,0l0,-14c0,0 1.689,0 5,0Z" style="fill:#fff;"/><path d="M125.95,15.949l3,0l0,17l9,0l0,3l-9,0l-3,0l0,-20Z" style="fill:#fff;"/><path d="M112.45,35.949l-3,0l0,-20l7,0c3.311,0 6,2.689 6,6c0,1.95 -0.932,3.684 -2.375,4.78c2.341,1.807 3.875,4.816 3.875,8.22c0,0.363 -0.037,0.995 -0.037,1l-3,0c0,0 0.037,-0.647 0.037,-1c0,-3.863 -2.689,-7 -6,-7c0,0 -2.5,0 -2.5,0l0,8Zm4,-11c1.656,0 3,-1.344 3,-3c0,-1.656 -1.344,-3 -3,-3c-1.074,0 -4,0 -4,0l0,6l4,0Z" style="fill:#fff;"/><path d="M98.45,15.949c4.967,0 9,4.481 9,10c0,5.519 -4.033,10 -9,10c-4.967,0 -9,-4.481 -9,-10c0,-5.519 4.033,-10 9,-10Zm0,3c3.311,0 6,3.137 6,7c0,3.863 -2.689,7 -6,7c-3.311,0 -6,-3.137 -6,-7c0,-3.863 2.689,-7 6,-7Z" style="fill:#fff;"/><path d="M69.175,35.949l-4.05,0l-10.125,-27l4.05,0l8.1,21.6l4.05,-10.8l-4.05,-10.8l4.05,0l2.025,5.4l2.025,-5.4l4.05,0l-4.05,10.8l4.05,10.8l8.1,-21.6l4.05,0l-10.125,27l-4.05,0l-4.05,-10.8l-4.05,10.8Z" style="fill:#fff;"/></g><g id="NASA"><circle cx="25.561" cy="22.5" r="22.5" style="fill:#0b3d91;"/><g><circle cx="24.233" cy="4.322" r="0.252" style="fill:#fff;"/><circle cx="26.822" cy="4.658" r="0.252" style="fill:#fff;"/><circle cx="30.219" cy="9.232" r="0.252" style="fill:#fff;"/><circle cx="11.587" cy="32.775" r="0.252" style="fill:#fff;"/><circle cx="12.243" cy="34.793" r="0.252" style="fill:#fff;"/><circle cx="9.115" cy="33.077" r="0.189" style="fill:#fff;"/><circle cx="19.373" cy="37.041" r="0.189" style="fill:#fff;"/><circle cx="35.461" cy="33.7" r="0.189" style="fill:#fff;"/><circle cx="40.137" cy="28.621" r="0.189" style="fill:#fff;"/><circle cx="17.22" cy="10.707" r="0.189" style="fill:#fff;"/><circle cx="22.366" cy="6.928" r="0.189" style="fill:#fff;"/><circle cx="21.807" cy="6.558" r="0.189" style="fill:#fff;"/><circle cx="21.303" cy="6.188" r="0.189" style="fill:#fff;"/><circle cx="18.027" cy="11.683" r="0.189" style="fill:#fff;"/><circle cx="25.607" cy="1.85" r="0.189" style="fill:#fff;"/><circle cx="26.852" cy="7.298" r="0.189" style="fill:#fff;"/><circle cx="24.888" cy="6.234" r="0.189" style="fill:#fff;"/><circle cx="21.525" cy="7.681" r="0.189" style="fill:#fff;"/><circle cx="36.357" cy="38.69" r="0.189" style="fill:#fff;"/><circle cx="11.267" cy="34.053" r="0.189" style="fill:#fff;"/><circle cx="24.418" cy="36.491" r="0.189" style="fill:#fff;"/><circle cx="15.181" cy="33.901" r="0.189" style="fill:#fff;"/><circle cx="16.817" cy="36.571" r="0.189" style="fill:#fff;"/><circle cx="28.857" cy="34.89" r="0.189" style="fill:#fff;"/><circle cx="35.495" cy="31.143" r="0.189" style="fill:#fff;"/><circle cx="40.527" cy="33.443" r="0.189" style="fill:#fff;"/><circle cx="42.243" cy="34.54" r="0.189" style="fill:#fff;"/><circle cx="42.525" cy="31.547" r="0.189" style="fill:#fff;"/><circle cx="17.502" cy="27.309" r="0.189" style="fill:#fff;"/><circle cx="17.573" cy="31.648" r="0.252" style="fill:#fff;"/><circle cx="19.087" cy="34.843" r="0.252" style="fill:#fff;"/><circle cx="37.215" cy="31.513" r="0.252" style="fill:#fff;"/><circle cx="43.739" cy="31.143" r="0.252" style="fill:#fff;"/><circle cx="40.511" cy="29.765" r="0.252" style="fill:#fff;"/><circle cx="37.215" cy="29.899" r="0.252" style="fill:#fff;"/><path d="M30.416,4.164l0.627,-0.06l-0.626,-0.036c-0.02,-0.121 -0.117,-0.215 -0.239,-0.231l-0.06,-0.625l-0.036,0.63c-0.113,0.025 -0.2,0.12 -0.214,0.238l-0.641,0.058l0.646,0.035c0.023,0.108 0.111,0.192 0.221,0.213l0.058,0.643l0.034,-0.642c0.116,-0.02 0.208,-0.109 0.23,-0.223Z" style="fill:#fff;fill-rule:nonzero;"/><path d="M19.83,11.147l0.627,-0.06l-0.626,-0.035c-0.019,-0.122 -0.117,-0.216 -0.239,-0.232l-0.06,-0.624l-0.035,0.629c-0.114,0.025 -0.201,0.12 -0.215,0.238l-0.641,0.058l0.645,0.035c0.024,0.108 0.111,0.193 0.221,0.213l0.059,0.643l0.034,-0.642c0.116,-0.019 0.208,-0.109 0.23,-0.223Z" style="fill:#fff;fill-rule:nonzero;"/><path d="M43.28,29.61l0.627,-0.06l-0.626,-0.035c-0.019,-0.122 -0.117,-0.216 -0.239,-0.232l-0.06,-0.624l-0.035,0.629c-0.113,0.025 -0.2,0.12 -0.214,0.238l-0.642,0.058l0.646,0.035c0.024,0.108 0.111,0.193 0.221,0.213l0.058,0.643l0.035,-0.642c0.115,-0.019 0.207,-0.108 0.229,-0.223Z" style="fill:#fff;fill-rule:nonzero;"/><path d="M17.711,39.263l0.627,-0.06l-0.626,-0.035c-0.02,-0.121 -0.117,-0.216 -0.239,-0.231l-0.06,-0.624l-0.035,0.629c-0.114,0.025 -0.201,0.12 -0.215,0.237l-0.641,0.059l0.646,0.034c0.023,0.109 0.111,0.194 0.22,0.213l0.059,0.644l0.035,-0.642c0.115,-0.02 0.207,-0.109 0.229,-0.224Z" style="fill:#fff;fill-rule:nonzero;"/><path d="M41.287,34.555l0.627,-0.06l-0.626,-0.035c-0.019,-0.121 -0.116,-0.216 -0.239,-0.232l-0.06,-0.624l-0.035,0.629c-0.113,0.025 -0.2,0.12 -0.214,0.237l-0.641,0.059l0.645,0.034c0.024,0.109 0.111,0.193 0.221,0.213l0.059,0.644l0.034,-0.643c0.115,-0.018 0.208,-0.108 0.229,-0.222Z" style="fill:#fff;fill-rule:nonzero;"/></g><path d="M30.897,17.11c-2.616,1.017 -5.168,1.925 -7.321,2.599c-4.375,1.369 -16.345,5.078 -23.576,9.753l0.605,0.235c4.406,-2.488 7.27,-3.27 10.023,-4.136c2.993,-0.942 12.67,-3.207 17.051,-4.44c1.481,-0.416 3.214,-0.962 5.051,-1.625c-0.427,-0.596 -0.878,-1.194 -1.352,-1.79c-0.159,-0.202 -0.32,-0.4 -0.481,-0.596Zm3.196,4.406c-0.633,0.427 -1.164,0.769 -1.536,0.984c-2.152,1.244 -12.646,8.408 -15.033,10.056c-2.388,1.648 -9.014,7.904 -10.965,9.72l-0.067,0.739c6.289,-5.65 8.262,-7.044 10.762,-8.945c3.095,-2.355 9.495,-6.71 11.671,-8.106c2.079,-1.334 3.955,-2.561 5.638,-3.684c-0.027,-0.046 -0.055,-0.092 -0.082,-0.138c-0.127,-0.208 -0.256,-0.417 -0.388,-0.626Zm9.831,-10.384c-3.064,1.796 -7.893,3.964 -12.578,5.803c0.113,0.137 0.224,0.276 0.335,0.415c0.524,0.66 1.017,1.323 1.482,1.987c3.683,-1.356 7.724,-3.177 10.93,-5.38c-1.527,1.447 -6.577,5.221 -9.656,7.325c0.158,0.258 0.312,0.517 0.46,0.774c4.665,-3.122 7.804,-5.419 9.633,-6.956c2.523,-2.118 8.274,-6.861 10.46,-13.217c-3.835,4.877 -8.368,7.668 -11.066,9.249Z" style="fill:#fc3d21;fill-rule:nonzero;"/><path d="M22.666,28.071c-0.496,-0.624 -1.182,-1.461 -1.697,-2.109c-0.689,-0.867 -1.327,-1.743 -1.911,-2.618c-0.19,0.047 -0.38,0.095 -0.57,0.143c0.705,1.1 1.488,2.199 2.341,3.273c0.623,0.784 1.19,1.416 1.48,1.809c0.059,0.08 0.176,0.256 0.333,0.49c0.182,-0.123 0.365,-0.248 0.55,-0.373c-0.179,-0.195 -0.355,-0.4 -0.526,-0.615Zm3.621,3.287c-0.408,-0.385 -1.396,-1.03 -2.424,-1.996c-0.227,0.156 -0.457,0.314 -0.686,0.473c0.664,0.936 1.569,2.086 2.277,2.421c1.067,0.506 1.355,-0.403 0.833,-0.898Zm5.394,-14.008c-5.881,-7.402 -13.066,-11.469 -16.163,-9.008c-2.406,1.912 -1.418,7.498 1.898,13.367c0.171,-0.059 0.341,-0.117 0.509,-0.174c-3.347,-5.718 -4.262,-11.031 -1.993,-12.834c2.851,-2.266 9.736,1.816 15.447,9.004c1.182,1.488 2.221,2.981 3.101,4.437c3.37,5.577 4.405,10.621 2.076,12.68c-0.712,0.63 -2.89,0.877 -5.742,-0.407c-0.039,0.05 0.025,0.185 0.074,0.218c2.462,0.99 4.821,1.368 6.011,0.422c2.861,-2.274 0.663,-10.302 -5.218,-17.705Z" style="fill:#fff;fill-rule:nonzero;"/><g><path d="M6.458,18.229l3.767,0l3.161,5.364c0,0 0,-3.884 0,-4.187c0,-0.471 -0.597,-1.085 -0.807,-1.177c0.252,0 2.455,0 2.607,0c-0.16,0.042 -0.673,0.664 -0.673,1.177c0,0.252 0,5.885 0,6.155c0,0.378 0.546,0.899 0.807,1.101l-3.632,0l-3.212,-5.39c0,0 0,4.019 0,4.238c0,0.42 0.412,0.824 0.841,1.169l-2.775,0c0.395,-0.168 0.774,-0.698 0.807,-1.118c0.034,-0.421 0,-5.844 0,-6.079c0,-0.513 -0.496,-0.934 -0.891,-1.253Z" style="fill:#fff;fill-rule:nonzero;"/><path d="M40.914,26.662l5.011,0c-0.277,-0.067 -0.588,-0.395 -0.756,-0.832c-0.168,-0.438 -2.825,-7.601 -2.825,-7.601l-1.906,0c-0.54,0.389 -1.119,0.799 -1.737,1.231c-0.002,0.016 -0.004,0.032 -0.006,0.047c-0.083,0.504 -1.574,5.904 -1.665,6.171c-0.126,0.37 -0.774,0.782 -1.034,1.001l2.699,0c-0.27,-0.303 -0.488,-0.597 -0.438,-0.933c0.051,-0.337 0.202,-1.009 0.202,-1.009l2.792,0c0.126,0.336 0.22,0.638 0.269,0.924c0.058,0.345 -0.295,0.732 -0.606,1.001Zm-2.203,-3.002l0.942,-3.077l1.244,3.077l-2.186,0Zm-0.424,-5.124c0.138,-0.102 0.277,-0.205 0.416,-0.307l-0.732,0c0.073,0.067 0.194,0.173 0.316,0.307Z" style="fill:#fff;fill-rule:nonzero;"/><path d="M19.121,25.746c0.05,-0.337 0.201,-1.009 0.201,-1.009l2.792,0c0.126,0.336 0.22,0.638 0.269,0.924c0.059,0.345 -0.294,0.732 -0.606,1.001l4.412,0c0.092,-0.062 0.184,-0.123 0.275,-0.184c-0.171,-0.152 -0.328,-0.379 -0.432,-0.648c-0.168,-0.438 -2.825,-7.601 -2.825,-7.601l-4.372,0c0.21,0.193 0.815,0.714 0.723,1.278c-0.083,0.504 -1.574,5.904 -1.665,6.171c-0.126,0.37 -0.774,0.782 -1.034,1.001l2.699,0c-0.269,-0.303 -0.488,-0.597 -0.437,-0.933Zm1.395,-5.163l1.245,3.077l-2.186,0l0.941,-3.077Z" style="fill:#fff;fill-rule:nonzero;"/><path d="M34.361,22.415c-0.823,0.548 -1.691,1.12 -2.606,1.718c0.41,0.199 0.737,0.449 0.769,0.772c0.058,0.606 -1.161,0.899 -2.262,0.773c-0.221,-0.025 -0.437,-0.083 -0.643,-0.16c-0.229,0.147 -0.46,0.296 -0.694,0.446c-0.238,0.153 -0.528,0.341 -0.858,0.559l0,0.87c0.219,-0.428 0.697,-0.812 1.068,-0.832c0.16,-0.008 0.715,0.505 3.002,0.378c1.11,-0.061 3.254,-1.244 3.22,-2.606c-0.02,-0.805 -0.441,-1.433 -0.996,-1.918Zm-6.294,2.103l0,0.887c0.202,-0.135 0.402,-0.268 0.597,-0.398c-0.307,-0.214 -0.526,-0.414 -0.597,-0.489Zm5.512,-2.66c-0.213,-0.126 -0.429,-0.236 -0.636,-0.334c-1.076,-0.504 -2.203,-0.597 -2.438,-1.278c-0.166,-0.48 0.303,-0.925 1.446,-0.908c1.144,0.017 2.203,0.698 2.489,0.942l0,-2.17c-0.084,0.085 -0.453,0.508 -0.79,0.438c-0.648,-0.135 -1.749,-0.31 -3.01,-0.303c-1.447,0.008 -2.691,1.126 -2.733,2.539c-0.059,1.976 1.522,2.514 2.413,2.825c0.092,0.032 0.197,0.066 0.311,0.103c0.854,-0.556 1.53,-0.984 1.926,-1.213c0.266,-0.153 0.614,-0.372 1.022,-0.641Z" style="fill:#fff;fill-rule:nonzero;"/></g></g></svg>