<?xml version="1.0" encoding="utf-8"?>
<!-- Generator: Adobe Illustrator 25.3.1, SVG Export Plug-In . SVG Version: 6.00 Build 0)  -->
<svg version="1.1" xmlns="http://www.w3.org/2000/svg" xmlns:xlink="http://www.w3.org/1999/xlink" x="0px" y="0px"
	 viewBox="0 0 247 45" style="enable-background:new 0 0 247 45;" xml:space="preserve">
<style type="text/css">
	.st0{fill:#1D4899;}
	.st1{fill:#FFFFFF;}
	.st2{fill:#E9E8E8;}
	.st3{fill:#6DA6D9;}
	.st4{display:none;}
	.st5{display:inline;}
</style>
<g id="Layer_2">
	<g>
		<circle class="st0" cx="26.75" cy="22.49" r="20.9"/>
		<path class="st1" d="M6.54,22.49c0-11.16,9.05-20.21,20.21-20.21l0,0c11.16,0,20.21,9.05,20.21,20.21l0,0h0
			c0,11.16-9.05,20.21-20.21,20.21l0,0C15.59,42.71,6.54,33.66,6.54,22.49L6.54,22.49z M12.85,8.59c-3.56,3.56-5.76,8.47-5.76,13.9
			l0,0c0,5.43,2.2,10.34,5.76,13.9l0,0c3.56,3.56,8.47,5.76,13.9,5.76l0,0c5.43,0,10.34-2.2,13.9-5.76l0,0
			c3.56-3.56,5.76-8.47,5.76-13.9l0,0c0-5.43-2.2-10.34-5.76-13.9l0,0c-3.56-3.56-8.47-5.76-13.9-5.76l0,0
			C21.32,2.84,16.41,5.04,12.85,8.59L12.85,8.59z"/>
		<g>
			<path class="st1" d="M44.75,15.05c-2.16-2.07-4.68-3.78-7.46-5.01l-0.25,0.07c-0.03,0.02-0.09,0.08-0.1,0.1
				c-0.01,0.01-0.03,0.05-0.05,0.09c-0.02,0.03-0.06,0.07-0.1,0.09c-0.03,0.02-0.07,0.03-0.08,0.04c0,0,0,0-0.03,0.01
				c-0.04,0.02-0.06,0.02-0.06,0.02c0,0-0.01,0-0.02,0.01C39.59,11.55,42.33,13.11,44.75,15.05z"/>
			<path class="st1" d="M31.29,8.8c0-0.04,0.02-0.07,0.06-0.08l0.74-0.07c0.04,0,0.07-0.01,0.07-0.01c0,0,0.03,0,0.07-0.01
				l0.25-0.02c0.04,0,0.1-0.01,0.14-0.01l0.25-0.02c0.04,0,0.07-0.01,0.07-0.01c0,0,0.01,0,0.02,0c-1.99-0.49-4.08-0.75-6.22-0.75
				c-6.99,0-13.33,2.75-18,7.23c4.93-3.96,11.19-6.32,18-6.32c1.56,0,3.09,0.13,4.58,0.36L31.29,8.8z"/>
		</g>
		<path class="st1" d="M38.8,8.45l-0.4,0.04l0.58,0.73l0.42-0.06L38.8,8.45z M37.94,8.53l0.58,0.76l0.44-0.07l-0.58-0.74L37.94,8.53
			z M37.44,8.57L38,9.37l0.49-0.07l-0.58-0.77L37.44,8.57z M37.31,8.58l-0.25-0.39l0.2-0.32c0.07-0.05,0.11-0.1,0.1-0.14
			c-0.02-0.08-0.23-0.09-0.46-0.03c-0.23,0.06-0.4,0.18-0.38,0.26c0,0,0,0.01,0,0.01L36.4,7.99l0-0.07L36.35,7.9l-0.14,0.11
			l-0.08,0.01l0.01,0.02l-0.13,0.3c0,0,0,0,0,0C36,8.33,35.96,8.36,35.94,8.4c-0.01,0.03-0.02,0.05-0.01,0.07
			c-0.03,0-0.06,0.02-0.08,0.07c-0.02,0.05-0.02,0.1,0,0.11c0.01,0.01,0.03,0,0.05-0.01l-0.25,0.6l-0.48,0.03l-0.21-0.45l-0.62,0.06
			l0.35,0.96l0.69-0.11L35.2,9.34l0.41-0.03l-0.06,0.14l0.06,0.18c-0.02,0.07-0.02,0.14,0,0.21c0.06,0.23,0.3,0.36,0.54,0.3
			c0.07-0.02,0.13-0.05,0.18-0.1c0.05-0.02,0.1-0.04,0.16-0.06c0.02-0.01,0.03-0.01,0.03-0.01c0.05-0.09,0.14-0.25,0.25-0.43
			c0.05-0.02,0.1-0.04,0.15-0.07c0.02-0.01,0.03-0.02,0.04-0.03l0.02,0.03c-0.02,0.02-0.02,0.04-0.01,0.06c0,0,0.01,0.01,0.01,0.01
			c0,0,0,0,0,0c0,0,0.01,0.01,0.01,0.01c0,0,0,0,0,0c0,0,0.01,0.01,0.01,0.01c0,0,0,0,0,0c0,0,0.01,0.01,0.01,0.01c0,0,0,0,0,0
			c0,0,0.01,0.01,0.01,0.01c0,0,0,0,0,0c0,0,0.01,0.01,0.01,0.01c0,0,0,0,0,0c0,0,0.01,0.01,0.01,0.01c0,0,0,0,0,0
			c0,0,0.01,0.01,0.01,0.01c0,0,0,0,0,0c0,0,0.01,0.01,0.01,0.01c0,0,0,0,0,0c0.01,0.01,0.02,0.02,0.03,0.01c0,0,0,0.01,0,0.01
			c0,0,0,0,0,0c0,0,0,0,0,0c0,0,0,0,0,0c0,0,0,0,0,0c0,0,0,0,0,0c0,0,0,0,0,0.01c0,0,0,0,0,0c0,0,0,0,0,0.01c0,0,0,0,0,0
			c0,0,0,0,0,0.01c0,0,0,0,0,0c0,0,0,0,0,0.01c0,0,0,0,0,0c0,0,0,0,0,0.01c0,0,0,0,0.01,0c0,0,0,0,0,0c0,0,0,0,0.01,0c0,0,0,0,0,0
			c0,0.01,0.02,0.01,0.03,0c0.01-0.01,0.02-0.02,0.01-0.03c0,0,0,0,0,0c0,0,0,0,0-0.01c0,0,0,0,0,0c0,0,0,0,0-0.01c0,0,0,0,0,0
			c0,0,0,0,0-0.01c0,0,0,0,0,0c0,0,0-0.01,0-0.01c0,0,0,0,0,0c0,0,0-0.01,0-0.01c0,0,0,0,0,0c0,0,0-0.01,0-0.01c0,0,0,0,0,0
			c0,0,0-0.01,0-0.01c0,0,0,0,0,0c0,0,0-0.01,0-0.01c0,0,0,0,0,0c0,0,0,0,0-0.01c0,0,0,0-0.01-0.01c0.01-0.01,0.01-0.03,0-0.04
			c0,0,0,0,0,0c0-0.01,0-0.01,0-0.02c0,0,0,0,0,0c0-0.01,0-0.01,0-0.02c0,0,0,0,0,0c0-0.01,0-0.01,0-0.02c0,0,0,0,0,0
			c0-0.01,0-0.01,0-0.02c0,0,0,0,0,0c0-0.01,0-0.01,0-0.02c0,0,0,0,0,0c0-0.01,0-0.01,0-0.02c0,0,0,0,0,0c0-0.01,0-0.01,0-0.02
			c0,0,0,0,0,0c0-0.01,0-0.01,0-0.02c0,0,0,0,0,0c0-0.01,0-0.01,0-0.02c-0.01-0.02-0.04-0.03-0.07-0.02l-0.02-0.03
			c0.1-0.07,0.18-0.15,0.24-0.23l0.18,0.27l0.53-0.08l-0.56-0.8L37.31,8.58z M35.95,8.5C35.95,8.5,35.95,8.5,35.95,8.5
			C35.95,8.5,35.96,8.5,35.95,8.5L35.95,8.5z M37.04,8.16L36.94,8c0.01,0,0.03-0.01,0.04-0.01c0.08-0.02,0.15-0.05,0.21-0.08
			L37.04,8.16z M32.8,9.02l0.22,1.07l0.84-0.13l-0.31-1.01L32.8,9.02z M31.91,9.1l0.13,1.14l0.93-0.14l-0.22-1.07L31.91,9.1z
			 M33.6,8.94l0.3,1.01l0.74-0.11l-0.36-0.96L33.6,8.94z"/>
		<polygon class="st2" points="35.58,9.42 35.76,9.03 36.03,9.59 35.85,9.99 		"/>
		<polygon class="st2" points="35.87,8.82 35.97,8.6 36.22,9.11 36.12,9.32 		"/>
		<polygon class="st2" points="36,8.5 36.1,8.28 36.23,8.52 36.13,8.77 		"/>
		<path class="st1" d="M41.33,32.27c0.95-0.62,1.89-1.34,2.79-2.16c0.02-0.04,0.03-0.07,0.05-0.11c-0.79,0.59-1.59,1.11-2.39,1.57
			c-5.68,3.1-9.9,2.06-13.65,0.34c-3.37-1.55-6.18-3.58-10.51-3.65c-2.01,0-4.52,0.41-8.22,1.9c0.67,1.51,1.52,2.91,2.54,4.18
			c4.13-2.09,6.76-2.63,8.81-2.65c3.58,0.03,5.97,1.67,8.75,2.89c3.03,1.33,6.36,2.09,10.76-0.42c0.94-0.56,1.88-1.24,2.79-2.04
			c-0.79,0.57-1.59,1.06-2.39,1.46c-2.86,1.4-5.25,1.56-7.37,1.1C35.68,34.78,38.31,34.18,41.33,32.27z"/>
		<path class="st3" d="M26.02,36.9c3.01,1.29,6.14,2.04,10.17-0.1c0.32-0.18,0.64-0.37,0.96-0.57c-3.14,0.9-5.64,0.22-7.95-0.78
			c-2.59-1.12-4.81-2.6-8.18-2.72c-1.67-0.03-3.74,0.26-6.81,1.41c0.99-0.22,1.88-0.29,2.72-0.28
			C20.47,33.99,23.16,35.67,26.02,36.9z"/>
		<g>
			<path class="st3" d="M26.99,22.29c0-1.69,1.37-3.05,3.05-3.05l0,0c1.69,0,3.05,1.37,3.05,3.05l0,0h0c0,1.69-1.37,3.05-3.05,3.05
				l0,0C28.35,25.35,26.99,23.98,26.99,22.29L26.99,22.29z M28.51,22.29c0,0.85,0.69,1.53,1.53,1.53l0,0c0.85,0,1.53-0.69,1.53-1.53
				l0,0h0c0-0.85-0.69-1.53-1.53-1.53l0,0C29.2,20.76,28.51,21.45,28.51,22.29L28.51,22.29z"/>
			<path class="st3" d="M33.14,22.3c0-1.69,1.37-3.05,3.05-3.05l0,0c1.69,0,3.05,1.37,3.05,3.05l0,0h0c0,1.69-1.37,3.05-3.05,3.05
				l0,0C34.51,25.36,33.14,23.99,33.14,22.3L33.14,22.3z M34.66,22.3c0,0.85,0.69,1.53,1.53,1.53l0,0c0.85,0,1.53-0.69,1.53-1.53
				l0,0h0c0-0.85-0.69-1.53-1.53-1.53l0,0C35.35,20.77,34.67,21.46,34.66,22.3L34.66,22.3z"/>
			<rect x="8.52" y="22.29" class="st1" width="1.5" height="5.73"/>
			<rect x="31.59" y="22.18" class="st3" width="1.5" height="3.12"/>
			<rect x="37.75" y="22.18" class="st3" width="1.5" height="3.12"/>
			<path class="st3" d="M43.72,23.16c-0.26,0.46-0.76,0.78-1.33,0.78c-0.85,0-1.53-0.69-1.53-1.53c0-0.85,0.69-1.53,1.53-1.53
				c0.58,0,1.08,0.32,1.34,0.79h1.62c-0.33-1.33-1.53-2.31-2.96-2.31c-1.69,0-3.05,1.37-3.05,3.05c0,1.69,1.37,3.05,3.05,3.05
				c1.43,0,2.62-0.98,2.96-2.3H43.72z"/>
			<path class="st1" d="M11.57,25.35c-1.68,0-3.05-1.37-3.05-3.05c0-1.68,1.37-3.05,3.05-3.05s3.05,1.37,3.05,3.05
				C14.63,23.98,13.26,25.35,11.57,25.35z M11.57,20.76c-0.84,0-1.53,0.69-1.53,1.53c0,0.84,0.69,1.53,1.53,1.53
				c0.84,0,1.53-0.69,1.53-1.53C13.1,21.45,12.42,20.76,11.57,20.76z"/>
			<path class="st1" d="M17.71,25.35c-1.68,0-3.05-1.37-3.05-3.05c0-1.68,1.37-3.05,3.05-3.05c1.68,0,3.05,1.37,3.05,3.05
				C20.76,23.98,19.39,25.35,17.71,25.35z M17.71,20.76c-0.84,0-1.53,0.69-1.53,1.53c0,0.84,0.69,1.53,1.53,1.53
				c0.84,0,1.53-0.69,1.53-1.53C19.24,21.45,18.55,20.76,17.71,20.76z"/>
			<path class="st3" d="M20.83,22.4c0-1.69,1.37-3.05,3.05-3.05l0,0c1.69,0,3.05,1.37,3.05,3.05l0,0c0,1.69-1.37,3.05-3.05,3.05l0,0
				C22.19,25.46,20.83,24.09,20.83,22.4L20.83,22.4z M22.35,22.4c0,0.85,0.69,1.53,1.53,1.53l0,0c0.85,0,1.53-0.69,1.53-1.53l0,0
				c0-0.85-0.69-1.53-1.53-1.53l0,0C23.04,20.87,22.35,21.56,22.35,22.4L22.35,22.4z"/>
			<rect x="25.44" y="16.64" class="st3" width="1.5" height="5.73"/>
		</g>
	</g>
</g>
<g id="Layer_3" class="st4">
	<g class="st5">
		<g>
			<path d="M58.19,13.44c1.69,0,3.04,0.48,4.07,1.43s1.52,2.24,1.49,3.84l-0.02,0.07h-3.27c0-0.9-0.2-1.58-0.6-2.05
				c-0.4-0.47-0.98-0.7-1.73-0.7c-0.64,0-1.15,0.21-1.5,0.64c-0.36,0.43-0.54,0.96-0.54,1.59c0,0.59,0.2,1.07,0.61,1.46
				c0.41,0.38,1.1,0.8,2.09,1.25c1.68,0.56,2.95,1.26,3.81,2.11c0.86,0.85,1.3,2,1.3,3.44c0,1.49-0.51,2.66-1.52,3.51
				c-1.01,0.85-2.35,1.28-4.02,1.28c-1.65,0-3.06-0.46-4.23-1.38c-1.17-0.92-1.74-2.32-1.7-4.2l0.02-0.07h3.28
				c0,1.09,0.22,1.88,0.66,2.35c0.44,0.48,1.09,0.72,1.95,0.72c0.72,0,1.27-0.2,1.63-0.6c0.36-0.4,0.54-0.93,0.54-1.59
				c0-0.69-0.18-1.24-0.53-1.64c-0.35-0.4-0.99-0.79-1.9-1.18c-1.78-0.63-3.12-1.34-4.02-2.14c-0.9-0.8-1.35-1.91-1.35-3.34
				c0-1.42,0.51-2.58,1.54-3.48C55.29,13.89,56.6,13.44,58.19,13.44 M58.19,12.44c-1.83,0-3.38,0.53-4.58,1.59
				c-1.25,1.09-1.88,2.51-1.88,4.23c0,1.72,0.57,3.1,1.69,4.09c1,0.89,2.42,1.65,4.33,2.32c0.99,0.42,1.37,0.74,1.51,0.9
				c0.19,0.22,0.28,0.54,0.28,0.98c0,0.41-0.09,0.71-0.28,0.92c-0.16,0.18-0.46,0.27-0.89,0.27c-0.85,0-1.13-0.3-1.22-0.4
				c-0.26-0.28-0.4-0.87-0.4-1.67v-1h-1h-3.28h-0.72l-0.23,0.69l-0.02,0.07l-0.05,0.14l0,0.15c-0.05,2.2,0.65,3.88,2.08,5
				c1.35,1.06,2.98,1.59,4.84,1.59c1.91,0,3.48-0.51,4.67-1.51c1.24-1.05,1.87-2.49,1.87-4.28c0-1.71-0.54-3.11-1.59-4.15
				c-0.96-0.95-2.35-1.73-4.15-2.33c-1.07-0.49-1.55-0.84-1.77-1.05c-0.2-0.19-0.29-0.42-0.29-0.73c0-0.4,0.1-0.71,0.3-0.95
				c0.11-0.13,0.29-0.28,0.74-0.28c0.6,0,0.84,0.2,0.97,0.35c0.3,0.34,0.36,0.95,0.36,1.39v1h1h3.27h0.72l0.23-0.68l0.02-0.07
				l0.05-0.14l0-0.15c0.04-1.9-0.57-3.44-1.81-4.6C61.73,13.01,60.13,12.44,58.19,12.44L58.19,12.44z"/>
		</g>
		<g>
			<path d="M72.07,13.44c1.92,0,3.46,0.58,4.61,1.74c1.16,1.16,1.74,2.76,1.74,4.79v4.85c0,2.05-0.58,3.64-1.73,4.79
				c-1.15,1.15-2.69,1.72-4.61,1.72c-1.92,0-3.45-0.57-4.6-1.72c-1.15-1.15-1.72-2.74-1.72-4.79v-4.85c0-2.04,0.57-3.64,1.71-4.79
				C68.62,14.02,70.15,13.44,72.07,13.44 M72.08,28.68c0.98,0,1.72-0.32,2.23-0.97c0.5-0.64,0.76-1.61,0.76-2.9v-4.88
				c0-1.27-0.26-2.22-0.77-2.87c-0.51-0.65-1.26-0.97-2.23-0.97c-0.98,0-1.72,0.32-2.21,0.96c-0.49,0.64-0.74,1.6-0.74,2.87v4.88
				c0,1.29,0.25,2.26,0.75,2.9C70.36,28.36,71.1,28.68,72.08,28.68 M72.07,12.44c-2.19,0-3.97,0.68-5.3,2.03c-1.33,1.35-2,3.2-2,5.5
				v4.85c0,2.31,0.68,4.16,2.01,5.49c1.33,1.34,3.12,2.01,5.3,2.01c2.18,0,3.97-0.68,5.31-2.01c1.34-1.33,2.03-3.18,2.03-5.5v-4.85
				c0-2.3-0.68-4.15-2.03-5.5C76.04,13.12,74.25,12.44,72.07,12.44L72.07,12.44z M72.08,27.68c-0.88,0-1.23-0.33-1.42-0.58
				c-0.35-0.46-0.54-1.25-0.54-2.29v-4.88c0-1.03,0.18-1.81,0.53-2.26c0.19-0.25,0.54-0.57,1.42-0.57c0.87,0,1.24,0.34,1.44,0.59
				c0.37,0.46,0.55,1.22,0.55,2.24v4.88c0,1.04-0.19,1.83-0.55,2.28C73.32,27.35,72.96,27.68,72.08,27.68L72.08,27.68z"/>
		</g>
		<g>
			<path d="M90.91,13.69v2.64h-4.08v14.74h-3.38V16.33h-3.98v-2.64H90.91 M91.91,12.69h-1H79.47h-1v1v2.64v1h1h2.98v13.74v1h1h3.38
				h1v-1V17.33h3.08h1v-1v-2.64V12.69L91.91,12.69z"/>
		</g>
		<g>
			<path d="M98.2,13.44c1.92,0,3.46,0.58,4.61,1.74c1.16,1.16,1.74,2.76,1.74,4.79v4.85c0,2.05-0.58,3.64-1.73,4.79
				c-1.15,1.15-2.69,1.72-4.61,1.72c-1.92,0-3.45-0.57-4.6-1.72c-1.15-1.15-1.72-2.74-1.72-4.79v-4.85c0-2.04,0.57-3.64,1.71-4.79
				C94.75,14.02,96.28,13.44,98.2,13.44 M98.21,28.68c0.98,0,1.72-0.32,2.23-0.97c0.5-0.64,0.76-1.61,0.76-2.9v-4.88
				c0-1.27-0.26-2.22-0.77-2.87c-0.51-0.65-1.26-0.97-2.23-0.97c-0.98,0-1.72,0.32-2.21,0.96c-0.49,0.64-0.74,1.6-0.74,2.87v4.88
				c0,1.29,0.25,2.26,0.75,2.9C96.49,28.36,97.23,28.68,98.21,28.68 M98.2,12.44c-2.19,0-3.97,0.68-5.3,2.03c-1.33,1.35-2,3.2-2,5.5
				v4.85c0,2.31,0.68,4.16,2.01,5.49c1.33,1.34,3.12,2.01,5.3,2.01c2.18,0,3.97-0.68,5.31-2.01c1.34-1.33,2.03-3.18,2.03-5.5v-4.85
				c0-2.3-0.68-4.15-2.03-5.5C102.17,13.12,100.38,12.44,98.2,12.44L98.2,12.44z M98.21,27.68c-0.88,0-1.23-0.33-1.42-0.58
				c-0.35-0.46-0.54-1.25-0.54-2.29v-4.88c0-1.03,0.18-1.81,0.53-2.26c0.19-0.25,0.54-0.57,1.42-0.57c0.87,0,1.24,0.34,1.44,0.59
				c0.37,0.46,0.55,1.22,0.55,2.24v4.88c0,1.04-0.19,1.83-0.55,2.28C99.46,27.35,99.09,27.68,98.21,27.68L98.21,27.68z"/>
		</g>
	</g>
	<g class="st5">
		<g>
			<path d="M114.37,14.31v6.39c0.31-0.47,0.68-0.84,1.12-1.09c0.44-0.25,0.95-0.38,1.53-0.38c1.25,0,2.21,0.56,2.88,1.68
				c0.68,1.12,1.02,2.62,1.02,4.48v0.23c0,1.72-0.34,3.09-1.02,4.12c-0.68,1.03-1.63,1.55-2.87,1.55c-0.63,0-1.18-0.14-1.65-0.42
				c-0.47-0.28-0.86-0.7-1.17-1.24l-0.24,1.44h-1.79V14.31H114.37 M116.49,29.61c0.78,0,1.35-0.36,1.7-1.07
				c0.35-0.71,0.53-1.69,0.53-2.92V25.4c0-1.35-0.18-2.43-0.54-3.24c-0.36-0.82-0.93-1.22-1.72-1.22c-0.51,0-0.93,0.15-1.28,0.44
				c-0.34,0.29-0.62,0.69-0.82,1.19v5.5c0.19,0.49,0.46,0.88,0.81,1.14C115.53,29.48,115.97,29.61,116.49,29.61 M115.37,13.31h-1
				h-2.19h-1v1v16.76v1h1h1.79h0.85l0.05-0.33c0.62,0.37,1.34,0.56,2.15,0.56c1.57,0,2.85-0.69,3.71-2
				c0.78-1.19,1.18-2.76,1.18-4.67V25.4c0-2.04-0.39-3.73-1.16-5c-0.86-1.42-2.15-2.16-3.74-2.16c-0.6,0-1.15,0.11-1.64,0.32v-4.24
				V13.31L115.37,13.31z M115.37,22.77c0.13-0.27,0.28-0.48,0.47-0.64c0.1-0.09,0.28-0.2,0.63-0.2c0.26,0,0.55,0.05,0.8,0.63
				c0.3,0.69,0.45,1.64,0.45,2.84v0.23c0,1.07-0.14,1.9-0.43,2.47c-0.19,0.37-0.41,0.51-0.81,0.51c-0.3,0-0.53-0.06-0.69-0.19
				c-0.17-0.13-0.31-0.31-0.42-0.56V22.77L115.37,22.77z"/>
		</g>
		<g>
			<path d="M131.11,19.45l-4.16,13.43c-0.27,0.79-0.63,1.48-1.11,2.04c-0.47,0.57-1.15,0.85-2.04,0.85c-0.18,0-0.37-0.02-0.58-0.06
				c-0.21-0.04-0.41-0.08-0.61-0.13l0.25-1.61c0.07,0.01,0.18,0.03,0.32,0.04c0.14,0.01,0.25,0.02,0.33,0.02
				c0.43,0,0.77-0.18,1.02-0.54c0.25-0.36,0.45-0.79,0.59-1.28l0.4-1.2l-3.66-11.55h2.38l1.97,7.62l0.17,0.78h0.06l2.28-8.4H131.11
				 M132.46,18.45h-1.36h-2.4h-0.76l-0.2,0.74L126.44,24l-1.24-4.81l-0.19-0.75h-0.77h-2.38h-1.37l0.41,1.3l3.57,11.24l-0.3,0.9
				c-0.12,0.42-0.28,0.76-0.46,1.03c-0.07,0.1-0.11,0.11-0.2,0.11c-0.05,0-0.13-0.01-0.22-0.02c-0.1-0.01-0.17-0.02-0.22-0.03
				l-1.03-0.21l-0.16,1.04l-0.25,1.61l-0.14,0.9l0.89,0.22c0.22,0.05,0.44,0.1,0.67,0.15c0.26,0.05,0.52,0.08,0.76,0.08
				c1.49,0,2.35-0.66,2.81-1.21c0.55-0.66,0.98-1.45,1.29-2.37l4.16-13.45L132.46,18.45L132.46,18.45z"/>
		</g>
		<g>
			<path d="M152.49,15.43l-3.21,15.64h-2.01l-2.73-11.1h-0.06l-2.74,11.1h-2.01l-3.21-15.64h2.3l2.04,11.1h0.06l2.63-11.1h1.9
				l2.65,11.12h0.06l2.03-11.12H152.49 M153.71,14.43h-1.23h-2.29h-0.83l-0.15,0.82l-1.2,6.6l-1.59-6.65l-0.18-0.77h-0.79h-1.9
				h-0.79l-0.18,0.77L141,21.83l-1.21-6.58l-0.15-0.82h-0.83h-2.3h-1.23l0.25,1.2l3.21,15.64l0.16,0.8h0.82h2.01h0.78l0.19-0.76
				l1.8-7.29l1.79,7.29l0.19,0.76h0.78h2.01h0.82l0.16-0.8l3.21-15.64L153.71,14.43L153.71,14.43z"/>
		</g>
		<g>
			<path d="M157.92,19.23c1.42,0,2.55,0.55,3.37,1.65c0.82,1.1,1.23,2.52,1.23,4.24v0.29c0,1.73-0.41,3.15-1.22,4.24
				c-0.82,1.09-1.93,1.64-3.35,1.64c-1.44,0-2.57-0.55-3.38-1.64c-0.82-1.09-1.22-2.5-1.22-4.24v-0.29c0-1.73,0.41-3.14,1.22-4.24
				C155.38,19.79,156.5,19.23,157.92,19.23 M157.94,29.64c0.79,0,1.39-0.4,1.79-1.19c0.4-0.79,0.6-1.8,0.6-3.04v-0.29
				c0-1.22-0.2-2.23-0.6-3.02c-0.4-0.8-1-1.2-1.8-1.2c-0.8,0-1.4,0.4-1.8,1.2c-0.4,0.8-0.6,1.81-0.6,3.02v0.29
				c0,1.24,0.2,2.25,0.6,3.04C156.52,29.25,157.13,29.64,157.94,29.64 M157.92,18.23c-1.75,0-3.15,0.69-4.17,2.06
				c-0.94,1.27-1.42,2.9-1.42,4.84v0.29c0,1.95,0.48,3.57,1.42,4.84c1.01,1.35,2.42,2.04,4.18,2.04c1.74,0,3.14-0.69,4.15-2.04
				c0.94-1.26,1.42-2.89,1.42-4.84v-0.29c0-1.94-0.48-3.57-1.43-4.84C161.07,18.93,159.67,18.23,157.92,18.23L157.92,18.23z
				 M157.94,28.64c-0.32,0-0.65-0.08-0.93-0.63c-0.32-0.64-0.49-1.51-0.49-2.59v-0.29c0-1.06,0.17-1.92,0.49-2.58
				c0.28-0.57,0.6-0.64,0.9-0.64c0.3,0,0.63,0.08,0.91,0.65c0.33,0.65,0.49,1.52,0.49,2.57v0.29c0,1.07-0.17,1.94-0.49,2.59
				C158.56,28.57,158.24,28.64,157.94,28.64L157.94,28.64z"/>
		</g>
		<g>
			<path d="M169.14,19.23c0.14,0,0.26,0.01,0.38,0.04c0.12,0.03,0.22,0.06,0.32,0.09l-0.25,1.9l-0.95-0.05
				c-0.46,0-0.84,0.14-1.14,0.41c-0.3,0.28-0.54,0.66-0.7,1.17v8.28h-2.19V19.45h2.01l0.15,1.72c0.26-0.61,0.59-1.08,0.99-1.42
				C168.15,19.4,168.61,19.23,169.14,19.23 M169.14,18.23c-0.58,0-1.11,0.14-1.59,0.43l-0.02-0.21h-0.92h-2.01h-1v1v11.62v1h1h2.19
				h1v-1v-8.11c0.1-0.26,0.23-0.46,0.37-0.6c0.08-0.07,0.2-0.15,0.45-0.15l0.91,0.05l0.93,0.05l0.12-0.92l0.25-1.9l0.1-0.78
				l-0.74-0.28c-0.14-0.05-0.29-0.1-0.46-0.13C169.54,18.25,169.34,18.23,169.14,18.23L169.14,18.23z"/>
		</g>
		<g>
			<path d="M173.7,14.31v16.76h-2.19V14.31H173.7 M174.7,13.31h-1h-2.19h-1v1v16.76v1h1h2.19h1v-1V14.31V13.31L174.7,13.31z"/>
		</g>
		<g>
			<path d="M184.64,14.31v16.76h-1.8l-0.22-1.4c-0.32,0.53-0.72,0.93-1.18,1.21c-0.47,0.28-1,0.41-1.6,0.41
				c-1.22,0-2.18-0.52-2.85-1.55c-0.68-1.04-1.01-2.41-1.01-4.12V25.4c0-1.86,0.34-3.35,1.02-4.48c0.68-1.12,1.64-1.69,2.87-1.69
				c0.55,0,1.04,0.12,1.48,0.37c0.44,0.25,0.81,0.6,1.13,1.07v-6.36H184.64 M180.38,29.61c0.49,0,0.9-0.13,1.24-0.39
				c0.34-0.26,0.62-0.62,0.83-1.1V22.5c-0.21-0.48-0.49-0.86-0.84-1.14c-0.34-0.28-0.75-0.42-1.22-0.42c-0.77,0-1.34,0.41-1.71,1.24
				c-0.37,0.83-0.55,1.9-0.55,3.23v0.23c0,1.22,0.18,2.19,0.55,2.91C179.04,29.25,179.61,29.61,180.38,29.61 M185.64,13.31h-1h-2.18
				h-1v1v4.24c-0.49-0.21-1.03-0.32-1.61-0.32c-1.58,0-2.87,0.75-3.72,2.17c-0.77,1.28-1.16,2.96-1.16,5v0.23
				c0,1.9,0.4,3.47,1.18,4.67c0.86,1.31,2.13,2,3.69,2c0.78,0,1.48-0.18,2.1-0.55l0.05,0.32h0.85h1.8h1v-1V14.31V13.31L185.64,13.31
				z M180.38,28.61c-0.33,0-0.59-0.09-0.82-0.53c-0.29-0.57-0.44-1.4-0.44-2.45V25.4c0-1.18,0.16-2.13,0.47-2.82
				c0.27-0.6,0.55-0.65,0.8-0.65c0.24,0,0.42,0.06,0.59,0.2c0.18,0.15,0.34,0.35,0.47,0.6v5.16c-0.13,0.23-0.27,0.41-0.44,0.53
				C180.86,28.55,180.65,28.61,180.38,28.61L180.38,28.61z"/>
		</g>
		<g>
			<path d="M195.34,19.45l-3.54,11.62h-1.94l-3.57-11.62h2.28l2.05,8.13l0.18,0.91h0.06l0.19-0.91l2.03-8.13H195.34 M196.69,18.45
				h-1.35h-2.26h-0.78l-0.19,0.76l-1.28,5.15l-1.3-5.15l-0.19-0.76h-0.78h-2.28h-1.35l0.4,1.29l3.57,11.62l0.22,0.71h0.74h1.94h0.74
				l0.22-0.71l3.54-11.62L196.69,18.45L196.69,18.45z"/>
		</g>
		<g>
			<path d="M199.22,14.31v2.08h-2.19v-2.08H199.22 M199.22,19.45v11.62h-2.19V19.45H199.22 M200.22,13.31h-1h-2.19h-1v1v2.08v1h1
				h2.19h1v-1v-2.08V13.31L200.22,13.31z M200.22,18.45h-1h-2.19h-1v1v11.62v1h1h2.19h1v-1V19.45V18.45L200.22,18.45z"/>
		</g>
		<g>
			<path d="M205.88,19.23c1.33,0,2.33,0.47,3.02,1.41c0.69,0.94,1.04,2.2,1.04,3.78v1.22h-6.31c0,1.19,0.21,2.15,0.64,2.89
				c0.43,0.74,1.08,1.11,1.96,1.11c0.61,0,1.14-0.09,1.59-0.28c0.45-0.19,0.87-0.47,1.25-0.83l0.71,1.35
				c-0.39,0.4-0.9,0.74-1.53,1.01c-0.63,0.27-1.35,0.41-2.16,0.41c-1.45,0-2.58-0.53-3.4-1.59c-0.82-1.06-1.23-2.44-1.23-4.14v-0.5
				c0-1.7,0.41-3.1,1.22-4.19C203.5,19.78,204.57,19.23,205.88,19.23 M203.68,24.1h4.11v-0.25c0-0.87-0.16-1.58-0.47-2.13
				c-0.31-0.54-0.79-0.82-1.44-0.82c-0.63,0-1.13,0.29-1.5,0.88C204.01,22.37,203.78,23.14,203.68,24.1 M205.88,18.23
				c-1.64,0-2.99,0.69-4,2.04c-0.94,1.26-1.42,2.88-1.42,4.79v0.5c0,1.92,0.48,3.51,1.44,4.75c1.02,1.31,2.43,1.98,4.19,1.98
				c0.94,0,1.8-0.16,2.56-0.49c0.75-0.32,1.38-0.74,1.86-1.23l0.5-0.52l-0.33-0.64l-0.71-1.35l-0.62-1.18l-0.96,0.92
				c-0.29,0.28-0.6,0.49-0.94,0.63c-0.32,0.14-0.73,0.21-1.2,0.21c-0.52,0-0.85-0.18-1.1-0.61c-0.21-0.37-0.36-0.84-0.44-1.39h5.24
				h1v-1v-1.22c0-1.79-0.41-3.26-1.23-4.37C208.83,18.84,207.54,18.23,205.88,18.23L205.88,18.23z M204.88,23.1
				c0.09-0.3,0.2-0.56,0.34-0.78c0.22-0.34,0.42-0.41,0.66-0.41c0.33,0,0.46,0.11,0.58,0.31c0.14,0.24,0.23,0.53,0.28,0.88H204.88
				L204.88,23.1z"/>
		</g>
		<g>
			<path d="M224.42,19.45l-2.71,11.62h-1.8l-2.15-7.54h-0.06l-2.08,7.54h-1.82l-2.72-11.62h2.18l1.53,7.75h0.06l2.12-7.75h1.57
				l2.15,7.83h0.06l1.48-7.83H224.42 M225.68,18.45h-1.26h-2.19h-0.83l-0.15,0.81l-0.71,3.72l-1.04-3.8l-0.2-0.74h-0.76h-1.57h-0.76
				l-0.2,0.74l-1.03,3.77l-0.73-3.7l-0.16-0.81h-0.82h-2.18h-1.26l0.29,1.23l2.72,11.62l0.18,0.77h0.79h1.82h0.76l0.2-0.73
				l1.17-4.22l1.2,4.23l0.21,0.73h0.75h1.8h0.79l0.18-0.77l2.71-11.62L225.68,18.45L225.68,18.45z"/>
		</g>
	</g>
</g>
<g id="Layer_3_copy">
	<g>
		<path class="st1" d="M60.53,26.56c0-0.69-0.18-1.24-0.53-1.64c-0.35-0.4-0.99-0.79-1.9-1.18c-1.78-0.63-3.12-1.34-4.02-2.14
			s-1.35-1.91-1.35-3.34c0-1.42,0.51-2.58,1.54-3.48c1.03-0.9,2.34-1.34,3.93-1.34c1.69,0,3.04,0.48,4.07,1.43s1.52,2.24,1.49,3.84
			l-0.02,0.07h-3.27c0-0.9-0.2-1.58-0.6-2.05c-0.4-0.47-0.98-0.7-1.73-0.7c-0.64,0-1.15,0.21-1.5,0.64
			c-0.36,0.43-0.54,0.96-0.54,1.59c0,0.59,0.2,1.07,0.61,1.46c0.41,0.38,1.1,0.8,2.09,1.25c1.68,0.56,2.95,1.26,3.81,2.11
			c0.86,0.85,1.3,2,1.3,3.44c0,1.49-0.51,2.66-1.52,3.51s-2.35,1.28-4.02,1.28c-1.65,0-3.06-0.46-4.23-1.38
			c-1.17-0.92-1.74-2.32-1.7-4.2l0.02-0.07h3.28c0,1.09,0.22,1.88,0.66,2.35s1.09,0.72,1.95,0.72c0.72,0,1.27-0.2,1.63-0.6
			C60.35,27.75,60.53,27.22,60.53,26.56z"/>
		<path class="st1" d="M78.42,24.82c0,2.05-0.58,3.64-1.73,4.79c-1.15,1.15-2.69,1.72-4.61,1.72c-1.92,0-3.45-0.57-4.6-1.72
			c-1.15-1.15-1.72-2.74-1.72-4.79v-4.85c0-2.04,0.57-3.64,1.71-4.79c1.14-1.16,2.67-1.74,4.59-1.74s3.46,0.58,4.61,1.74
			c1.16,1.16,1.74,2.76,1.74,4.79V24.82z M75.06,19.93c0-1.27-0.26-2.22-0.77-2.87c-0.51-0.65-1.26-0.97-2.23-0.97
			c-0.98,0-1.72,0.32-2.21,0.96c-0.49,0.64-0.74,1.6-0.74,2.87v4.88c0,1.29,0.25,2.26,0.75,2.9c0.5,0.64,1.24,0.97,2.21,0.97
			c0.98,0,1.72-0.32,2.23-0.97c0.5-0.64,0.76-1.61,0.76-2.9V19.93z"/>
		<path class="st1" d="M90.91,16.33h-4.08v14.74h-3.38V16.33h-3.98v-2.64h11.44V16.33z"/>
		<path class="st1" d="M104.55,24.82c0,2.05-0.58,3.64-1.73,4.79c-1.15,1.15-2.69,1.72-4.61,1.72c-1.92,0-3.45-0.57-4.6-1.72
			c-1.15-1.15-1.72-2.74-1.72-4.79v-4.85c0-2.04,0.57-3.64,1.71-4.79c1.14-1.16,2.67-1.74,4.59-1.74s3.46,0.58,4.61,1.74
			c1.16,1.16,1.74,2.76,1.74,4.79V24.82z M101.2,19.93c0-1.27-0.26-2.22-0.77-2.87c-0.51-0.65-1.26-0.97-2.23-0.97
			c-0.98,0-1.72,0.32-2.21,0.96c-0.49,0.64-0.74,1.6-0.74,2.87v4.88c0,1.29,0.25,2.26,0.75,2.9c0.5,0.64,1.24,0.97,2.21,0.97
			c0.98,0,1.72-0.32,2.23-0.97c0.5-0.64,0.76-1.61,0.76-2.9V19.93z"/>
	</g>
	<g>
		<path class="st1" d="M120.91,25.62c0,1.72-0.34,3.09-1.02,4.12s-1.63,1.55-2.87,1.55c-0.63,0-1.18-0.14-1.65-0.42
			c-0.47-0.28-0.86-0.7-1.17-1.24l-0.24,1.44h-1.79V14.31h2.19v6.39c0.31-0.47,0.68-0.84,1.12-1.09c0.44-0.25,0.95-0.38,1.53-0.38
			c1.25,0,2.21,0.56,2.88,1.68c0.68,1.12,1.02,2.62,1.02,4.48V25.62z M118.72,25.4c0-1.35-0.18-2.43-0.54-3.24
			c-0.36-0.82-0.93-1.22-1.72-1.22c-0.51,0-0.93,0.15-1.28,0.44c-0.34,0.29-0.62,0.69-0.82,1.19v5.5c0.19,0.49,0.46,0.88,0.81,1.14
			c0.35,0.27,0.78,0.4,1.31,0.4c0.78,0,1.35-0.36,1.7-1.07c0.35-0.71,0.53-1.69,0.53-2.92V25.4z"/>
		<path class="st1" d="M126.2,27.06l0.17,0.78h0.06l2.28-8.4h2.4l-4.16,13.43c-0.27,0.79-0.63,1.48-1.11,2.04s-1.15,0.85-2.04,0.85
			c-0.18,0-0.37-0.02-0.58-0.06c-0.21-0.04-0.41-0.08-0.61-0.13l0.25-1.61c0.07,0.01,0.18,0.03,0.32,0.04s0.25,0.02,0.33,0.02
			c0.43,0,0.77-0.18,1.02-0.54c0.25-0.36,0.45-0.79,0.59-1.28l0.4-1.2l-3.66-11.55h2.38L126.2,27.06z"/>
		<path class="st1" d="M148.1,26.55h0.06l2.03-11.12h2.29l-3.21,15.64h-2.01l-2.73-11.1h-0.06l-2.74,11.1h-2.01l-3.21-15.64h2.3
			l2.04,11.1h0.06l2.63-11.1h1.9L148.1,26.55z"/>
		<path class="st1" d="M153.33,25.13c0-1.73,0.41-3.14,1.22-4.24c0.82-1.1,1.94-1.65,3.36-1.65c1.42,0,2.55,0.55,3.37,1.65
			c0.82,1.1,1.23,2.52,1.23,4.24v0.29c0,1.73-0.41,3.15-1.22,4.24c-0.82,1.09-1.93,1.64-3.35,1.64c-1.44,0-2.57-0.55-3.38-1.64
			c-0.82-1.09-1.22-2.5-1.22-4.24V25.13z M155.53,25.42c0,1.24,0.2,2.25,0.6,3.04s1,1.18,1.82,1.18c0.79,0,1.39-0.4,1.79-1.19
			c0.4-0.79,0.6-1.8,0.6-3.04v-0.29c0-1.22-0.2-2.23-0.6-3.02c-0.4-0.8-1-1.2-1.8-1.2c-0.8,0-1.4,0.4-1.8,1.2
			c-0.4,0.8-0.6,1.81-0.6,3.02V25.42z"/>
		<path class="st1" d="M169.59,21.26l-0.95-0.05c-0.46,0-0.84,0.14-1.14,0.41c-0.3,0.28-0.54,0.66-0.7,1.17v8.28h-2.19V19.45h2.01
			l0.15,1.72c0.26-0.61,0.59-1.08,0.99-1.42c0.4-0.34,0.86-0.51,1.39-0.51c0.14,0,0.26,0.01,0.38,0.04
			c0.12,0.03,0.22,0.06,0.32,0.09L169.59,21.26z"/>
		<path class="st1" d="M173.7,31.07h-2.19V14.31h2.19V31.07z"/>
		<path class="st1" d="M175.96,25.4c0-1.86,0.34-3.35,1.02-4.48c0.68-1.12,1.64-1.69,2.87-1.69c0.55,0,1.04,0.12,1.48,0.37
			c0.44,0.25,0.81,0.6,1.13,1.07v-6.36h2.18v16.76h-1.8l-0.22-1.4c-0.32,0.53-0.72,0.93-1.18,1.21c-0.47,0.28-1,0.41-1.6,0.41
			c-1.22,0-2.18-0.52-2.85-1.55c-0.68-1.04-1.01-2.41-1.01-4.12V25.4z M178.13,25.62c0,1.22,0.18,2.19,0.55,2.91
			c0.37,0.72,0.93,1.08,1.71,1.08c0.49,0,0.9-0.13,1.24-0.39s0.62-0.62,0.83-1.1V22.5c-0.21-0.48-0.49-0.86-0.84-1.14
			c-0.34-0.28-0.75-0.42-1.22-0.42c-0.77,0-1.34,0.41-1.71,1.24s-0.55,1.9-0.55,3.23V25.62z"/>
		<path class="st1" d="M190.61,27.58l0.18,0.91h0.06l0.19-0.91l2.03-8.13h2.26l-3.54,11.62h-1.94l-3.57-11.62h2.28L190.61,27.58z"/>
		<path class="st1" d="M199.22,16.4h-2.19v-2.08h2.19V16.4z M199.22,31.07h-2.19V19.45h2.19V31.07z"/>
		<path class="st1" d="M206.09,31.3c-1.45,0-2.58-0.53-3.4-1.59c-0.82-1.06-1.23-2.44-1.23-4.14v-0.5c0-1.7,0.41-3.1,1.22-4.19
			c0.82-1.09,1.88-1.64,3.2-1.64c1.33,0,2.33,0.47,3.02,1.41c0.69,0.94,1.04,2.2,1.04,3.78v1.22h-6.31c0,1.19,0.21,2.15,0.64,2.89
			c0.43,0.74,1.08,1.11,1.96,1.11c0.61,0,1.14-0.09,1.59-0.28c0.45-0.19,0.87-0.47,1.25-0.83l0.71,1.35
			c-0.39,0.4-0.9,0.74-1.53,1.01C207.62,31.16,206.9,31.3,206.09,31.3z M205.88,20.91c-0.63,0-1.13,0.29-1.5,0.88
			c-0.37,0.58-0.61,1.35-0.7,2.31h4.11v-0.25c0-0.87-0.16-1.58-0.47-2.13C207.02,21.18,206.54,20.91,205.88,20.91z"/>
		<path class="st1" d="M220.69,27.28h0.06l1.48-7.83h2.19l-2.71,11.62h-1.8l-2.15-7.54h-0.06l-2.08,7.54h-1.82l-2.72-11.62h2.18
			l1.53,7.75h0.06l2.12-7.75h1.57L220.69,27.28z"/>
	</g>
</g>
</svg>
