<?xml version="1.0" encoding="UTF-8" standalone="no"?><!DOCTYPE svg PUBLIC "-//W3C//DTD SVG 1.1//EN" "http://www.w3.org/Graphics/SVG/1.1/DTD/svg11.dtd"><svg width="100%" height="100%" viewBox="0 0 1000 1000" version="1.1" xmlns="http://www.w3.org/2000/svg" xmlns:xlink="http://www.w3.org/1999/xlink" xml:space="preserve" style="fill-rule:evenodd;clip-rule:evenodd;stroke-linejoin:round;stroke-miterlimit:1.41421;"><circle cx="500" cy="500" r="500" style="fill:#2f5581;"/><path d="M256.934,515.679c-0.428,0.044 -108.07,11.054 -101.237,-85.494c2.212,-31.256 37.022,-61.722 58.204,-58.589c-10.193,-16.45 -1.902,-75.423 66.015,-101.478c34.584,-13.267 92.354,-20.649 158.133,11.704c0,0 -13.265,-20.021 -43.268,-27.745c35.553,-91.35 264.047,-63.553 266.205,-19.027c1.738,-13.317 -5.919,-24.842 -23.818,-30.329c42.842,-21.123 162.02,46.594 128.789,143.875c61.449,-11.905 102.102,85.454 46.678,118.712c0.101,-14.332 -7.297,-24.388 -7.962,-24.087c8.844,53.763 -38.465,72.36 -38.716,72.458l-203.764,0l-26.461,54.161l79.259,14.816l-204.796,278.666l102.232,-229.187l-69.278,-14.212l38.536,-104.244l-224.751,0Zm404.052,-158.294c-8.967,-36.942 -56.935,-88.906 -122.173,-44.952c68.834,-20.614 125.558,30.809 106.149,107.986c11.116,-15.914 18.002,-31.479 17.024,-47.001c55.963,11.235 55.812,60.96 35.758,93.89c35.278,-24.756 31.71,-101.18 -36.758,-109.923Zm-280.675,2.313c-39.954,-57.727 -163.857,-0.627 -96.316,93.856c-29.322,-92.656 64.547,-124.468 96.316,-93.856Z" style="fill:#fff;"/></svg>