<?xml version="1.0" encoding="UTF-8" standalone="no"?><!DOCTYPE svg PUBLIC "-//W3C//DTD SVG 1.1//EN" "http://www.w3.org/Graphics/SVG/1.1/DTD/svg11.dtd"><svg width="100%" height="100%" viewBox="0 0 1000 1000" version="1.1" xmlns="http://www.w3.org/2000/svg" xmlns:xlink="http://www.w3.org/1999/xlink" xml:space="preserve" style="fill-rule:evenodd;clip-rule:evenodd;stroke-linejoin:round;stroke-miterlimit:1.41421;"><circle cx="500" cy="500" r="500" style="fill:#707070;"/><path d="M500,682.5c41.394,0 75,33.606 75,75c0,41.394 -33.606,75 -75,75c-41.394,0 -75,-33.606 -75,-75c0,-41.394 33.606,-75 75,-75Zm30,-65c0,0 45,-247.5 45,-375c0,-41.394 -33.606,-75 -75,-75c-41.394,0 -75,33.606 -75,75c0,103.967 45,375 45,375c0,0 13.893,-4 30,-4c16.107,0 30,4 30,4Z" style="fill:#fff;"/></svg>