<?xml version="1.0" encoding="UTF-8" standalone="no"?><!DOCTYPE svg PUBLIC "-//W3C//DTD SVG 1.1//EN" "http://www.w3.org/Graphics/SVG/1.1/DTD/svg11.dtd"><svg width="100%" height="100%" viewBox="0 0 1000 1000" version="1.1" xmlns="http://www.w3.org/2000/svg" xmlns:xlink="http://www.w3.org/1999/xlink" xml:space="preserve" style="fill-rule:evenodd;clip-rule:evenodd;stroke-linejoin:round;stroke-miterlimit:1.41421;"><circle cx="500" cy="500" r="500" style="fill:#328697;"/><path d="M370.824,822.972l-15.261,49.052l17.545,57.887l50.042,-69.781l-52.326,-37.158l0,0Zm266.404,-57.795l-75.504,23.225l35.507,102.924l58.533,13.468l41.822,-95.178l-60.358,-44.439Zm-376.171,87.576l62.091,28.051l31.912,-57.504l-41.908,-9.91l-24.062,4.738l-28.033,34.625l0,0Zm91.978,-62.92l93.852,68.162l86.779,8.361l-2.203,-94.773l-93.963,-28.137l-51.758,-33.682l-32.707,80.069l0,0Zm430.786,59.283l-34.932,-6.304l30.412,-124.359l45.491,87.755l-0.224,5.363c-12.797,13.327 -26.406,25.869 -40.747,37.545Zm-22.001,-142.989l74.199,-87.212l-122.623,28.427l-73.042,94.445l90.287,67.593l31.179,-103.253l0,0Zm-422.776,28.092l-41.864,40.687l-20.305,30.953l67.522,-0.041l-5.353,-71.599l0,0Zm-23.094,-3.913l-87.14,-24.671l-36.897,83.145l91.805,-18.305l32.232,-40.169Zm138.849,8.754l127.195,28.998l58.844,-57.133l-57.41,-117.767l-94.61,33.4l-34.019,112.502l0,0Zm477.239,-112.879c-12.861,44.049 -32.282,85.312 -57.132,122.657l-51.517,11.715l-32.05,-53.255l140.699,-81.117l0,0Zm-806.811,27.187l64.484,89.484l98.85,-130.878l-66.7,-26.994l-70.324,6.813l-26.31,61.575l0,0Zm144.108,22.463l88.119,50.987l64.69,-95.991l23.182,-110.539l-73.107,-15.674l-51.391,71.052l-51.493,100.165l0,0Zm169.663,48.933l33.903,-88.316l-43.5,7.589l-25.067,58.064l34.664,22.663Zm-203.925,-28.746l83.603,28.746l-64.359,-50.559l-19.244,21.813l0,0Zm304.187,-197.826c3.597,1.146 7.225,1.808 10.74,1.808c8.333,0 17.304,-3.72 25,-8.8c8.333,-5.5 25,-22 25,-22c0,0 16.667,16.5 25,22c7.696,5.08 16.667,8.8 25,8.8c8.333,0 17.304,-3.72 25,-8.8c8.333,-5.5 25,-22 25,-22c0,0 0.256,0.253 0.72,0.707l7.41,144.859l-48.297,83.577l-72.993,-118.169l-59.007,-40.424l11.427,-41.558l0,0Zm251.348,192.576l111.535,-54.724l20.449,-34.232l-76.628,19.749l-55.356,69.207l0,0Zm-697.153,-215.272l-8.094,22.956l22.233,108.603l-19.339,74.662c-24.593,-55.585 -38.255,-117.068 -38.255,-181.717c0,-3.474 0.039,-6.939 0.118,-10.393c0.079,3.472 0.198,6.935 0.355,10.389c8.199,-0.137 16.976,-3.812 24.527,-8.796c4.957,-3.272 12.863,-10.436 18.455,-15.704l0,0Zm738.025,75.421l-112.192,26.115l-5.892,58.988l111.5,-27.992l6.584,-57.111l0,0Zm-392.934,79.053l136.043,-41.735l-74.589,-54.157l-45.078,1.161l-16.376,94.731l0,0Zm509.821,-91.403c-1.386,16.292 -3.641,32.338 -6.719,48.091l-92.553,18.255l-14.931,-14.935l11.407,-33.283l101.137,-23.349l1.659,5.221Zm-808.503,-40.188c3.399,1.031 6.818,1.621 10.136,1.621c8.333,0 17.304,-3.72 25,-8.8c8.333,-5.5 25,-22 25,-22c0,0 16.667,16.5 25,22c7.696,5.08 16.667,8.8 25,8.8c8.333,0 17.304,-3.72 25,-8.8c8.333,-5.5 25,-22 25,-22c0,0 16.667,16.5 25,22c7.696,5.08 16.667,8.8 25,8.8c3.351,0 6.804,-0.601 10.237,-1.651l-1.183,1.651l-147.507,37.756l-89.205,59.93l13.094,-82.956l4.428,-16.351l0,0Zm204.74,23.977l-102.503,54.648l38.872,16.793l63.631,-71.441Zm-174.259,52.995l54.54,-4.502l74.594,-43.163l-88.366,21.011l-40.768,26.654Zm-67.062,-102.959c5.282,5.078 15.684,14.826 21.717,18.808c2.035,1.343 4.159,2.591 6.336,3.7l-16.569,72.78l-20.504,-69.698l9.02,-25.59Zm608.101,7.588c4.739,4.31 9.974,8.816 13.616,11.22c1.735,1.145 3.534,2.221 5.377,3.2l-0.479,41.216l-12.417,26.716l-6.097,-82.352l0,0Zm25.381,17.339c4.405,1.677 8.906,2.681 13.235,2.681c8.333,0 17.304,-3.72 25,-8.8c8.333,-5.5 25,-22 25,-22c0,0 16.667,16.5 25,22c7.696,5.08 16.667,8.8 25,8.8c8.333,0 17.304,-3.72 25,-8.8c8.333,-5.5 25,-22 25,-22c0,0 16.667,16.5 25,22c5.44,3.59 11.516,6.501 17.554,7.9l-100.349,39.146l-101.484,20.014l-3.956,-60.941l0,0Zm108.806,49.808l87.431,-17.594l-0.971,-14.579l-86.46,32.173Zm-331.044,-64.329c3.799,3.354 7.623,6.521 10.473,8.402c1.954,1.289 3.989,2.491 6.076,3.567l-14.563,30.619l-46.839,-1.544l44.853,-41.044l0,0Zm-140.261,8.88c0.246,-0.158 0.49,-0.317 0.734,-0.478c8.333,-5.5 25,-22 25,-22c0,0 16.667,16.5 25,22c7.696,5.08 16.667,8.8 25,8.8c8.333,0 17.304,-3.72 25,-8.8c8.333,-5.5 25,-22 25,-22c0,0 2.291,2.268 5.599,5.403l-26.092,25.397l-19.517,13.177l-85.724,-21.499l0,0Zm575.616,-2.068c0.05,2.193 0.084,4.39 0.102,6.591l-0.305,0.119c0.084,-2.233 0.152,-4.47 0.203,-6.71l0,0Z" style="fill:#fff;"/></svg>