<?xml version="1.0" encoding="UTF-8" standalone="no"?><!DOCTYPE svg PUBLIC "-//W3C//DTD SVG 1.1//EN" "http://www.w3.org/Graphics/SVG/1.1/DTD/svg11.dtd"><svg width="100%" height="100%" viewBox="0 0 1000 1000" version="1.1" xmlns="http://www.w3.org/2000/svg" xmlns:xlink="http://www.w3.org/1999/xlink" xml:space="preserve" style="fill-rule:evenodd;clip-rule:evenodd;stroke-linejoin:round;stroke-miterlimit:1.41421;"><circle cx="500" cy="500" r="500" style="fill:#3889ad;"/><path d="M743.408,480.087c2.218,0.462 4.426,0.713 6.592,0.713c8.333,0 17.304,-3.72 25,-8.8c8.333,-5.5 25,-22 25,-22c0,0 16.667,16.5 25,22c7.696,5.08 16.667,8.8 25,8.8c8.333,0 17.304,-3.72 25,-8.8c8.333,-5.5 25,-22 25,-22c0,0 16.667,16.5 25,22c7.572,4.998 16.378,8.68 24.596,8.797c0.269,6.368 0.404,12.77 0.404,19.203c0,248.362 -201.638,450 -450,450c-248.362,0 -450,-201.638 -450,-450c0,-6.433 0.135,-12.835 0.404,-19.203c8.218,-0.117 17.024,-3.799 24.596,-8.797c8.333,-5.5 25,-22 25,-22c0,0 16.667,16.5 25,22c7.696,5.08 16.667,8.8 25,8.8c8.333,0 17.304,-3.72 25,-8.8c8.333,-5.5 25,-22 25,-22c0,0 16.667,16.5 25,22c7.696,5.08 16.667,8.8 25,8.8c3.085,0 6.257,-0.51 9.419,-1.41l52.214,158.792l99.005,87.765l35.539,102.401l36.823,15.223l4.765,-39.852l26.764,100.099l64.857,-60.946l37.155,-77.671l81.945,-85.111l44.922,-200.003l0,0Zm-467.288,-9.114c7.376,-2.667 23.88,-20.973 23.88,-20.973c0,0 16.667,16.5 25,22c7.696,5.08 16.667,8.8 25,8.8c8.333,0 17.304,-3.72 25,-8.8c8.333,-5.5 25,-22 25,-22c0,0 16.667,16.5 25,22c7.696,5.08 16.667,8.8 25,8.8c8.333,0 17.304,-3.72 25,-8.8c8.333,-5.5 25,-22 25,-22c0,0 16.667,16.5 25,22c7.696,5.08 16.667,8.8 25,8.8c8.333,0 17.304,-3.72 25,-8.8c8.333,-5.5 25,-22 25,-22c0,0 16.667,16.5 25,22c7.696,5.08 16.667,8.8 25,8.8c8.333,0 17.304,-3.72 25,-8.8c8.333,-5.5 25,-22 25,-22c0,0 17.959,20.837 27,23l-44.822,198.816l-79.649,80.65l-38.208,78.601l-40.457,38.751l-39.362,-136.853l-14.515,86.763l-10.893,-5.424l-34.676,-100.035l-95.816,-85.164l-52.482,-158.132l0,0Zm-18.12,-10.173l22.783,-71.964l72.835,-43.575l43.956,-91.087l116.385,38.57l52.024,43.478l80.067,8.149l29.764,40.033l55.925,13.726l11.261,62.67c-13.655,-0.665 -23.073,-14.064 -43,-35.8c0,0 -27.661,35.8 -50,35.8c-22.339,0 -50,-35.8 -50,-35.8c0,0 -30.089,35.8 -50,35.8c-19.911,0 -50,-35.8 -50,-35.8c0,0 -27.848,35.8 -50,35.8c-22.152,0 -50,-35.8 -50,-35.8c0,0 -25.607,35.8 -50,35.8c-24.393,0 -50,-35.8 -50,-35.8c-13.042,17.255 -19.93,26.786 -42,35.8l0,0Z" style="fill:#fff;"/></svg>