<?xml version="1.0" encoding="UTF-8" standalone="no"?>
<!DOCTYPE svg PUBLIC "-//W3C//DTD SVG 1.1//EN" "http://www.w3.org/Graphics/SVG/1.1/DTD/svg11.dtd">
<svg width="100%" height="100%" viewBox="0 0 1000 1000" version="1.1" xmlns="http://www.w3.org/2000/svg" xmlns:xlink="http://www.w3.org/1999/xlink" xml:space="preserve" style="fill-rule:evenodd;clip-rule:evenodd;stroke-linejoin:round;stroke-miterlimit:1.41421;">
    <circle cx="500" cy="502.125" r="500" style="fill:rgb(166,116,74);"/>
    <path d="M882.676,736.748C803.292,864.71 661.527,950 500,950C337.855,950 195.625,864.057 116.417,735.278L378,373.895C459.711,412.512 534.612,411.945 603,373.895L882.676,736.748ZM605.527,513.64C605.527,513.64 669.082,716.794 703.025,801.162C706.5,809.798 716.332,813.988 724.967,810.514C733.603,807.039 737.793,797.208 734.319,788.572C700.375,704.204 605.527,513.64 605.527,513.64L605.527,513.64ZM362.187,502.125C362.187,502.125 262.168,637.427 225.516,699.106C220.761,707.108 223.397,717.465 231.399,722.22C239.402,726.976 249.759,724.339 254.514,716.337C291.165,654.658 362.187,502.125 362.187,502.125ZM540.417,471.581C540.417,471.581 539.974,596.327 546.424,648.976C547.472,657.527 555.264,663.618 563.815,662.571C572.365,661.523 578.457,653.731 577.409,645.18C570.959,592.531 540.417,471.581 540.417,471.581L540.417,471.581ZM500,373.895C495.871,302.121 499.77,227.086 525.757,143.948L541.632,147.448C511.858,231.866 503.623,303.371 500,373.895L500,373.895ZM429.105,348.664C398.702,296.919 371.43,263.741 316.356,215.289L326.666,204.41C373.753,248.395 405.916,297.108 429.105,348.664ZM565.793,347.398C569.211,292.804 584.103,243.332 622.619,204.41L634.543,215.852C595.394,245.164 578.017,290.983 565.793,347.398ZM316.407,162.528L275.848,145.448L257.612,150.783L252.411,188.862L263.425,191.813L278.239,223.836L295.505,221.216L321.132,179.87L316.407,162.528L316.407,162.528ZM659.435,220.092L701.782,209.126L724.6,181.707L698.697,150.503L670.438,153.88L638.023,148.493L624.119,185.393L659.435,220.092ZM585.279,117.69L581.477,94.912L547.389,67.473L529.017,72.4L505.083,88.214L511.749,121.689L568.144,138.976L585.279,117.69L585.279,117.69Z" style="fill:white;"/>
</svg>
