<?xml version="1.0" encoding="UTF-8" standalone="no"?><!DOCTYPE svg PUBLIC "-//W3C//DTD SVG 1.1//EN" "http://www.w3.org/Graphics/SVG/1.1/DTD/svg11.dtd"><svg width="100%" height="100%" viewBox="0 0 1000 1000" version="1.1" xmlns="http://www.w3.org/2000/svg" xmlns:xlink="http://www.w3.org/1999/xlink" xml:space="preserve" style="fill-rule:evenodd;clip-rule:evenodd;stroke-linejoin:round;stroke-miterlimit:1.41421;"><circle cx="500" cy="500" r="500" style="fill:#457d73;"/><path d="M796.765,453.146l89.577,159.681c2.316,-2.063 4.593,-4.164 6.605,-6.053l-82.254,-146.625c4.914,4.496 10.486,9.329 14.307,11.851c1.166,0.77 2.361,1.508 3.579,2.207l70.871,126.334c0.356,-0.349 0.55,-0.541 0.55,-0.541c0,0 10.388,10.284 18.863,17.32l-77.214,-137.641c2.808,0.72 5.614,1.121 8.351,1.121c0.739,0 1.482,-0.029 2.229,-0.087l80.42,143.357c-53.917,188.106 -227.315,325.93 -432.649,325.93c-211.78,0 -389.588,-146.614 -437.371,-343.792l9.774,17.424c0.88,-0.525 1.746,-1.07 2.597,-1.632c1.344,-0.887 2.905,-2.061 4.578,-3.405l-22.855,-40.741c-1.394,-7.978 -2.577,-16.028 -3.544,-24.144l33.163,59.117c2.316,-2.063 4.593,-4.164 6.605,-6.053l-41.806,-74.523c-0.46,-6.478 -0.783,-12.994 -0.964,-19.545l49.273,87.835c0.356,-0.349 0.55,-0.541 0.55,-0.541c0,0 10.388,10.284 18.863,17.32l-68.831,-122.698c0.054,-4.626 0.178,-9.234 0.372,-13.825c0.605,-0.009 1.214,-0.037 1.825,-0.084l82.141,146.425c3.922,1.719 7.962,2.942 11.923,3.428l-85.11,-151.718c2.73,-0.9 5.439,-2.076 8.065,-3.45l86.834,154.792c2.848,-0.551 5.715,-1.453 8.531,-2.619l-87.93,-156.745c2.054,-1.501 4.437,-3.453 6.88,-5.561l88.84,158.367c0.88,-0.525 1.746,-1.07 2.597,-1.632c1.344,-0.887 2.905,-2.061 4.578,-3.405l-89.356,-159.286c2.515,-2.317 4.809,-4.496 6.543,-6.163l89.577,159.681c2.316,-2.063 4.593,-4.164 6.605,-6.053l-82.254,-146.625c4.914,4.496 10.486,9.329 14.307,11.851c1.166,0.77 2.361,1.508 3.579,2.207l70.871,126.334c0.356,-0.349 0.55,-0.541 0.55,-0.541c0,0 10.388,10.284 18.863,17.32l-77.214,-137.641c2.808,0.72 5.614,1.121 8.351,1.121c0.739,0 1.482,-0.029 2.229,-0.087l82.141,146.425c3.922,1.719 7.962,2.942 11.923,3.428l-85.11,-151.718c2.73,-0.9 5.439,-2.076 8.065,-3.45l86.834,154.792c2.848,-0.551 5.715,-1.453 8.531,-2.619l-87.93,-156.745c2.054,-1.501 4.437,-3.453 6.88,-5.561l88.84,158.367c0.88,-0.525 1.746,-1.07 2.597,-1.632c1.344,-0.887 2.905,-2.061 4.578,-3.405l-89.356,-159.286c2.515,-2.317 4.809,-4.496 6.543,-6.163l89.577,159.681c2.316,-2.063 4.593,-4.164 6.605,-6.053l-82.254,-146.625c4.914,4.496 10.486,9.329 14.307,11.851c1.166,0.77 2.361,1.508 3.579,2.207l70.871,126.334c0.356,-0.349 0.55,-0.541 0.55,-0.541c0,0 10.388,10.284 18.863,17.32l-77.214,-137.641c2.808,0.72 5.614,1.121 8.351,1.121c0.739,0 1.482,-0.029 2.229,-0.087l82.141,146.425c3.922,1.719 7.962,2.942 11.923,3.428l-85.11,-151.718c2.73,-0.9 5.439,-2.076 8.065,-3.45l86.834,154.792c2.848,-0.551 5.715,-1.453 8.531,-2.619l-87.93,-156.745c2.054,-1.501 4.437,-3.453 6.88,-5.561l88.84,158.367c0.88,-0.525 1.746,-1.07 2.597,-1.632c1.344,-0.887 2.905,-2.061 4.578,-3.405l-89.356,-159.286c2.515,-2.317 4.809,-4.496 6.543,-6.163l89.577,159.681c2.316,-2.063 4.593,-4.164 6.605,-6.053l-82.254,-146.625c4.914,4.496 10.486,9.329 14.307,11.851c1.166,0.77 2.361,1.508 3.579,2.207l70.871,126.334c0.356,-0.349 0.55,-0.541 0.55,-0.541c0,0 10.388,10.284 18.863,17.32l-77.214,-137.641c2.808,0.72 5.614,1.121 8.351,1.121c0.739,0 1.482,-0.029 2.229,-0.087l82.141,146.425c3.922,1.719 7.962,2.942 11.923,3.428l-85.11,-151.718c2.73,-0.9 5.439,-2.076 8.065,-3.45l86.834,154.792c2.848,-0.551 5.715,-1.453 8.531,-2.619l-87.93,-156.745c2.054,-1.501 4.437,-3.453 6.88,-5.561l88.84,158.367c0.88,-0.525 1.746,-1.07 2.597,-1.632c1.344,-0.887 2.905,-2.061 4.578,-3.405l-89.356,-159.286c2.515,-2.317 4.809,-4.496 6.543,-6.163l89.577,159.681c2.316,-2.063 4.593,-4.164 6.605,-6.053l-82.254,-146.625c4.914,4.496 10.486,9.329 14.307,11.851c1.166,0.77 2.361,1.508 3.579,2.207l70.871,126.334c0.356,-0.349 0.55,-0.541 0.55,-0.541c0,0 10.388,10.284 18.863,17.32l-77.214,-137.641c2.808,0.72 5.614,1.121 8.351,1.121c0.739,0 1.482,-0.029 2.229,-0.087l82.141,146.425c3.922,1.719 7.962,2.942 11.923,3.428l-85.11,-151.718c2.73,-0.9 5.439,-2.076 8.065,-3.45l86.834,154.792c2.848,-0.551 5.715,-1.453 8.531,-2.619l-87.93,-156.745c2.054,-1.501 4.437,-3.453 6.88,-5.561l88.84,158.367c0.88,-0.525 1.746,-1.07 2.597,-1.632c1.344,-0.887 2.905,-2.061 4.578,-3.405l-89.356,-159.286c2.515,-2.317 4.809,-4.496 6.543,-6.163l89.577,159.681c2.316,-2.063 4.593,-4.164 6.605,-6.053l-82.254,-146.625c4.914,4.496 10.486,9.329 14.307,11.851c1.166,0.77 2.361,1.508 3.579,2.207l70.871,126.334c0.356,-0.349 0.55,-0.541 0.55,-0.541c0,0 10.388,10.284 18.863,17.32l-77.214,-137.641c2.808,0.72 5.614,1.121 8.351,1.121c0.739,0 1.482,-0.029 2.229,-0.087l82.141,146.425c3.922,1.719 7.962,2.942 11.923,3.428l-85.11,-151.718c2.73,-0.9 5.439,-2.076 8.065,-3.45l86.834,154.792c2.848,-0.551 5.715,-1.453 8.531,-2.619l-87.93,-156.745c2.054,-1.501 4.437,-3.453 6.88,-5.561l88.84,158.367c0.88,-0.525 1.746,-1.07 2.597,-1.632c1.344,-0.887 2.905,-2.061 4.578,-3.405l-89.356,-159.286c2.515,-2.317 4.809,-4.496 6.543,-6.163l89.577,159.681c2.316,-2.063 4.593,-4.164 6.605,-6.053l-82.254,-146.625c4.914,4.496 10.486,9.329 14.307,11.851c1.166,0.77 2.361,1.508 3.579,2.207l70.871,126.334c0.356,-0.349 0.55,-0.541 0.55,-0.541c0,0 10.388,10.284 18.863,17.32l-77.214,-137.641c2.808,0.72 5.614,1.121 8.351,1.121c0.739,0 1.482,-0.029 2.229,-0.087l82.141,146.425c3.922,1.719 7.962,2.942 11.923,3.428l-85.11,-151.718c2.73,-0.9 5.439,-2.076 8.065,-3.45l86.834,154.792c2.848,-0.551 5.715,-1.453 8.531,-2.619l-87.93,-156.745c2.054,-1.501 4.437,-3.453 6.88,-5.561l88.84,158.367c0.88,-0.525 1.746,-1.07 2.597,-1.632c1.344,-0.887 2.905,-2.061 4.578,-3.405l-89.356,-159.286c2.515,-2.317 4.809,-4.496 6.543,-6.163l89.577,159.681c2.316,-2.063 4.593,-4.164 6.605,-6.053l-82.254,-146.625c4.914,4.496 10.486,9.329 14.307,11.851c1.166,0.77 2.361,1.508 3.579,2.207l70.871,126.334c0.356,-0.349 0.55,-0.541 0.55,-0.541c0,0 10.388,10.284 18.863,17.32l-77.214,-137.641c2.808,0.72 5.614,1.121 8.351,1.121c0.739,0 1.482,-0.029 2.229,-0.087l82.141,146.425c3.922,1.719 7.962,2.942 11.923,3.428l-85.11,-151.718c2.73,-0.9 5.439,-2.076 8.065,-3.45l86.834,154.792c2.848,-0.551 5.715,-1.453 8.531,-2.619l-87.93,-156.745c2.054,-1.501 4.437,-3.453 6.88,-5.561l88.84,158.367c0.88,-0.525 1.746,-1.07 2.597,-1.632c1.344,-0.887 2.905,-2.061 4.578,-3.405l-89.356,-159.286c2.515,-2.317 4.809,-4.496 6.543,-6.163Zm72.483,22.252l69.672,124.199c-0.945,4.176 -1.948,8.331 -3.009,12.462l-74.728,-133.211c2.73,-0.9 5.439,-2.076 8.065,-3.45Zm14.315,-10.133l60.512,107.869c-0.74,4.525 -1.549,9.027 -2.423,13.506l-64.969,-115.814c2.054,-1.501 4.437,-3.453 6.88,-5.561Zm13.202,-12.119l51.086,91.066c-0.485,4.96 -1.05,9.895 -1.694,14.806l-55.935,-99.709c2.515,-2.317 4.809,-4.496 6.543,-6.163Zm13.928,7.003c4.914,4.496 10.486,9.329 14.307,11.851c1.166,0.77 2.361,1.508 3.579,2.207l21.26,37.898c-0.146,5.53 -0.392,11.034 -0.736,16.513l-38.41,-68.469Zm30.956,19.53c2.669,0.684 5.338,1.081 7.947,1.118c0.192,4.553 0.316,9.122 0.371,13.709l-8.318,-14.827Z" style="fill:#fff;"/></svg>