<?xml version="1.0" encoding="UTF-8" standalone="no"?><!DOCTYPE svg PUBLIC "-//W3C//DTD SVG 1.1//EN" "http://www.w3.org/Graphics/SVG/1.1/DTD/svg11.dtd"><svg width="100%" height="100%" viewBox="0 0 1000 1000" version="1.1" xmlns="http://www.w3.org/2000/svg" xmlns:xlink="http://www.w3.org/1999/xlink" xml:space="preserve" style="fill-rule:evenodd;clip-rule:evenodd;stroke-linejoin:round;stroke-miterlimit:1.41421;"><circle cx="500" cy="500" r="500" style="fill:#a53935;"/><path d="M691.239,671.792c46.905,107.539 -16.329,251.107 -180.843,250.213c-120.171,-0.653 -158.146,-76.949 -181.337,-119.373c-23.191,-42.424 -36.862,-160.915 47.85,-279.826c144.084,-202.251 -62.14,-268.471 107.68,-444.815c-31.041,90.996 32.926,174.157 83.859,238.931c19.689,-29.997 32.749,-62.888 10.648,-119.087c195.039,205.566 28,281.045 112.143,473.957Zm-234.819,-122.299c-122.176,245.041 64.528,317.626 120.843,260.139c75.596,-77.169 -41.165,-139.634 -8.314,-283.826c-31.275,30.431 -40.664,107.673 -34.244,160.321c-12.874,-3.949 -78.385,-45.493 -78.285,-136.634Zm-181.88,171.005c-4.349,-277.77 90.991,-206.239 0,-386.995c26.228,144.738 -93.893,110.478 0,386.995Zm450.372,-102c5.086,-100.209 84.619,-130.073 -6.372,-233.995c26.228,83.215 -44.085,124.962 6.372,233.995Zm-221.558,-5.038c12.275,-141.346 116.773,-113.266 57.094,-210.458c-19.249,92.571 -105.283,77.542 -57.094,210.458Zm-113.232,-268.817c6.473,41.102 1.877,66.19 -40.189,130.673c31.052,-129.138 -77.756,-112.879 31.355,-295.847c-16.507,94.717 0.142,109.988 8.834,165.174Z" style="fill:#fff;"/></svg>