<?xml version="1.0" encoding="UTF-8" standalone="no"?><!DOCTYPE svg PUBLIC "-//W3C//DTD SVG 1.1//EN" "http://www.w3.org/Graphics/SVG/1.1/DTD/svg11.dtd"><svg width="100%" height="100%" viewBox="0 0 1000 1000" version="1.1" xmlns="http://www.w3.org/2000/svg" xmlns:xlink="http://www.w3.org/1999/xlink" xml:space="preserve" style="fill-rule:evenodd;clip-rule:evenodd;stroke-linejoin:round;stroke-miterlimit:1.41421;"><circle cx="500" cy="500" r="500" style="fill:#2f9580;"/><path d="M200,450c0,0 16.667,16.5 25,22c7.696,5.08 16.667,8.8 25,8.8c8.333,0 17.304,-3.72 25,-8.8c8.333,-5.5 25,-22 25,-22c0,0 16.667,16.5 25,22c7.696,5.08 16.667,8.8 25,8.8c8.333,0 17.304,-3.72 25,-8.8c8.333,-5.5 25,-22 25,-22c0,0 16.667,16.5 25,22c7.696,5.08 16.667,8.8 25,8.8c8.333,0 17.304,-3.72 25,-8.8c8.333,-5.5 25,-22 25,-22c0,0 16.667,16.5 25,22c7.696,5.08 16.667,8.8 25,8.8c8.333,0 17.304,-3.72 25,-8.8c8.333,-5.5 25,-22 25,-22c0,0 16.667,16.5 25,22c7.696,5.08 16.667,8.8 25,8.8c8.333,0 17.304,-3.72 25,-8.8c8.333,-5.5 25,-22 25,-22c0,0 16.667,16.5 25,22c7.696,5.08 16.667,8.8 25,8.8c8.333,0 17.304,-3.72 25,-8.8c8.333,-5.5 25,-22 25,-22c0,0 16.667,16.5 25,22c7.696,5.08 16.667,8.8 25,8.8c8.333,0 17.304,-3.72 25,-8.8c8.333,-5.5 25,-22 25,-22c0,0 16.667,16.5 25,22c7.572,4.998 16.378,8.68 24.596,8.797c0.269,6.368 0.404,12.77 0.404,19.203c0,248.362 -201.638,450 -450,450c-115.208,0 -220.362,-43.388 -300,-114.702l0,-385.298Z" style="fill:url(#_Linear1);"/><defs><linearGradient id="_Linear1" x1="0" y1="0" x2="1" y2="0" gradientUnits="userSpaceOnUse" gradientTransform="matrix(750,0,0,500,200,700)"><stop offset="0%" style="stop-color:#2f9580;stop-opacity:1"/><stop offset="52%" style="stop-color:#c8e3dd;stop-opacity:1"/><stop offset="100%" style="stop-color:#fff;stop-opacity:1"/></linearGradient></defs></svg>