<?xml version="1.0" encoding="UTF-8" standalone="no"?><!DOCTYPE svg PUBLIC "-//W3C//DTD SVG 1.1//EN" "http://www.w3.org/Graphics/SVG/1.1/DTD/svg11.dtd"><svg width="100%" height="100%" viewBox="0 0 1000 1000" version="1.1" xmlns="http://www.w3.org/2000/svg" xmlns:xlink="http://www.w3.org/1999/xlink" xml:space="preserve" style="fill-rule:evenodd;clip-rule:evenodd;stroke-linejoin:round;stroke-miterlimit:1.41421;"><circle cx="500" cy="500" r="500" style="fill:#7ba2aa;"/><path d="M251.468,480.762l48.557,-107.115l74.173,-30.305l44.419,-62.53l141.92,52.991l28.892,61.494l36.68,2.446l23.42,31.827l73.012,0l25.821,51.183c10.356,-0.013 18.942,-3.673 26.638,-8.753c8.333,-5.5 25,-22 25,-22c0,0 16.667,16.5 25,22c7.696,5.08 16.667,8.8 25,8.8c8.333,0 17.304,-3.72 25,-8.8c8.333,-5.5 25,-22 25,-22c0,0 16.667,16.5 25,22c7.572,4.998 16.378,8.68 24.596,8.797c0.269,6.368 0.404,12.77 0.404,19.203c0,248.362 -201.638,450 -450,450c-248.362,0 -450,-201.638 -450,-450c0,-6.433 0.135,-12.835 0.404,-19.203c8.218,-0.117 17.024,-3.799 24.596,-8.797c8.333,-5.5 25,-22 25,-22c0,0 16.667,16.5 25,22c7.696,5.08 16.667,8.8 25,8.8c8.333,0 17.304,-3.72 25,-8.8c8.333,-5.5 25,-22 25,-22c0,0 16.667,16.5 25,22c7.696,5.08 16.519,8.844 26.468,8.762Zm-1.468,1.238l55.332,104.293l69.433,89.707l72.296,163.811l34.939,-39.623l48.873,5l53.419,-76.188l29.472,-71.942l56.236,-37.058l79.873,-138c-8.333,0 -17.177,-4.92 -24.873,-10c-8.333,-5.5 -25,-22 -25,-22c0,0 -16.667,16.5 -25,22c-7.696,5.08 -16.667,8.8 -25,8.8c-8.333,0 -17.304,-3.72 -25,-8.8c-8.333,-5.5 -25,-22 -25,-22c0,0 -16.667,16.5 -25,22c-7.696,5.08 -16.667,8.8 -25,8.8c-8.333,0 -17.304,-3.72 -25,-8.8c-8.333,-5.5 -25,-22 -25,-22c0,0 -16.667,16.5 -25,22c-7.696,5.08 -16.667,8.8 -25,8.8c-8.333,0 -17.304,-3.72 -25,-8.8c-8.333,-5.5 -25,-22 -25,-22c0,0 -16.667,16.5 -25,22c-7.696,5.08 -16.667,8.8 -25,8.8c-8.333,0 -17.304,-3.72 -25,-8.8c-8.333,-5.5 -25,-22 -25,-22c0,0 -16.667,16.5 -25,22c-7.696,5.079 -16.666,10 -25,10Z" style="fill:#fff;"/></svg>