<?xml version="1.0" encoding="UTF-8" standalone="no"?><!DOCTYPE svg PUBLIC "-//W3C//DTD SVG 1.1//EN" "http://www.w3.org/Graphics/SVG/1.1/DTD/svg11.dtd"><svg width="100%" height="100%" viewBox="0 0 1000 1000" version="1.1" xmlns="http://www.w3.org/2000/svg" xmlns:xlink="http://www.w3.org/1999/xlink" xml:space="preserve" style="fill-rule:evenodd;clip-rule:evenodd;stroke-linejoin:round;stroke-miterlimit:1.41421;"><circle cx="500" cy="500" r="500" style="fill:#b1603c;"/><path d="M437.5,181.25c0,-34.495 28.006,-62.5 62.5,-62.5c34.495,0 62.5,28.005 62.5,62.5l0,521.957c22.856,18.333 37.5,46.492 37.5,78.043c0,55.192 -44.808,100 -100,100c-55.192,0 -100,-44.808 -100,-100c0,-31.551 14.644,-59.71 37.5,-78.043l0,-521.957Zm25,502.5l0,32.547c-22.411,12.976 -37.5,37.216 -37.5,64.953c0,41.394 33.606,75 75,75c41.394,0 75,-33.606 75,-75c0,-27.737 -15.089,-51.977 -37.5,-64.953l0,-385.047l-75,0l0,27.5l37.5,0l0,25l-37.5,0l0,25l37.5,0l0,25l-37.5,0l0,25l37.5,0l0,25l-37.5,0l0,25l37.5,0l0,25l-37.5,0l0,25l37.5,0l0,25l-37.5,0l0,25l37.5,0l0,25l-37.5,0l0,25l37.5,0l0,25l-37.5,0Z" style="fill:#fff;"/></svg>