<?xml version="1.0" encoding="UTF-8" standalone="no"?><!DOCTYPE svg PUBLIC "-//W3C//DTD SVG 1.1//EN" "http://www.w3.org/Graphics/SVG/1.1/DTD/svg11.dtd"><svg width="100%" height="100%" viewBox="0 0 1000 1000" version="1.1" xmlns="http://www.w3.org/2000/svg" xmlns:xlink="http://www.w3.org/1999/xlink" xml:space="preserve" style="fill-rule:evenodd;clip-rule:evenodd;stroke-linejoin:round;stroke-miterlimit:1.41421;"><circle cx="500" cy="500" r="500" style="fill:#262626;"/><path d="M119.427,740.105c112.275,-8.74 277.992,-20.105 380.573,-20.105c102.581,0 268.298,11.365 380.573,20.105c-79.77,126.095 -220.462,209.895 -380.573,209.895c-160.111,0 -300.803,-83.8 -380.573,-209.895Zm604.45,-630.472c51.13,29.408 95.951,68.572 131.912,114.944l-143.731,147.938c17.689,145.292 -60.75,161.545 -107.457,259.294c-6.204,12.984 -36.746,-8.335 -11.616,-61.082c18.858,-39.584 61.739,-71.669 27.697,-100.887c-5.084,-4.363 -31.01,-12.47 -78.432,10.941c-79.527,39.261 -123.105,112.022 -150.26,144.036c-16.454,19.398 -39.047,3.986 -26.564,-31.692c7.821,-22.356 81.377,-121.186 140.05,-153.06c-92.402,26.146 -154.13,110.857 -169.771,133.263c-25.957,37.186 -53.438,8.685 -32.384,-29.172c16.296,-29.3 52.138,-86.68 164.122,-150.568c-84.013,22.064 -141.437,91.774 -156.561,108.031c-31.236,33.579 -50.687,1.857 -25.778,-31.692c15.39,-20.729 47.461,-67.004 134.61,-110.214c-31.282,4.765 -83.583,28.767 -122.987,73.83c-24.546,28.072 -45.492,7.073 -19.635,-27.353c59.332,-78.996 225.476,-126.313 291.223,-137.722c25.599,-4.442 90.632,-77.845 155.562,-158.835Z" style="fill:#fff;"/></svg>