<?xml version="1.0" encoding="UTF-8" standalone="no"?><!DOCTYPE svg PUBLIC "-//W3C//DTD SVG 1.1//EN" "http://www.w3.org/Graphics/SVG/1.1/DTD/svg11.dtd"><svg width="100%" height="100%" viewBox="0 0 1000 1000" version="1.1" xmlns="http://www.w3.org/2000/svg" xmlns:xlink="http://www.w3.org/1999/xlink" xml:space="preserve" style="fill-rule:evenodd;clip-rule:evenodd;stroke-linejoin:round;stroke-miterlimit:1.41421;"><circle cx="500" cy="500" r="500" style="fill:#5a7784;"/><path d="M335,780c17.937,0 32.5,14.563 32.5,32.5c0,17.937 -14.563,32.5 -32.5,32.5c-17.937,0 -32.5,-14.563 -32.5,-32.5c0,-17.937 14.563,-32.5 32.5,-32.5Zm165,0c17.937,0 32.5,14.563 32.5,32.5c0,17.937 -14.563,32.5 -32.5,32.5c-17.937,0 -32.5,-14.563 -32.5,-32.5c0,-17.937 14.563,-32.5 32.5,-32.5Zm82.5,-132.5c27.596,0 50,22.404 50,50c0,27.596 -22.404,50 -50,50c-27.596,0 -50,-22.404 -50,-50c0,-27.596 22.404,-50 50,-50Zm-165.25,17.5c17.937,0 32.5,14.563 32.5,32.5c0,17.937 -14.563,32.5 -32.5,32.5c-17.937,0 -32.5,-14.563 -32.5,-32.5c0,-17.937 14.563,-32.5 32.5,-32.5Zm-82.25,-132.5c27.596,0 50,22.404 50,50c0,27.596 -22.404,50 -50,50c-27.596,0 -50,-22.404 -50,-50c0,-27.596 22.404,-50 50,-50Zm165,17.5c17.937,0 32.5,14.563 32.5,32.5c0,17.937 -14.563,32.5 -32.5,32.5c-17.937,0 -32.5,-14.563 -32.5,-32.5c0,-17.937 14.563,-32.5 32.5,-32.5Zm165,0c17.937,0 32.5,14.563 32.5,32.5c0,17.937 -14.563,32.5 -32.5,32.5c-17.937,0 -32.5,-14.563 -32.5,-32.5c0,-17.937 14.563,-32.5 32.5,-32.5Zm-405.169,-50.4c-0.524,0.054 -108.067,11.01 -101.238,-85.495c2.212,-31.255 37.022,-61.721 58.204,-58.588c-10.192,-16.45 -1.901,-75.424 66.015,-101.478c34.585,-13.267 92.355,-20.649 158.134,11.704c0,0 -13.266,-20.021 -43.268,-27.745c35.553,-91.35 264.046,-63.554 266.205,-19.027c1.737,-13.317 -5.92,-24.842 -23.818,-30.329c42.841,-21.124 162.02,46.594 128.788,143.875c61.449,-11.905 102.102,85.454 46.678,118.712c0.102,-14.332 -7.296,-24.388 -7.962,-24.087c8.839,53.73 -38.408,72.338 -38.716,72.458l-509.022,0l0,0Zm404.052,-158.294c-8.968,-36.943 -56.936,-88.907 -122.174,-44.952c68.835,-20.614 125.559,30.809 106.15,107.985c11.116,-15.913 18.001,-31.479 17.024,-47c55.962,11.235 55.812,60.96 35.757,93.89c35.278,-24.756 31.711,-101.181 -36.757,-109.923Zm-280.676,2.313c-39.953,-57.727 -163.856,-0.627 -96.315,93.856c-29.322,-92.656 64.546,-124.468 96.315,-93.856Z" style="fill:#fff;"/></svg>