<?xml version="1.0" encoding="utf-8"?>
<svg viewBox="0 0 30 30" xmlns="http://www.w3.org/2000/svg">
  <circle cx="15" cy="15.25" r="13" style="fill:#5a7784;" />
  <path fill="#FFFFFF" d="M 24.111 20.073 C 24.111 20.073 24.287 20.317 24.094 20.652 C 23.9 20.986 23.602 20.955 23.602 20.955 C 23.347 20.929 22.956 20.802 22.734 20.674 L 21.037 19.695 C 20.816 19.566 20.688 19.663 20.754 19.912 L 21.01 20.868 C 21.077 21.115 21.098 21.526 21.057 21.778 C 21.057 21.778 21.009 22.075 20.636 22.175 C 20.264 22.275 20.073 22.043 20.073 22.043 C 19.911 21.843 19.726 21.477 19.66 21.23 L 19.04 18.922 C 18.974 18.674 18.738 18.366 18.515 18.238 L 18.05 17.969 C 17.828 17.841 17.465 17.841 17.243 17.969 L 16.104 18.627 C 15.882 18.755 15.7 19.07 15.7 19.326 L 15.7 19.885 C 15.7 20.142 15.848 20.5 16.029 20.681 L 17.705 22.357 C 17.886 22.538 18.109 22.883 18.2 23.123 C 18.2 23.123 18.309 23.404 18.035 23.677 C 17.761 23.95 17.481 23.843 17.481 23.843 C 17.241 23.751 16.896 23.529 16.715 23.347 L 16.029 22.66 C 15.847 22.479 15.7 22.54 15.7 22.797 L 15.7 24.735 C 15.7 24.992 15.613 25.393 15.509 25.627 C 15.509 25.627 15.386 25.901 15 25.901 C 14.613 25.901 14.491 25.627 14.491 25.627 C 14.386 25.393 14.3 24.992 14.3 24.735 L 14.3 22.797 C 14.3 22.54 14.152 22.479 13.97 22.66 L 13.284 23.347 C 13.102 23.529 12.759 23.751 12.518 23.843 C 12.518 23.843 12.238 23.95 11.965 23.677 C 11.691 23.404 11.798 23.123 11.798 23.123 C 11.89 22.883 12.113 22.538 12.295 22.357 L 13.97 20.681 C 14.152 20.5 14.3 20.142 14.3 19.885 L 14.3 19.326 C 14.3 19.07 14.118 18.755 13.896 18.627 L 12.757 17.969 C 12.536 17.841 12.172 17.841 11.95 17.969 L 11.484 18.238 C 11.262 18.366 11.026 18.674 10.959 18.922 L 10.341 21.23 C 10.274 21.477 10.088 21.843 9.926 22.043 C 9.926 22.043 9.736 22.274 9.364 22.175 C 8.99 22.075 8.943 21.778 8.943 21.778 C 8.902 21.526 8.923 21.115 8.989 20.868 L 9.246 19.912 C 9.312 19.663 9.184 19.566 8.962 19.695 L 7.266 20.674 C 7.043 20.802 6.654 20.929 6.398 20.955 C 6.398 20.955 6.098 20.986 5.906 20.652 C 5.714 20.317 5.888 20.073 5.888 20.073 C 6.039 19.866 6.343 19.591 6.565 19.462 L 8.239 18.496 C 8.461 18.368 8.44 18.209 8.193 18.143 L 7.273 17.896 C 7.026 17.83 6.661 17.643 6.461 17.482 C 6.461 17.482 6.229 17.292 6.328 16.919 C 6.412 16.607 6.695 16.4 7.004 16.4 C 7.063 16.4 7.388 16.478 7.635 16.545 L 9.906 17.153 C 10.154 17.219 10.539 17.169 10.76 17.041 L 11.25 16.758 C 11.472 16.63 11.654 16.315 11.654 16.058 L 11.654 14.744 C 11.654 14.487 11.472 14.172 11.25 14.044 L 10.797 13.783 C 10.575 13.655 10.191 13.604 9.944 13.67 L 7.635 14.289 C 7.388 14.355 6.977 14.376 6.725 14.335 C 6.725 14.335 6.428 14.288 6.328 13.914 C 6.228 13.542 6.461 13.352 6.461 13.352 C 6.661 13.19 7.026 13.004 7.273 12.937 L 8.229 12.681 C 8.478 12.614 8.499 12.455 8.276 12.328 L 6.565 11.339 C 6.343 11.211 6.038 10.936 5.888 10.729 C 5.888 10.729 5.713 10.485 5.905 10.151 C 6.036 9.926 6.27 9.8 6.512 9.8 C 6.63 9.8 7.043 10 7.266 10.128 L 8.952 11.102 C 9.174 11.231 9.302 11.133 9.235 10.884 L 8.989 9.966 C 8.922 9.718 8.901 9.308 8.942 9.055 C 8.942 9.055 8.989 8.759 9.363 8.659 C 9.423 8.642 9.485 8.634 9.544 8.634 C 9.854 8.634 9.951 8.772 9.951 8.772 C 10.099 8.982 10.274 9.356 10.34 9.604 L 10.949 11.874 C 11.015 12.122 11.251 12.43 11.473 12.559 L 11.949 12.832 C 12.171 12.961 12.535 12.961 12.757 12.832 L 13.896 12.175 C 14.118 12.047 14.3 11.732 14.3 11.476 L 14.3 10.948 C 14.3 10.692 14.151 10.333 13.97 10.152 L 12.294 8.476 C 12.113 8.295 11.89 7.95 11.798 7.711 C 11.798 7.711 11.691 7.431 11.964 7.157 C 12.101 7.021 12.28 6.952 12.46 6.952 C 12.638 6.952 13.102 7.306 13.284 7.487 L 13.97 8.173 C 14.151 8.354 14.3 8.293 14.3 8.037 L 14.3 6.067 C 14.3 5.811 14.386 5.409 14.491 5.175 C 14.491 5.175 14.613 4.901 14.999 4.901 C 15.386 4.901 15.508 5.175 15.508 5.177 C 15.612 5.41 15.699 5.812 15.699 6.069 L 15.699 8.038 C 15.699 8.294 15.847 8.356 16.028 8.174 L 16.714 7.488 C 16.896 7.307 17.24 7.083 17.48 6.993 C 17.48 6.993 17.76 6.885 18.033 7.159 C 18.307 7.432 18.2 7.712 18.2 7.712 C 18.109 7.951 17.886 8.296 17.705 8.478 L 16.028 10.153 C 15.847 10.334 15.699 10.693 15.699 10.949 L 15.699 11.476 C 15.699 11.733 15.881 12.048 16.103 12.176 L 17.243 12.834 C 17.464 12.962 17.827 12.962 18.049 12.834 L 18.525 12.559 C 18.747 12.431 18.983 12.123 19.049 11.875 L 19.658 9.605 C 19.724 9.357 19.899 8.983 20.049 8.773 C 20.049 8.773 20.146 8.636 20.455 8.636 C 20.514 8.636 20.575 8.643 20.635 8.66 C 21.008 8.759 21.056 9.056 21.056 9.056 C 21.097 9.309 21.076 9.719 21.009 9.967 L 20.764 10.886 C 20.698 11.134 20.824 11.232 21.046 11.103 L 22.733 10.128 C 22.956 10.001 23.368 9.802 23.487 9.802 C 23.728 9.802 23.963 9.927 24.094 10.152 C 24.286 10.486 24.111 10.729 24.111 10.729 C 23.96 10.938 23.654 11.212 23.432 11.341 L 21.722 12.328 C 21.5 12.456 21.521 12.616 21.769 12.682 L 22.726 12.938 C 22.973 13.005 23.338 13.192 23.537 13.354 C 23.537 13.354 23.771 13.543 23.67 13.916 C 23.571 14.289 23.274 14.337 23.274 14.337 C 23.021 14.378 22.611 14.356 22.362 14.29 L 20.056 13.672 C 19.807 13.606 19.422 13.656 19.2 13.784 L 18.75 14.045 C 18.528 14.173 18.345 14.488 18.345 14.745 L 18.345 16.06 C 18.345 16.316 18.528 16.631 18.75 16.76 L 19.238 17.042 C 19.46 17.17 19.845 17.221 20.094 17.154 L 22.363 16.546 C 22.611 16.48 22.935 16.401 22.995 16.401 C 23.304 16.401 23.587 16.607 23.67 16.92 C 23.771 17.294 23.537 17.482 23.537 17.482 C 23.339 17.644 22.973 17.831 22.726 17.897 L 21.806 18.144 C 21.559 18.21 21.538 18.369 21.76 18.498 L 23.434 19.464 C 23.655 19.591 23.962 19.867 24.111 20.073 Z M 16.997 14.694 C 16.997 14.437 16.931 14.272 16.709 14.145 L 15.403 13.387 C 15.181 13.259 14.818 13.259 14.596 13.387 L 13.456 14.045 C 13.235 14.172 13.053 14.487 13.053 14.744 L 13.053 14.745 L 13.053 16.024 C 13.053 16.281 13.264 16.649 13.486 16.777 L 14.622 17.414 C 14.844 17.543 15.122 17.56 15.343 17.431 L 16.653 16.695 C 16.875 16.567 16.946 16.362 16.946 16.105 L 16.997 14.694 Z"/>
</svg>
