<?xml version="1.0" encoding="utf-8"?>
<svg viewBox="0 0 30 30" xmlns="http://www.w3.org/2000/svg">
  <circle cx="15" cy="15.25" r="13" style="fill:#3e3e3e;" />
  <path fill="#FFFFFF" d="M 5.105 21.441 C 8.024 21.213 12.333 20.918 15 20.918 C 17.667 20.918 21.976 21.213 24.895 21.441 C 22.821 24.719 19.163 26.898 15 26.898 C 10.837 26.898 7.179 24.719 5.105 21.441 L 5.105 21.441 Z M 20.821 5.048 C 22.15 5.813 23.316 6.831 24.251 8.037 L 20.514 11.883 C 20.973 15.661 18.934 16.084 17.72 18.625 C 17.558 18.963 16.764 18.408 17.418 17.037 C 17.908 16.008 19.023 15.174 18.138 14.414 C 18.006 14.3 17.331 14.09 16.099 14.698 C 14.031 15.719 12.898 17.611 12.192 18.443 C 11.764 18.948 11.177 18.547 11.501 17.619 C 11.704 17.038 13.617 14.468 15.142 13.64 C 12.74 14.319 11.135 16.522 10.728 17.105 C 10.053 18.071 9.339 17.33 9.886 16.346 C 10.31 15.584 11.242 14.092 14.154 12.431 C 11.969 13.005 10.476 14.817 10.083 15.24 C 9.271 16.113 8.765 15.288 9.413 14.416 C 9.813 13.877 10.647 12.674 12.913 11.551 C 12.099 11.674 10.739 12.298 9.715 13.47 C 9.077 14.2 8.532 13.654 9.204 12.759 C 10.747 10.705 15.067 9.475 16.776 9.178 C 17.442 9.063 19.133 7.154 20.821 5.048 L 20.821 5.048 Z"/>
</svg>
