<?xml version="1.0" encoding="utf-8"?>
<svg viewBox="0 0 30 30" xmlns="http://www.w3.org/2000/svg">
  <circle cx="15" cy="15.25" r="13" style="fill:#585858;" />
  <path fill="#FFFFFF" d="M 15 20.465 C 16.076 20.465 16.95 21.339 16.95 22.415 C 16.95 23.491 16.076 24.365 15 24.365 C 13.924 24.365 13.05 23.491 13.05 22.415 C 13.05 21.339 13.924 20.465 15 20.465 Z M 15.78 18.775 C 15.78 18.775 16.95 12.34 16.95 9.025 C 16.95 7.949 16.076 7.075 15 7.075 C 13.924 7.075 13.05 7.949 13.05 9.025 C 13.05 11.728 14.22 18.775 14.22 18.775 C 14.22 18.775 14.581 18.671 15 18.671 C 15.419 18.671 15.78 18.775 15.78 18.775 Z"/>
</svg>
