<?xml version="1.0" encoding="utf-8"?>
<svg viewBox="0 0 30 30" xmlns="http://www.w3.org/2000/svg">
  <circle cx="15" cy="15.25" r="13" style="fill:#457d73;" />
  <path fill="#FFFFFF" d="M 22.716 13.941 L 25.045 18.093 C 25.105 18.039 25.164 17.984 25.217 17.935 L 23.078 14.123 C 23.206 14.24 23.351 14.365 23.45 14.431 C 23.48 14.451 23.511 14.47 23.543 14.488 L 25.386 17.773 C 25.395 17.764 25.4 17.759 25.4 17.759 C 25.4 17.759 25.67 18.026 25.89 18.209 L 23.883 14.631 C 23.956 14.649 24.029 14.66 24.1 14.66 C 24.119 14.66 24.139 14.659 24.158 14.658 L 26.249 18.385 C 24.847 23.276 20.339 26.859 15 26.859 C 9.494 26.859 4.871 23.047 3.628 17.92 L 3.882 18.373 C 3.905 18.36 3.928 18.346 3.95 18.331 C 3.985 18.308 4.026 18.277 4.069 18.242 L 3.475 17.183 C 3.439 16.976 3.408 16.766 3.383 16.555 L 4.245 18.093 C 4.305 18.039 4.364 17.984 4.417 17.935 L 3.33 15.998 C 3.318 15.829 3.309 15.66 3.305 15.489 L 4.586 17.773 C 4.595 17.764 4.6 17.759 4.6 17.759 C 4.6 17.759 4.87 18.026 5.09 18.209 L 3.301 15.019 C 3.302 14.899 3.305 14.779 3.311 14.66 C 3.326 14.659 3.342 14.659 3.358 14.658 L 5.494 18.465 C 5.596 18.509 5.701 18.541 5.804 18.554 L 3.591 14.609 C 3.662 14.586 3.732 14.555 3.8 14.519 L 6.058 18.544 C 6.132 18.53 6.207 18.506 6.28 18.476 L 3.994 14.4 C 4.047 14.361 4.109 14.311 4.173 14.256 L 6.482 18.373 C 6.505 18.36 6.528 18.346 6.55 18.331 C 6.585 18.308 6.626 18.277 6.669 18.242 L 4.346 14.101 C 4.411 14.041 4.471 13.984 4.516 13.941 L 6.845 18.093 C 6.905 18.039 6.964 17.984 7.017 17.935 L 4.878 14.123 C 5.006 14.24 5.151 14.365 5.25 14.431 C 5.28 14.451 5.311 14.47 5.343 14.488 L 7.186 17.773 C 7.195 17.764 7.2 17.759 7.2 17.759 C 7.2 17.759 7.47 18.026 7.69 18.209 L 5.683 14.631 C 5.756 14.649 5.829 14.66 5.9 14.66 C 5.919 14.66 5.939 14.659 5.958 14.658 L 8.094 18.465 C 8.196 18.509 8.301 18.541 8.404 18.554 L 6.191 14.609 C 6.262 14.586 6.332 14.555 6.4 14.519 L 8.658 18.544 C 8.732 18.53 8.807 18.506 8.88 18.476 L 6.594 14.4 C 6.647 14.361 6.709 14.311 6.773 14.256 L 9.082 18.373 C 9.105 18.36 9.128 18.346 9.15 18.331 C 9.185 18.308 9.226 18.277 9.269 18.242 L 6.946 14.101 C 7.011 14.041 7.071 13.984 7.116 13.941 L 9.445 18.093 C 9.505 18.039 9.564 17.984 9.617 17.935 L 7.478 14.123 C 7.606 14.24 7.751 14.365 7.85 14.431 C 7.88 14.451 7.911 14.47 7.943 14.488 L 9.786 17.773 C 9.795 17.764 9.8 17.759 9.8 17.759 C 9.8 17.759 10.07 18.026 10.29 18.209 L 8.283 14.631 C 8.356 14.649 8.429 14.66 8.5 14.66 C 8.519 14.66 8.539 14.659 8.558 14.658 L 10.694 18.465 C 10.796 18.509 10.901 18.541 11.004 18.554 L 8.791 14.609 C 8.862 14.586 8.932 14.555 9 14.519 L 11.258 18.544 C 11.332 18.53 11.407 18.506 11.48 18.476 L 9.194 14.4 C 9.247 14.361 9.309 14.311 9.373 14.256 L 11.682 18.373 C 11.705 18.36 11.728 18.346 11.75 18.331 C 11.785 18.308 11.826 18.277 11.869 18.242 L 9.546 14.101 C 9.611 14.041 9.671 13.984 9.716 13.941 L 12.045 18.093 C 12.105 18.039 12.164 17.984 12.217 17.935 L 10.078 14.123 C 10.206 14.24 10.351 14.365 10.45 14.431 C 10.48 14.451 10.511 14.47 10.543 14.488 L 12.386 17.773 C 12.395 17.764 12.4 17.759 12.4 17.759 C 12.4 17.759 12.67 18.026 12.89 18.209 L 10.883 14.631 C 10.956 14.649 11.029 14.66 11.1 14.66 C 11.119 14.66 11.139 14.659 11.158 14.658 L 13.294 18.465 C 13.396 18.509 13.501 18.541 13.604 18.554 L 11.391 14.609 C 11.462 14.586 11.532 14.555 11.6 14.519 L 13.858 18.544 C 13.932 18.53 14.007 18.506 14.08 18.476 L 11.794 14.4 C 11.847 14.361 11.909 14.311 11.973 14.256 L 14.282 18.373 C 14.305 18.36 14.328 18.346 14.35 18.331 C 14.385 18.308 14.426 18.277 14.469 18.242 L 12.146 14.101 C 12.211 14.041 12.271 13.984 12.316 13.941 L 14.645 18.093 C 14.705 18.039 14.764 17.984 14.817 17.935 L 12.678 14.123 C 12.806 14.24 12.951 14.365 13.05 14.431 C 13.08 14.451 13.111 14.47 13.143 14.488 L 14.986 17.773 C 14.995 17.764 15 17.759 15 17.759 C 15 17.759 15.27 18.026 15.49 18.209 L 13.483 14.631 C 13.556 14.649 13.629 14.66 13.7 14.66 C 13.719 14.66 13.739 14.659 13.758 14.658 L 15.894 18.465 C 15.996 18.509 16.101 18.541 16.204 18.554 L 13.991 14.609 C 14.062 14.586 14.132 14.555 14.2 14.519 L 16.458 18.544 C 16.532 18.53 16.607 18.506 16.68 18.476 L 14.394 14.4 C 14.447 14.361 14.509 14.311 14.573 14.256 L 16.882 18.373 C 16.905 18.36 16.928 18.346 16.95 18.331 C 16.985 18.308 17.026 18.277 17.069 18.242 L 14.746 14.101 C 14.811 14.041 14.871 13.984 14.916 13.941 L 17.245 18.093 C 17.305 18.039 17.364 17.984 17.417 17.935 L 15.278 14.123 C 15.406 14.24 15.551 14.365 15.65 14.431 C 15.68 14.451 15.711 14.47 15.743 14.488 L 17.586 17.773 C 17.595 17.764 17.6 17.759 17.6 17.759 C 17.6 17.759 17.87 18.026 18.09 18.209 L 16.083 14.631 C 16.156 14.649 16.229 14.66 16.3 14.66 C 16.319 14.66 16.339 14.659 16.358 14.658 L 18.494 18.465 C 18.596 18.509 18.701 18.541 18.804 18.554 L 16.591 14.609 C 16.662 14.586 16.732 14.555 16.8 14.519 L 19.058 18.544 C 19.132 18.53 19.207 18.506 19.28 18.476 L 16.994 14.4 C 17.047 14.361 17.109 14.311 17.173 14.256 L 19.482 18.373 C 19.505 18.36 19.528 18.346 19.55 18.331 C 19.585 18.308 19.626 18.277 19.669 18.242 L 17.346 14.101 C 17.411 14.041 17.471 13.984 17.516 13.941 L 19.845 18.093 C 19.905 18.039 19.964 17.984 20.017 17.935 L 17.878 14.123 C 18.006 14.24 18.151 14.365 18.25 14.431 C 18.28 14.451 18.311 14.47 18.343 14.488 L 20.186 17.773 C 20.195 17.764 20.2 17.759 20.2 17.759 C 20.2 17.759 20.47 18.026 20.69 18.209 L 18.683 14.631 C 18.756 14.649 18.829 14.66 18.9 14.66 C 18.919 14.66 18.939 14.659 18.958 14.658 L 21.094 18.465 C 21.196 18.509 21.301 18.541 21.404 18.554 L 19.191 14.609 C 19.262 14.586 19.332 14.555 19.4 14.519 L 21.658 18.544 C 21.732 18.53 21.807 18.506 21.88 18.476 L 19.594 14.4 C 19.647 14.361 19.709 14.311 19.773 14.256 L 22.082 18.373 C 22.105 18.36 22.128 18.346 22.15 18.331 C 22.185 18.308 22.226 18.277 22.269 18.242 L 19.946 14.101 C 20.011 14.041 20.071 13.984 20.116 13.941 L 22.445 18.093 C 22.505 18.039 22.564 17.984 22.617 17.935 L 20.478 14.123 C 20.606 14.24 20.751 14.365 20.85 14.431 C 20.88 14.451 20.911 14.47 20.943 14.488 L 22.786 17.773 C 22.795 17.764 22.8 17.759 22.8 17.759 C 22.8 17.759 23.07 18.026 23.29 18.209 L 21.283 14.631 C 21.356 14.649 21.429 14.66 21.5 14.66 C 21.519 14.66 21.539 14.659 21.558 14.658 L 23.694 18.465 C 23.796 18.509 23.901 18.541 24.004 18.554 L 21.791 14.609 C 21.862 14.586 21.932 14.555 22 14.519 L 24.258 18.544 C 24.332 18.53 24.407 18.506 24.48 18.476 L 22.194 14.4 C 22.247 14.361 22.309 14.311 22.373 14.256 L 24.682 18.373 C 24.705 18.36 24.728 18.346 24.75 18.331 C 24.785 18.308 24.826 18.277 24.869 18.242 L 22.546 14.101 C 22.611 14.041 22.671 13.984 22.716 13.941 Z M 24.6 14.519 L 26.412 17.749 C 26.387 17.857 26.361 17.965 26.334 18.073 L 24.391 14.609 C 24.462 14.586 24.532 14.555 24.6 14.519 Z M 24.973 14.256 L 26.546 17.06 C 26.527 17.178 26.506 17.295 26.483 17.412 L 24.794 14.4 C 24.847 14.361 24.909 14.311 24.973 14.256 Z M 25.316 13.941 L 26.644 16.309 C 26.632 16.437 26.617 16.566 26.6 16.693 L 25.146 14.101 C 25.211 14.041 25.271 13.984 25.316 13.941 Z M 25.678 14.123 C 25.806 14.24 25.951 14.365 26.05 14.431 C 26.08 14.451 26.111 14.47 26.143 14.488 L 26.696 15.474 C 26.692 15.618 26.686 15.761 26.677 15.903 L 25.678 14.123 Z M 26.483 14.631 C 26.552 14.648 26.622 14.659 26.689 14.66 C 26.694 14.778 26.698 14.897 26.699 15.016 L 26.483 14.631 Z" />
</svg>
