<?xml version="1.0" encoding="utf-8"?>
<svg viewBox="0 0 30 30" xmlns="http://www.w3.org/2000/svg">
  <circle cx="15" cy="15.25" r="13" style="fill:#a09758;" />
  <path fill="#FFFFFF" d="M 25.387 19.933 C 23.578 23.882 19.589 26.629 14.964 26.629 C 10.34 26.629 6.35 23.882 4.542 19.933 L 25.387 19.933 Z M 16.195 19.049 C 11.75 19.053 6.904 19.06 6.904 19.06 C 11.995 18.354 11.425 15.646 15.08 17.179 C 13.511 15.543 16.769 13.02 19.047 14.701 C 18.69 14.077 17.611 13.686 16.669 13.97 C 15.949 12.812 17.864 10.749 19.774 11.654 C 23.179 10.609 24.622 13.446 24.521 14.282 C 26.576 15.326 25.001 19.085 23.407 19.053 C 23.102 19.046 20.477 19.046 17.407 19.048 C 17.337 19.057 17.267 19.061 17.197 19.06 C 17.052 19.056 16.699 19.053 16.195 19.049 L 16.195 19.049 Z M 6.93 17.501 C 4.82 15.278 9.241 11.876 12.321 14.16 C 11.839 13.315 10.378 12.78 9.101 13.162 C 8.128 11.589 11.403 9.402 13.319 10.799 C 14.563 9.091 17.571 9.355 18.228 10.865 C 17.157 10.726 15.315 11.914 15.804 13.869 C 14.975 14.076 13.969 14.852 14.061 16.228 C 10.992 15.295 10.904 18.648 4.5 19.005 C 6.229 18.637 6.895 17.577 6.93 17.501 L 6.93 17.501 Z M 11.005 18.214 C 11.146 18.214 11.26 18.328 11.26 18.468 C 11.26 18.609 11.146 18.723 11.005 18.723 C 10.864 18.723 10.751 18.609 10.751 18.468 C 10.751 18.328 10.864 18.214 11.005 18.214 Z M 5.011 17.985 C 5.151 17.985 5.266 18.099 5.266 18.24 C 5.266 18.38 5.151 18.494 5.011 18.494 C 4.87 18.494 4.756 18.38 4.756 18.24 C 4.756 18.099 4.87 17.985 5.011 17.985 Z M 11.693 17.679 C 11.834 17.679 11.947 17.793 11.947 17.934 C 11.947 18.074 11.834 18.189 11.693 18.189 C 11.552 18.189 11.438 18.074 11.438 17.934 C 11.438 17.793 11.552 17.679 11.693 17.679 Z M 6.131 17.222 C 6.271 17.222 6.386 17.337 6.386 17.477 C 6.386 17.618 6.271 17.731 6.131 17.731 C 5.99 17.731 5.877 17.618 5.877 17.477 C 5.877 17.337 5.99 17.222 6.131 17.222 Z M 6.93 17.501 L 6.934 17.506 C 6.932 17.499 6.932 17.498 6.93 17.501 Z M 15.838 16.594 C 15.978 16.594 16.093 16.707 16.093 16.848 C 16.093 16.989 15.978 17.103 15.838 17.103 C 15.697 17.103 15.584 16.989 15.584 16.848 C 15.584 16.707 15.697 16.594 15.838 16.594 Z M 5.571 16.56 C 5.711 16.56 5.826 16.675 5.826 16.815 C 5.826 16.956 5.711 17.069 5.571 17.069 C 5.43 17.069 5.317 16.956 5.317 16.815 C 5.317 16.675 5.43 16.56 5.571 16.56 Z M 23.291 14.567 C 24.423 14.823 25.068 16.145 24.335 17.017 C 24.749 15.782 23.492 14.317 21.743 14.804 C 22.199 14.474 22.604 14.439 22.935 14.5 C 22.718 13.405 21.477 13.379 20.624 13.715 C 21.418 12.797 23.152 13.234 23.291 14.567 L 23.291 14.567 Z M 7.235 16.381 C 7.375 16.381 7.49 16.495 7.49 16.636 C 7.49 16.776 7.375 16.889 7.235 16.889 C 7.094 16.889 6.981 16.776 6.981 16.636 C 6.981 16.495 7.094 16.381 7.235 16.381 Z M 15.494 15.75 C 15.635 15.75 15.748 15.864 15.748 16.005 C 15.748 16.145 15.635 16.259 15.494 16.259 C 15.354 16.259 15.239 16.145 15.239 16.005 C 15.239 15.864 15.354 15.75 15.494 15.75 Z M 16.246 15.288 C 16.386 15.288 16.5 15.403 16.5 15.543 C 16.5 15.684 16.386 15.797 16.246 15.797 C 16.105 15.797 15.991 15.684 15.991 15.543 C 15.991 15.403 16.105 15.288 16.246 15.288 Z M 8.052 14.567 C 8.193 14.567 8.306 14.681 8.306 14.821 C 8.306 14.962 8.193 15.076 8.052 15.076 C 7.911 15.076 7.797 14.962 7.797 14.821 C 7.797 14.681 7.911 14.567 8.052 14.567 Z M 8.739 14.038 C 8.88 14.038 8.994 14.152 8.994 14.293 C 8.994 14.433 8.88 14.548 8.739 14.548 C 8.598 14.548 8.485 14.433 8.485 14.293 C 8.485 14.152 8.598 14.038 8.739 14.038 Z M 7.619 13.282 C 7.76 13.282 7.874 13.397 7.874 13.537 C 7.874 13.678 7.76 13.791 7.619 13.791 C 7.478 13.791 7.364 13.678 7.364 13.537 C 7.364 13.397 7.478 13.282 7.619 13.282 Z M 17.396 12.907 C 17.537 12.907 17.651 13.021 17.651 13.162 C 17.651 13.302 17.537 13.417 17.396 13.417 C 17.255 13.417 17.141 13.302 17.141 13.162 C 17.141 13.021 17.255 12.907 17.396 12.907 Z M 8.357 12.786 C 8.498 12.786 8.612 12.9 8.612 13.04 C 8.612 13.181 8.498 13.295 8.357 13.295 C 8.216 13.295 8.103 13.181 8.103 13.04 C 8.103 12.9 8.216 12.786 8.357 12.786 Z M 17.999 12.231 C 18.139 12.231 18.253 12.344 18.253 12.485 C 18.253 12.625 18.139 12.74 17.999 12.74 C 17.858 12.74 17.744 12.625 17.744 12.485 C 17.744 12.344 17.858 12.231 17.999 12.231 Z M 9.732 12.154 C 9.873 12.154 9.987 12.268 9.987 12.409 C 9.987 12.549 9.873 12.664 9.732 12.664 C 9.591 12.664 9.478 12.549 9.478 12.409 C 9.478 12.268 9.591 12.154 9.732 12.154 Z M 10.853 12.154 C 10.993 12.154 11.107 12.268 11.107 12.409 C 11.107 12.549 10.993 12.664 10.853 12.664 C 10.712 12.664 10.598 12.549 10.598 12.409 C 10.598 12.268 10.712 12.154 10.853 12.154 Z M 10.292 11.442 C 10.433 11.442 10.547 11.555 10.547 11.696 C 10.547 11.836 10.433 11.951 10.292 11.951 C 10.151 11.951 10.038 11.836 10.038 11.696 C 10.038 11.555 10.151 11.442 10.292 11.442 Z"/>
</svg>
