<?xml version="1.0" encoding="utf-8"?>
<svg viewBox="0 0 30 30" xmlns="http://www.w3.org/2000/svg">
  <circle cx="15" cy="15.25" r="13" style="fill:#a6744a;" />
  <path fill="#FFFFFF" d="M 24.962 21.352 C 22.898 24.679 19.212 26.897 15.011 26.897 C 10.795 26.897 7.097 24.662 5.038 21.314 L 11.839 11.918 C 13.963 12.922 15.911 12.907 17.69 11.918 L 24.962 21.352 Z M 17.756 15.551 C 17.756 15.551 19.408 20.833 20.291 23.027 C 20.381 23.251 20.637 23.36 20.861 23.27 C 21.086 23.18 21.194 22.924 21.104 22.7 C 20.222 20.506 17.756 15.551 17.756 15.551 L 17.756 15.551 Z M 11.428 15.252 C 11.428 15.252 8.827 18.77 7.874 20.374 C 7.752 20.582 7.819 20.851 8.027 20.974 C 8.235 21.098 8.505 21.03 8.628 20.822 C 9.581 19.218 11.428 15.252 11.428 15.252 Z M 16.063 14.458 C 16.063 14.458 16.051 17.701 16.219 19.07 C 16.246 19.292 16.448 19.451 16.67 19.424 C 16.892 19.396 17.052 19.194 17.024 18.971 C 16.857 17.603 16.063 14.458 16.063 14.458 L 16.063 14.458 Z M 15.011 11.918 C 14.904 10.052 15.005 8.101 15.681 5.939 L 16.094 6.03 C 15.319 8.225 15.105 10.084 15.011 11.918 L 15.011 11.918 Z M 13.168 11.262 C 12.377 9.917 11.668 9.054 10.236 7.794 L 10.504 7.511 C 11.729 8.655 12.565 9.922 13.168 11.262 Z M 16.722 11.229 C 16.811 9.81 17.198 8.523 18.2 7.511 L 18.51 7.809 C 17.492 8.571 17.04 9.762 16.722 11.229 Z M 10.238 6.422 L 9.183 5.978 L 8.709 6.117 L 8.574 7.107 L 8.86 7.184 L 9.245 8.016 L 9.694 7.948 L 10.36 6.873 L 10.238 6.422 L 10.238 6.422 Z M 19.156 7.919 L 20.257 7.634 L 20.851 6.921 L 20.177 6.11 L 19.443 6.198 L 18.601 6.058 L 18.239 7.017 L 19.156 7.919 Z M 17.229 5.257 L 17.13 4.664 L 16.243 3.951 L 15.765 4.079 L 15.143 4.49 L 15.316 5.361 L 16.784 5.81 L 17.229 5.257 L 17.229 5.257 Z" />
</svg>
