<?xml version="1.0" encoding="utf-8"?>
<svg viewBox="0 0 30 30" xmlns="http://www.w3.org/2000/svg">
  <circle cx="15" cy="15.25" r="13" style="fill:#328697;" />
  <path fill="#FFFFFF" d="M 11.641 23.609 L 11.245 24.885 L 11.701 26.39 L 13.002 24.575 L 11.641 23.609 L 11.641 23.609 Z M 18.568 22.107 L 16.605 22.71 L 17.528 25.386 L 19.05 25.737 L 20.137 23.262 L 18.568 22.107 Z M 8.787 24.384 L 10.402 25.113 L 11.232 23.618 L 10.142 23.36 L 9.516 23.483 L 8.787 24.384 L 8.787 24.384 Z M 11.179 22.748 L 13.619 24.52 L 15.875 24.737 L 15.818 22.273 L 13.375 21.542 L 12.029 20.666 L 11.179 22.748 L 11.179 22.748 Z M 22.379 24.289 L 21.471 24.125 L 22.262 20.892 L 23.445 23.173 L 23.439 23.313 C 23.106 23.659 22.752 23.985 22.379 24.289 Z M 21.807 20.571 L 23.736 18.304 L 20.548 19.043 L 18.649 21.498 L 20.997 23.256 L 21.807 20.571 L 21.807 20.571 Z M 10.815 21.302 L 9.727 22.36 L 9.199 23.164 L 10.954 23.163 L 10.815 21.302 L 10.815 21.302 Z M 10.215 21.2 L 7.949 20.559 L 6.99 22.72 L 9.377 22.244 L 10.215 21.2 Z M 13.825 21.428 L 17.132 22.182 L 18.662 20.696 L 17.169 17.634 L 14.709 18.503 L 13.825 21.428 L 13.825 21.428 Z M 26.233 18.493 C 25.899 19.638 25.394 20.711 24.748 21.682 L 23.408 21.986 L 22.575 20.602 L 26.233 18.493 L 26.233 18.493 Z M 5.256 19.2 L 6.932 21.526 L 9.503 18.123 L 7.768 17.421 L 5.94 17.599 L 5.256 19.2 L 5.256 19.2 Z M 9.003 19.784 L 11.294 21.109 L 12.976 18.614 L 13.578 15.739 L 11.678 15.332 L 10.342 17.179 L 9.003 19.784 L 9.003 19.784 Z M 13.414 21.056 L 14.295 18.76 L 13.164 18.957 L 12.513 20.467 L 13.414 21.056 Z M 8.112 20.308 L 10.286 21.056 L 8.612 19.741 L 8.112 20.308 L 8.112 20.308 Z M 16.021 15.165 C 16.114 15.195 16.209 15.212 16.3 15.212 C 16.517 15.212 16.75 15.115 16.95 14.983 C 17.167 14.84 17.6 14.411 17.6 14.411 C 17.6 14.411 18.033 14.84 18.25 14.983 C 18.45 15.115 18.683 15.212 18.9 15.212 C 19.117 15.212 19.35 15.115 19.55 14.983 C 19.767 14.84 20.2 14.411 20.2 14.411 C 20.2 14.411 20.207 14.418 20.219 14.43 L 20.411 18.196 L 19.156 20.369 L 17.258 17.297 L 15.724 16.246 L 16.021 15.165 L 16.021 15.165 Z M 22.556 20.172 L 25.456 18.749 L 25.987 17.859 L 23.995 18.373 L 22.556 20.172 L 22.556 20.172 Z M 4.43 14.575 L 4.219 15.172 L 4.797 17.995 L 4.295 19.937 C 3.655 18.491 3.3 16.893 3.3 15.212 C 3.3 15.122 3.301 15.032 3.303 14.942 C 3.305 15.032 3.308 15.122 3.312 15.212 C 3.525 15.208 3.754 15.113 3.95 14.983 C 4.079 14.898 4.284 14.712 4.43 14.575 L 4.43 14.575 Z M 23.618 16.536 L 20.701 17.215 L 20.548 18.749 L 23.447 18.021 L 23.618 16.536 L 23.618 16.536 Z M 13.402 18.591 L 16.939 17.506 L 15 16.098 L 13.828 16.128 L 13.402 18.591 L 13.402 18.591 Z M 26.658 16.215 C 26.622 16.638 26.563 17.056 26.483 17.465 L 24.076 17.94 L 23.688 17.551 L 23.985 16.686 L 26.614 16.079 L 26.658 16.215 Z M 5.636 15.17 C 5.725 15.197 5.814 15.212 5.9 15.212 C 6.117 15.212 6.35 15.115 6.55 14.983 C 6.767 14.84 7.2 14.411 7.2 14.411 C 7.2 14.411 7.633 14.84 7.85 14.983 C 8.05 15.115 8.283 15.212 8.5 15.212 C 8.717 15.212 8.95 15.115 9.15 14.983 C 9.367 14.84 9.8 14.411 9.8 14.411 C 9.8 14.411 10.233 14.84 10.45 14.983 C 10.65 15.115 10.883 15.212 11.1 15.212 C 11.187 15.212 11.277 15.196 11.366 15.169 L 11.335 15.212 L 7.5 16.194 L 5.181 17.752 L 5.521 15.595 L 5.636 15.17 L 5.636 15.17 Z M 10.96 15.793 L 8.295 17.214 L 9.305 17.651 L 10.96 15.793 Z M 6.429 17.171 L 7.847 17.054 L 9.786 15.932 L 7.489 16.478 L 6.429 17.171 Z M 4.685 14.494 C 4.823 14.626 5.093 14.88 5.25 14.983 C 5.303 15.018 5.358 15.051 5.415 15.079 L 4.984 16.972 L 4.451 15.16 L 4.685 14.494 Z M 20.496 14.691 C 20.619 14.804 20.755 14.921 20.85 14.983 C 20.895 15.013 20.942 15.041 20.99 15.066 L 20.977 16.138 L 20.655 16.833 L 20.496 14.691 L 20.496 14.691 Z M 21.156 15.142 C 21.27 15.186 21.387 15.212 21.5 15.212 C 21.717 15.212 21.95 15.115 22.15 14.983 C 22.367 14.84 22.8 14.411 22.8 14.411 C 22.8 14.411 23.233 14.84 23.45 14.983 C 23.65 15.115 23.883 15.212 24.1 15.212 C 24.317 15.212 24.55 15.115 24.75 14.983 C 24.967 14.84 25.4 14.411 25.4 14.411 C 25.4 14.411 25.833 14.84 26.05 14.983 C 26.191 15.077 26.349 15.152 26.506 15.189 L 23.897 16.206 L 21.259 16.727 L 21.156 15.142 L 21.156 15.142 Z M 23.985 16.437 L 26.258 15.98 L 26.233 15.601 L 23.985 16.437 Z M 15.378 14.765 C 15.476 14.852 15.576 14.934 15.65 14.983 C 15.701 15.017 15.754 15.048 15.808 15.076 L 15.429 15.872 L 14.212 15.832 L 15.378 14.765 L 15.378 14.765 Z M 11.731 14.996 C 11.737 14.992 11.744 14.987 11.75 14.983 C 11.967 14.84 12.4 14.411 12.4 14.411 C 12.4 14.411 12.833 14.84 13.05 14.983 C 13.25 15.115 13.483 15.212 13.7 15.212 C 13.917 15.212 14.15 15.115 14.35 14.983 C 14.567 14.84 15 14.411 15 14.411 C 15 14.411 15.06 14.47 15.146 14.552 L 14.467 15.212 L 13.96 15.555 L 11.731 14.996 L 11.731 14.996 Z M 26.697 14.942 C 26.698 14.999 26.699 15.056 26.7 15.113 L 26.692 15.116 C 26.694 15.058 26.696 15 26.697 14.942 L 26.697 14.942 Z" />
</svg>
