<?xml version="1.0" encoding="utf-8"?>
<svg viewBox="0 0 30 30" xmlns="http://www.w3.org/2000/svg">
  <circle cx="15" cy="15.25" r="13" style="fill:#3889ad;" />
  <path fill="#FFFFFF" d="M 21.329 14.657 C 21.386 14.669 21.444 14.676 21.5 14.676 C 21.717 14.676 21.95 14.579 22.15 14.447 C 22.367 14.304 22.8 13.875 22.8 13.875 C 22.8 13.875 23.233 14.304 23.45 14.447 C 23.65 14.579 23.883 14.676 24.1 14.676 C 24.317 14.676 24.55 14.579 24.75 14.447 C 24.967 14.304 25.4 13.875 25.4 13.875 C 25.4 13.875 25.833 14.304 26.05 14.447 C 26.247 14.577 26.476 14.673 26.689 14.676 C 26.696 14.841 26.7 15.008 26.7 15.175 C 26.7 21.632 21.457 26.875 15 26.875 C 8.543 26.875 3.3 21.632 3.3 15.175 C 3.3 15.008 3.304 14.841 3.311 14.676 C 3.524 14.673 3.753 14.577 3.95 14.447 C 4.167 14.304 4.6 13.875 4.6 13.875 C 4.6 13.875 5.033 14.304 5.25 14.447 C 5.45 14.579 5.683 14.676 5.9 14.676 C 6.117 14.676 6.35 14.579 6.55 14.447 C 6.767 14.304 7.2 13.875 7.2 13.875 C 7.2 13.875 7.633 14.304 7.85 14.447 C 8.05 14.579 8.283 14.676 8.5 14.676 C 8.58 14.676 8.663 14.663 8.745 14.639 L 10.102 18.768 L 12.677 21.05 L 13.601 23.712 L 14.558 24.108 L 14.682 23.072 L 15.378 25.674 L 17.064 24.09 L 18.03 22.07 L 20.161 19.857 L 21.329 14.657 L 21.329 14.657 Z M 9.179 14.42 C 9.371 14.351 9.8 13.875 9.8 13.875 C 9.8 13.875 10.233 14.304 10.45 14.447 C 10.65 14.579 10.883 14.676 11.1 14.676 C 11.317 14.676 11.55 14.579 11.75 14.447 C 11.967 14.304 12.4 13.875 12.4 13.875 C 12.4 13.875 12.833 14.304 13.05 14.447 C 13.25 14.579 13.483 14.676 13.7 14.676 C 13.917 14.676 14.15 14.579 14.35 14.447 C 14.567 14.304 15 13.875 15 13.875 C 15 13.875 15.433 14.304 15.65 14.447 C 15.85 14.579 16.083 14.676 16.3 14.676 C 16.517 14.676 16.75 14.579 16.95 14.447 C 17.167 14.304 17.6 13.875 17.6 13.875 C 17.6 13.875 18.033 14.304 18.25 14.447 C 18.45 14.579 18.683 14.676 18.9 14.676 C 19.117 14.676 19.35 14.579 19.55 14.447 C 19.767 14.304 20.2 13.875 20.2 13.875 C 20.2 13.875 20.667 14.417 20.902 14.473 L 19.737 19.642 L 17.666 21.739 L 16.672 23.783 L 15.62 24.79 L 14.597 21.232 L 14.22 23.488 L 13.936 23.347 L 13.035 20.746 L 10.544 18.532 L 9.179 14.42 L 9.179 14.42 Z M 8.708 14.156 L 9.3 12.285 L 11.194 11.152 L 12.337 8.784 L 15.363 9.786 L 16.716 10.917 L 18.797 11.129 L 19.571 12.17 L 21.025 12.526 L 21.318 14.156 C 20.963 14.139 20.718 13.79 20.2 13.225 C 20.2 13.225 19.481 14.156 18.9 14.156 C 18.319 14.156 17.6 13.225 17.6 13.225 C 17.6 13.225 16.818 14.156 16.3 14.156 C 15.782 14.156 15 13.225 15 13.225 C 15 13.225 14.276 14.156 13.7 14.156 C 13.124 14.156 12.4 13.225 12.4 13.225 C 12.4 13.225 11.734 14.156 11.1 14.156 C 10.466 14.156 9.8 13.225 9.8 13.225 C 9.461 13.674 9.282 13.921 8.708 14.156 L 8.708 14.156 Z"/>
</svg>
