<?xml version="1.0" encoding="utf-8"?>
<svg viewBox="0 0 30 30" xmlns="http://www.w3.org/2000/svg">
  <circle cx="15" cy="15.25" r="13" style="fill:#465a64;" />
  <path fill="#FFFFFF" d="M 8.755 16.553 C 8.744 16.554 5.945 16.84 6.123 14.33 C 6.181 13.517 7.086 12.725 7.636 12.806 C 7.371 12.379 7.587 10.845 9.353 10.168 C 10.252 9.823 11.754 9.631 13.464 10.472 C 13.464 10.472 13.119 9.952 12.339 9.751 C 13.264 7.376 19.205 8.099 19.261 9.256 C 19.306 8.91 19.107 8.61 18.641 8.468 C 19.755 7.919 22.854 9.679 21.99 12.208 C 23.588 11.899 24.645 14.43 23.204 15.295 C 23.206 14.922 23.014 14.661 22.996 14.669 C 23.226 16.067 21.996 16.55 21.99 16.553 L 16.692 16.553 L 16.004 17.961 L 18.065 18.346 L 12.74 25.591 L 15.398 19.633 L 13.597 19.263 L 14.599 16.553 L 8.755 16.553 L 8.755 16.553 Z M 19.261 12.437 C 19.027 11.477 17.78 10.125 16.084 11.268 C 17.874 10.732 19.349 12.069 18.844 14.076 C 19.133 13.662 19.312 13.257 19.287 12.854 C 20.742 13.146 20.738 14.439 20.216 15.295 C 21.134 14.651 21.041 12.664 19.261 12.437 Z M 11.963 12.497 C 10.924 10.996 7.703 12.481 9.459 14.937 C 8.696 12.528 11.137 11.701 11.963 12.497 L 11.963 12.497 Z"/>
</svg>
