<?xml version="1.0" encoding="UTF-8"?>
<svg id="Layer_2" data-name="Layer 2" xmlns="http://www.w3.org/2000/svg" viewBox="0 0 26 26">
  <defs>
    <style>
      .cls-1 {
        opacity: .6;
      }

      .cls-1, .cls-2 {
        fill: #fff;
      }

      .cls-3 {
        fill: #004868;
      }
    </style>
  </defs>
  <g id="Layer_1_copy" data-name="Layer 1 copy">
    <circle class="cls-3" cx="13" cy="13" r="13"/>
    <path class="cls-2" d="M24.57,13.06c-.59,0-1.09-.37-1.29-.89-.2.52-.7.89-1.29.89s-1.09-.37-1.29-.89c-.2.52-.7.89-1.29.89s-1.09-.37-1.29-.89c-.2.52-.7.89-1.29.89s-1.09-.37-1.29-.89c-.2.52-.7.89-1.29.89s-1.09-.37-1.29-.89c-.2.52-.7.89-1.29.89s-1.09-.37-1.29-.89c-.2.52-.7.89-1.29.89s-1.09-.37-1.29-.89c-.2.52-.7.89-1.29.89s-1.09-.37-1.29-.89c-.2.52-.7.89-1.29.89s-1.09-.37-1.29-.89c-.19.51-.67.87-1.25.89,0,.1,0,.2-.02.3.19,6.26,5.3,11.27,11.6,11.27s11.42-5.02,11.6-11.27c0-.1,0-.2-.01-.29,0,0-.01,0-.02,0Z"/>
    <path class="cls-1" d="M18.32,6.7v-3.75h-2.48v1.92l-2.85-2.59-7.8,6.91h1.6v3.03c.35-.1.63-.36.77-.74,0,0,.03-.3.24-.3s.24.3.24.3c.17.48.58.79,1.04.79s.88-.31,1.04-.79c0,0,.03-.29.24-.29s.24.29.24.29c.17.48.58.79,1.04.79s.88-.31,1.04-.79c0,0,.07-.29.24-.29s.24.29.24.29c.17.48.58.79,1.04.79s.88-.31,1.04-.79c0,0,.03-.29.24-.29s.24.29.24.29c.17.48.58.79,1.04.79s.88-.31,1.04-.79c0,0,.05-.3.24-.3s.24.3.24.3c.14.39.44.66.81.75v-3.04h1.6l-2.46-2.49ZM14.09,9.24h-2.25v-2.72h2.25v2.72Z"/>
  </g>
</svg>