<?xml version="1.0" encoding="utf-8"?>
<svg viewBox="0 0 30 30" xmlns="http://www.w3.org/2000/svg">
  <circle cx="15" cy="15.25" r="13" style="fill:#8d3b36;" />
  <path fill="#FFFFFF" d="M 19.972 19.66 C 21.192 22.456 19.548 26.188 15.27 26.165 C 12.146 26.148 11.158 24.164 10.556 23.061 C 9.953 21.958 9.597 18.878 11.8 15.786 C 15.546 10.527 10.184 8.806 14.599 4.221 C 13.792 6.587 15.455 8.749 16.78 10.433 C 17.292 9.653 17.631 8.798 17.056 7.337 C 22.128 12.681 17.784 14.644 19.972 19.66 Z M 13.867 16.48 C 10.69 22.851 15.545 24.738 17.009 23.243 C 18.974 21.237 15.939 19.613 16.793 15.864 C 15.98 16.655 15.735 18.663 15.902 20.032 C 15.568 19.93 13.864 18.849 13.867 16.48 Z M 9.138 20.926 C 9.025 13.704 11.504 15.564 9.138 10.864 C 9.82 14.627 6.697 13.737 9.138 20.926 Z M 20.848 18.274 C 20.98 15.669 23.048 14.892 20.682 12.19 C 21.364 14.354 19.536 15.439 20.848 18.274 Z M 15.087 18.143 C 15.406 14.468 18.123 15.198 16.572 12.671 C 16.071 15.078 13.834 14.687 15.087 18.143 Z M 12.143 11.154 C 12.311 12.222 12.192 12.875 11.098 14.551 C 11.906 11.194 9.077 11.616 11.913 6.859 C 11.484 9.322 11.917 9.719 12.143 11.154 Z"/>
</svg>
