<svg viewBox="0 0 25 40" xmlns="http://www.w3.org/2000/svg">
  <symbol id="marker" viewBox="0 0 27 42">
    <path d="m 13.499868,1.2022749 c -3.261461,0 -6.389625,1.521619 -8.6955659,4.231228 C 2.4979882,8.1430669 1.2022902,11.819054 1.2022902,15.650974 1.2209532,24.039941 13.410201,40.67089 13.410201,40.67089 c 0,0 12.452939,-15.064791 12.387247,-25.019916 0,-3.83192 -1.295698,-7.5079071 -3.602012,-10.2174711 -2.306314,-2.709609 -5.434105,-4.231228 -8.695568,-4.231228 z" style="stroke:#000000;stroke-width:1"/>
  </symbol>
  <symbol id="marker-other" viewBox="0 0 1000 1000">
    <circle cx="500" cy="500" r="500"/><path d="M500,682.5c41.394,0 75,33.606 75,75c0,41.394 -33.606,75 -75,75c-41.394,0 -75,-33.606 -75,-75c0,-41.394 33.606,-75 75,-75Zm30,-65c0,0 45,-247.5 45,-375c0,-41.394 -33.606,-75 -75,-75c-41.394,0 -75,33.606 -75,75c0,103.967 45,375 45,375c0,0 13.893,-4 30,-4c16.107,0 30,4 30,4Z" style="fill:#fff;"/>
  </symbol>
  <symbol id="marker-wildfires" viewBox="0 0 27 42">
    <path d="M 18.280975,17.7948 C 19.4536,20.483275 17.87275,24.072475 13.7599,24.050125 10.755625,24.033804 9.80625,22.1264 9.226475,21.0658 8.6467,20.0052 8.304925,17.042925 10.422725,14.07015 c 3.6021,-5.056275 -1.5535,-6.711775 2.692,-11.120375 -0.776025,2.2749 0.82315,4.353925 2.096475,5.973275 0.492225,-0.749925 0.818725,-1.5722 0.2662,-2.977175 4.875975,5.13915 0.7,7.026125 2.803575,11.848925 z M 12.4105,14.737325 c -3.0544,6.126025 1.6132,7.94065 3.021075,6.503475 1.8899,-1.929225 -1.029125,-3.49085 -0.20785,-7.09565 -0.781875,0.760775 -1.0166,2.691825 -0.8561,4.008025 C 14.045775,18.05445 12.408,17.01585 12.4105,14.737325 Z m -4.547,4.275125 c -0.108725,-6.94425 2.274775,-5.155975 0,-9.674875 0.6557,3.61845 -2.347325,2.76195 0,9.674875 z m 11.2593,-2.55 c 0.12715,-2.505225 2.115475,-3.251825 -0.1593,-5.849875 0.6557,2.080375 -1.102125,3.12405 0.1593,5.849875 z M 13.58385,16.3365 c 0.306875,-3.53365 2.919325,-2.83165 1.42735,-5.26145 -0.481225,2.314275 -2.632075,1.93855 -1.42735,5.26145 z m -2.8308,-6.720425 c 0.161825,1.02755 0.04692,1.65475 -1.004725,3.266825 0.7763,-3.22845 -1.9439,-2.821975 0.783875,-7.396175 -0.412675,2.367925 0.0036,2.7497 0.22085,4.12935 z" style="fill:#fff;" />
  </symbol>
  <symbol id="marker-sea-and-lake-ice" viewBox="0 0 27 42">
    <path d="m 19.5852,13.00217 c 0.05545,0.0116 0.11065,0.0178 0.1648,0.0178 0.208325,0 0.4326,-0.093 0.625,-0.22 C 20.583325,12.6625 21,12.25 21,12.25 c 0,0 0.416675,0.4125 0.625,0.55 0.1924,0.127 0.416675,0.22 0.625,0.22 0.208325,0 0.4326,-0.093 0.625,-0.22 0.208325,-0.1375 0.625,-0.55 0.625,-0.55 0,0 0.416675,0.4125 0.625,0.55 0.1893,0.12495 0.40945,0.217 0.6149,0.21993 0.0067,0.15919 0.0101,0.31925 0.0101,0.48007 0,6.20905 -5.04095,11.25 -11.25,11.25 C 7.29095,24.75 2.25,19.70905 2.25,13.5 2.25,13.33917 2.25337,13.17912 2.2601,13.01993 2.46555,13.01693 2.6857,12.92493 2.875,12.8 3.083325,12.6625 3.5,12.25 3.5,12.25 c 0,0 0.416675,0.4125 0.625,0.55 0.1924,0.127 0.416675,0.22 0.625,0.22 0.208325,0 0.4326,-0.093 0.625,-0.22 C 5.583325,12.6625 6,12.25 6,12.25 c 0,0 0.416675,0.4125 0.625,0.55 0.1924,0.127 0.416675,0.22 0.625,0.22 0.077125,0 0.156425,-0.0127 0.235475,-0.0353 l 1.30535,3.9698 2.475125,2.19412 0.888475,2.56003 0.920575,0.38057 0.119125,-0.9963 0.6691,2.50248 1.621425,-1.52365 0.928875,-1.94178 2.048625,-2.12777 z M 7.903,12.77432 C 8.0874,12.70765 8.5,12.25 8.5,12.25 c 0,0 0.416675,0.4125 0.625,0.55 0.1924,0.127 0.416675,0.22 0.625,0.22 0.208325,0 0.4326,-0.093 0.625,-0.22 C 10.583325,12.6625 11,12.25 11,12.25 c 0,0 0.416675,0.4125 0.625,0.55 0.1924,0.127 0.416675,0.22 0.625,0.22 0.208325,0 0.4326,-0.093 0.625,-0.22 0.208325,-0.1375 0.625,-0.55 0.625,-0.55 0,0 0.416675,0.4125 0.625,0.55 0.1924,0.127 0.416675,0.22 0.625,0.22 0.208325,0 0.4326,-0.093 0.625,-0.22 C 15.583325,12.6625 16,12.25 16,12.25 c 0,0 0.416675,0.4125 0.625,0.55 0.1924,0.127 0.416675,0.22 0.625,0.22 0.208325,0 0.4326,-0.093 0.625,-0.22 0.208325,-0.1375 0.625,-0.55 0.625,-0.55 0,0 0.448975,0.52093 0.675,0.575 l -1.12055,4.9704 -1.991225,2.01625 -0.9552,1.96502 -1.011425,0.96878 -0.98405,-3.42133 -0.362875,2.16908 -0.272325,-0.1356 -0.8669,-2.50088 -2.3954,-2.1291 z M 7.45,12.52 8.019575,10.7209 9.84045,9.63152 l 1.0989,-2.27717 2.909625,0.96425 1.3006,1.08695 2.001675,0.20373 0.7441,1.00082 1.398125,0.34315 L 19.575,12.52 c -0.341375,-0.0166 -0.576825,-0.3516 -1.075,-0.895 0,0 -0.691525,0.895 -1.25,0.895 -0.558475,0 -1.25,-0.895 -1.25,-0.895 0,0 -0.752225,0.895 -1.25,0.895 -0.497775,0 -1.25,-0.895 -1.25,-0.895 0,0 -0.6962,0.895 -1.25,0.895 -0.5538,0 -1.25,-0.895 -1.25,-0.895 0,0 -0.640175,0.895 -1.25,0.895 -0.609825,0 -1.25,-0.895 -1.25,-0.895 -0.32605,0.43137 -0.49825,0.66965 -1.05,0.895 z" style="fill:#ffffff;"/>
  </symbol>
  <symbol id="marker-severe-storms" viewBox="0 0 27 42">
    <path d="m 7.42335,13.891975 c -0.0107,0.0011 -2.70175,0.27635 -2.530925,-2.13735 0.0553,-0.7814 0.92555,-1.54305 1.4551,-1.464725 C 6.0927,9.87865 6.299975,8.404325 7.9979,7.75295 c 0.8646,-0.331675 2.30885,-0.516225 3.953325,0.2926 0,0 -0.331625,-0.500525 -1.0817,-0.693625 C 11.75835,5.068175 17.4707,5.7631 17.52465,6.87625 17.5681,6.543325 17.376675,6.2552 16.9292,6.118025 c 1.07105,-0.528075 4.0505,1.16485 3.219725,3.596875 1.536225,-0.297625 2.55255,2.13635 1.16695,2.9678 0.0025,-0.3583 -0.182425,-0.6097 -0.19905,-0.602175 0.2211,1.344075 -0.961625,1.809 -0.9679,1.81145 h -5.0941 L 14.3933,15.246 l 1.981475,0.3704 -5.1199,6.96665 2.5558,-5.729675 -1.73195,-0.3553 0.9634,-2.6061 z m 10.1013,-3.95735 c -0.224175,-0.92355 -1.423375,-2.22265 -3.054325,-1.1238 1.72085,-0.51535 3.13895,0.770225 2.653725,2.69965 0.2779,-0.39785 0.45005,-0.786975 0.4256,-1.175025 1.399075,0.280875 1.3953,1.524 0.89395,2.34725 0.88195,-0.6189 0.79275,-2.5295 -0.91895,-2.748075 z M 10.507775,9.99245 c -0.99885,-1.443175 -4.096425,-0.015675 -2.4079,2.3464 -0.73305,-2.3164 1.613675,-3.1117 2.4079,-2.3464 z" style="fill:#ffffff;"/>
  </symbol>
  <symbol id="marker-volcanoes" viewBox="0 0 27 42">
    <path d="m 23.0669,19.365575 c -1.9846,3.19905 -5.528725,5.3313 -9.5669,5.3313 -4.053625,0 -7.609375,-2.148575 -9.589575,-5.36805 L 10.45,10.29425 c 2.042775,0.965425 3.9153,0.95125 5.625,0 z m -6.928725,-5.5777 c 0,0 1.588875,5.07885 2.43745,7.18805 0.08688,0.2159 0.332675,0.32065 0.54855,0.2338 0.2159,-0.08687 0.32065,-0.33265 0.2338,-0.54855 -0.8486,-2.1092 -3.2198,-6.8733 -3.2198,-6.8733 z M 10.054675,13.5 c 0,0 -2.500475,3.38255 -3.416775,4.924525 -0.118875,0.20005 -0.052975,0.458975 0.147075,0.57785 0.200075,0.1189 0.459,0.05297 0.577875,-0.147075 C 8.279125,17.313325 10.054675,13.5 10.054675,13.5 Z m 4.45575,-0.7636 c 0,0 -0.01107,3.11865 0.150175,4.434875 0.0262,0.213775 0.221,0.36605 0.434775,0.339875 0.21375,-0.0262 0.36605,-0.221 0.33985,-0.434775 -0.16125,-1.316225 -0.9248,-4.339975 -0.9248,-4.339975 z M 13.5,10.29425 C 13.396775,8.4999 13.4942,6.624025 14.143925,4.545575 l 0.396875,0.0875 C 13.79645,6.743525 13.590575,8.53115 13.5,10.29425 Z M 11.727625,9.663475 C 10.96755,8.36985 10.28575,7.5404 8.9089,6.3291 L 9.16665,6.057125 c 1.177175,1.099625 1.98125,2.31745 2.560975,3.60635 z m 3.4172,-0.03165 c 0.08545,-1.36485 0.45775,-2.60165 1.42065,-3.5747 l 0.2981,0.28605 c -0.978725,0.7328 -1.41315,1.878275 -1.71875,3.28865 z M 8.910175,5.010075 7.8962,4.583075 7.4403,4.71645 7.310275,5.668425 7.585625,5.7422 7.955975,6.542775 8.387625,6.477275 9.0283,5.443625 Z m 8.5757,1.4391 L 18.54455,6.175025 19.115,5.48955 18.467425,4.70945 17.76095,4.793875 16.950575,4.6592 l -0.3476,0.9225 z m -1.8539,-2.56005 -0.09505,-0.56945 -0.8522,-0.685975 -0.4593,0.123175 -0.59835,0.39535 0.16665,0.836875 1.409875,0.432175 z" style="fill:#ffffff;"/>
  </symbol>
</svg>
