<svg viewBox="0 0 30 35" xmlns="http://www.w3.org/2000/svg">
  <symbol id="marker" viewBox="0 0 30 35">
    <title>Event</title>
    <path d="M 24.911 5.317 C 19.439 -0.155 10.597 -0.11 5.124 5.362 C -0.349 10.834 -0.387 19.696 5.084 25.169 L 14.973 35 L 24.88 25.091 C 30.353 19.618 30.383 10.791 24.911 5.317 Z" style="fill: rgb(255, 255, 255); stroke: rgb(0, 0, 0); stroke-width: 0.25;"/>
    <circle cx="15" cy="15.25" r="13"/>
  </symbol>
  <symbol id="default" viewBox="0 0 30 35">
    <title>Event</title>
    <path fill="#FFFFFF" d="M 15 20.465 C 16.076 20.465 16.95 21.339 16.95 22.415 C 16.95 23.491 16.076 24.365 15 24.365 C 13.924 24.365 13.05 23.491 13.05 22.415 C 13.05 21.339 13.924 20.465 15 20.465 Z M 15.78 18.775 C 15.78 18.775 16.95 12.34 16.95 9.025 C 16.95 7.949 16.076 7.075 15 7.075 C 13.924 7.075 13.05 7.949 13.05 9.025 C 13.05 11.728 14.22 18.775 14.22 18.775 C 14.22 18.775 14.581 18.671 15 18.671 C 15.419 18.671 15.78 18.775 15.78 18.775 Z"/>
  </symbol>
  <symbol id="dust-and-haze" viewBox="0 0 30 35">
    <title>Dust and Haze</title>
    <path fill="#FFFFFF" d="M 25.387 19.933 C 23.578 23.882 19.589 26.629 14.964 26.629 C 10.34 26.629 6.35 23.882 4.542 19.933 L 25.387 19.933 Z M 16.195 19.049 C 11.75 19.053 6.904 19.06 6.904 19.06 C 11.995 18.354 11.425 15.646 15.08 17.179 C 13.511 15.543 16.769 13.02 19.047 14.701 C 18.69 14.077 17.611 13.686 16.669 13.97 C 15.949 12.812 17.864 10.749 19.774 11.654 C 23.179 10.609 24.622 13.446 24.521 14.282 C 26.576 15.326 25.001 19.085 23.407 19.053 C 23.102 19.046 20.477 19.046 17.407 19.048 C 17.337 19.057 17.267 19.061 17.197 19.06 C 17.052 19.056 16.699 19.053 16.195 19.049 L 16.195 19.049 Z M 6.93 17.501 C 4.82 15.278 9.241 11.876 12.321 14.16 C 11.839 13.315 10.378 12.78 9.101 13.162 C 8.128 11.589 11.403 9.402 13.319 10.799 C 14.563 9.091 17.571 9.355 18.228 10.865 C 17.157 10.726 15.315 11.914 15.804 13.869 C 14.975 14.076 13.969 14.852 14.061 16.228 C 10.992 15.295 10.904 18.648 4.5 19.005 C 6.229 18.637 6.895 17.577 6.93 17.501 L 6.93 17.501 Z M 11.005 18.214 C 11.146 18.214 11.26 18.328 11.26 18.468 C 11.26 18.609 11.146 18.723 11.005 18.723 C 10.864 18.723 10.751 18.609 10.751 18.468 C 10.751 18.328 10.864 18.214 11.005 18.214 Z M 5.011 17.985 C 5.151 17.985 5.266 18.099 5.266 18.24 C 5.266 18.38 5.151 18.494 5.011 18.494 C 4.87 18.494 4.756 18.38 4.756 18.24 C 4.756 18.099 4.87 17.985 5.011 17.985 Z M 11.693 17.679 C 11.834 17.679 11.947 17.793 11.947 17.934 C 11.947 18.074 11.834 18.189 11.693 18.189 C 11.552 18.189 11.438 18.074 11.438 17.934 C 11.438 17.793 11.552 17.679 11.693 17.679 Z M 6.131 17.222 C 6.271 17.222 6.386 17.337 6.386 17.477 C 6.386 17.618 6.271 17.731 6.131 17.731 C 5.99 17.731 5.877 17.618 5.877 17.477 C 5.877 17.337 5.99 17.222 6.131 17.222 Z M 6.93 17.501 L 6.934 17.506 C 6.932 17.499 6.932 17.498 6.93 17.501 Z M 15.838 16.594 C 15.978 16.594 16.093 16.707 16.093 16.848 C 16.093 16.989 15.978 17.103 15.838 17.103 C 15.697 17.103 15.584 16.989 15.584 16.848 C 15.584 16.707 15.697 16.594 15.838 16.594 Z M 5.571 16.56 C 5.711 16.56 5.826 16.675 5.826 16.815 C 5.826 16.956 5.711 17.069 5.571 17.069 C 5.43 17.069 5.317 16.956 5.317 16.815 C 5.317 16.675 5.43 16.56 5.571 16.56 Z M 23.291 14.567 C 24.423 14.823 25.068 16.145 24.335 17.017 C 24.749 15.782 23.492 14.317 21.743 14.804 C 22.199 14.474 22.604 14.439 22.935 14.5 C 22.718 13.405 21.477 13.379 20.624 13.715 C 21.418 12.797 23.152 13.234 23.291 14.567 L 23.291 14.567 Z M 7.235 16.381 C 7.375 16.381 7.49 16.495 7.49 16.636 C 7.49 16.776 7.375 16.889 7.235 16.889 C 7.094 16.889 6.981 16.776 6.981 16.636 C 6.981 16.495 7.094 16.381 7.235 16.381 Z M 15.494 15.75 C 15.635 15.75 15.748 15.864 15.748 16.005 C 15.748 16.145 15.635 16.259 15.494 16.259 C 15.354 16.259 15.239 16.145 15.239 16.005 C 15.239 15.864 15.354 15.75 15.494 15.75 Z M 16.246 15.288 C 16.386 15.288 16.5 15.403 16.5 15.543 C 16.5 15.684 16.386 15.797 16.246 15.797 C 16.105 15.797 15.991 15.684 15.991 15.543 C 15.991 15.403 16.105 15.288 16.246 15.288 Z M 8.052 14.567 C 8.193 14.567 8.306 14.681 8.306 14.821 C 8.306 14.962 8.193 15.076 8.052 15.076 C 7.911 15.076 7.797 14.962 7.797 14.821 C 7.797 14.681 7.911 14.567 8.052 14.567 Z M 8.739 14.038 C 8.88 14.038 8.994 14.152 8.994 14.293 C 8.994 14.433 8.88 14.548 8.739 14.548 C 8.598 14.548 8.485 14.433 8.485 14.293 C 8.485 14.152 8.598 14.038 8.739 14.038 Z M 7.619 13.282 C 7.76 13.282 7.874 13.397 7.874 13.537 C 7.874 13.678 7.76 13.791 7.619 13.791 C 7.478 13.791 7.364 13.678 7.364 13.537 C 7.364 13.397 7.478 13.282 7.619 13.282 Z M 17.396 12.907 C 17.537 12.907 17.651 13.021 17.651 13.162 C 17.651 13.302 17.537 13.417 17.396 13.417 C 17.255 13.417 17.141 13.302 17.141 13.162 C 17.141 13.021 17.255 12.907 17.396 12.907 Z M 8.357 12.786 C 8.498 12.786 8.612 12.9 8.612 13.04 C 8.612 13.181 8.498 13.295 8.357 13.295 C 8.216 13.295 8.103 13.181 8.103 13.04 C 8.103 12.9 8.216 12.786 8.357 12.786 Z M 17.999 12.231 C 18.139 12.231 18.253 12.344 18.253 12.485 C 18.253 12.625 18.139 12.74 17.999 12.74 C 17.858 12.74 17.744 12.625 17.744 12.485 C 17.744 12.344 17.858 12.231 17.999 12.231 Z M 9.732 12.154 C 9.873 12.154 9.987 12.268 9.987 12.409 C 9.987 12.549 9.873 12.664 9.732 12.664 C 9.591 12.664 9.478 12.549 9.478 12.409 C 9.478 12.268 9.591 12.154 9.732 12.154 Z M 10.853 12.154 C 10.993 12.154 11.107 12.268 11.107 12.409 C 11.107 12.549 10.993 12.664 10.853 12.664 C 10.712 12.664 10.598 12.549 10.598 12.409 C 10.598 12.268 10.712 12.154 10.853 12.154 Z M 10.292 11.442 C 10.433 11.442 10.547 11.555 10.547 11.696 C 10.547 11.836 10.433 11.951 10.292 11.951 C 10.151 11.951 10.038 11.836 10.038 11.696 C 10.038 11.555 10.151 11.442 10.292 11.442 Z"/>
  </symbol>
  <symbol id="icebergs" viewBox="0 0 30 35">
    <title>Icebergs</title>
    <path fill="#FFFFFF" d="M 21.329 14.657 C 21.386 14.669 21.444 14.676 21.5 14.676 C 21.717 14.676 21.95 14.579 22.15 14.447 C 22.367 14.304 22.8 13.875 22.8 13.875 C 22.8 13.875 23.233 14.304 23.45 14.447 C 23.65 14.579 23.883 14.676 24.1 14.676 C 24.317 14.676 24.55 14.579 24.75 14.447 C 24.967 14.304 25.4 13.875 25.4 13.875 C 25.4 13.875 25.833 14.304 26.05 14.447 C 26.247 14.577 26.476 14.673 26.689 14.676 C 26.696 14.841 26.7 15.008 26.7 15.175 C 26.7 21.632 21.457 26.875 15 26.875 C 8.543 26.875 3.3 21.632 3.3 15.175 C 3.3 15.008 3.304 14.841 3.311 14.676 C 3.524 14.673 3.753 14.577 3.95 14.447 C 4.167 14.304 4.6 13.875 4.6 13.875 C 4.6 13.875 5.033 14.304 5.25 14.447 C 5.45 14.579 5.683 14.676 5.9 14.676 C 6.117 14.676 6.35 14.579 6.55 14.447 C 6.767 14.304 7.2 13.875 7.2 13.875 C 7.2 13.875 7.633 14.304 7.85 14.447 C 8.05 14.579 8.283 14.676 8.5 14.676 C 8.58 14.676 8.663 14.663 8.745 14.639 L 10.102 18.768 L 12.677 21.05 L 13.601 23.712 L 14.558 24.108 L 14.682 23.072 L 15.378 25.674 L 17.064 24.09 L 18.03 22.07 L 20.161 19.857 L 21.329 14.657 L 21.329 14.657 Z M 9.179 14.42 C 9.371 14.351 9.8 13.875 9.8 13.875 C 9.8 13.875 10.233 14.304 10.45 14.447 C 10.65 14.579 10.883 14.676 11.1 14.676 C 11.317 14.676 11.55 14.579 11.75 14.447 C 11.967 14.304 12.4 13.875 12.4 13.875 C 12.4 13.875 12.833 14.304 13.05 14.447 C 13.25 14.579 13.483 14.676 13.7 14.676 C 13.917 14.676 14.15 14.579 14.35 14.447 C 14.567 14.304 15 13.875 15 13.875 C 15 13.875 15.433 14.304 15.65 14.447 C 15.85 14.579 16.083 14.676 16.3 14.676 C 16.517 14.676 16.75 14.579 16.95 14.447 C 17.167 14.304 17.6 13.875 17.6 13.875 C 17.6 13.875 18.033 14.304 18.25 14.447 C 18.45 14.579 18.683 14.676 18.9 14.676 C 19.117 14.676 19.35 14.579 19.55 14.447 C 19.767 14.304 20.2 13.875 20.2 13.875 C 20.2 13.875 20.667 14.417 20.902 14.473 L 19.737 19.642 L 17.666 21.739 L 16.672 23.783 L 15.62 24.79 L 14.597 21.232 L 14.22 23.488 L 13.936 23.347 L 13.035 20.746 L 10.544 18.532 L 9.179 14.42 L 9.179 14.42 Z M 8.708 14.156 L 9.3 12.285 L 11.194 11.152 L 12.337 8.784 L 15.363 9.786 L 16.716 10.917 L 18.797 11.129 L 19.571 12.17 L 21.025 12.526 L 21.318 14.156 C 20.963 14.139 20.718 13.79 20.2 13.225 C 20.2 13.225 19.481 14.156 18.9 14.156 C 18.319 14.156 17.6 13.225 17.6 13.225 C 17.6 13.225 16.818 14.156 16.3 14.156 C 15.782 14.156 15 13.225 15 13.225 C 15 13.225 14.276 14.156 13.7 14.156 C 13.124 14.156 12.4 13.225 12.4 13.225 C 12.4 13.225 11.734 14.156 11.1 14.156 C 10.466 14.156 9.8 13.225 9.8 13.225 C 9.461 13.674 9.282 13.921 8.708 14.156 L 8.708 14.156 Z"/>
  </symbol>
  <symbol id="manmade" viewBox="0 0 30 35">
    <title>Manmade</title>
    <path fill="#FFFFFF" d="M 5.105 21.441 C 8.024 21.213 12.333 20.918 15 20.918 C 17.667 20.918 21.976 21.213 24.895 21.441 C 22.821 24.719 19.163 26.898 15 26.898 C 10.837 26.898 7.179 24.719 5.105 21.441 L 5.105 21.441 Z M 20.821 5.048 C 22.15 5.813 23.316 6.831 24.251 8.037 L 20.514 11.883 C 20.973 15.661 18.934 16.084 17.72 18.625 C 17.558 18.963 16.764 18.408 17.418 17.037 C 17.908 16.008 19.023 15.174 18.138 14.414 C 18.006 14.3 17.331 14.09 16.099 14.698 C 14.031 15.719 12.898 17.611 12.192 18.443 C 11.764 18.948 11.177 18.547 11.501 17.619 C 11.704 17.038 13.617 14.468 15.142 13.64 C 12.74 14.319 11.135 16.522 10.728 17.105 C 10.053 18.071 9.339 17.33 9.886 16.346 C 10.31 15.584 11.242 14.092 14.154 12.431 C 11.969 13.005 10.476 14.817 10.083 15.24 C 9.271 16.113 8.765 15.288 9.413 14.416 C 9.813 13.877 10.647 12.674 12.913 11.551 C 12.099 11.674 10.739 12.298 9.715 13.47 C 9.077 14.2 8.532 13.654 9.204 12.759 C 10.747 10.705 15.067 9.475 16.776 9.178 C 17.442 9.063 19.133 7.154 20.821 5.048 L 20.821 5.048 Z"/>
  </symbol>
  <symbol id="sea-and-lake-ice" viewBox="0 0 30 35">
    <title>Sea and Lake Ice</title>
    <path fill="#FFFFFF" d="M 11.641 23.609 L 11.245 24.885 L 11.701 26.39 L 13.002 24.575 L 11.641 23.609 L 11.641 23.609 Z M 18.568 22.107 L 16.605 22.71 L 17.528 25.386 L 19.05 25.737 L 20.137 23.262 L 18.568 22.107 Z M 8.787 24.384 L 10.402 25.113 L 11.232 23.618 L 10.142 23.36 L 9.516 23.483 L 8.787 24.384 L 8.787 24.384 Z M 11.179 22.748 L 13.619 24.52 L 15.875 24.737 L 15.818 22.273 L 13.375 21.542 L 12.029 20.666 L 11.179 22.748 L 11.179 22.748 Z M 22.379 24.289 L 21.471 24.125 L 22.262 20.892 L 23.445 23.173 L 23.439 23.313 C 23.106 23.659 22.752 23.985 22.379 24.289 Z M 21.807 20.571 L 23.736 18.304 L 20.548 19.043 L 18.649 21.498 L 20.997 23.256 L 21.807 20.571 L 21.807 20.571 Z M 10.815 21.302 L 9.727 22.36 L 9.199 23.164 L 10.954 23.163 L 10.815 21.302 L 10.815 21.302 Z M 10.215 21.2 L 7.949 20.559 L 6.99 22.72 L 9.377 22.244 L 10.215 21.2 Z M 13.825 21.428 L 17.132 22.182 L 18.662 20.696 L 17.169 17.634 L 14.709 18.503 L 13.825 21.428 L 13.825 21.428 Z M 26.233 18.493 C 25.899 19.638 25.394 20.711 24.748 21.682 L 23.408 21.986 L 22.575 20.602 L 26.233 18.493 L 26.233 18.493 Z M 5.256 19.2 L 6.932 21.526 L 9.503 18.123 L 7.768 17.421 L 5.94 17.599 L 5.256 19.2 L 5.256 19.2 Z M 9.003 19.784 L 11.294 21.109 L 12.976 18.614 L 13.578 15.739 L 11.678 15.332 L 10.342 17.179 L 9.003 19.784 L 9.003 19.784 Z M 13.414 21.056 L 14.295 18.76 L 13.164 18.957 L 12.513 20.467 L 13.414 21.056 Z M 8.112 20.308 L 10.286 21.056 L 8.612 19.741 L 8.112 20.308 L 8.112 20.308 Z M 16.021 15.165 C 16.114 15.195 16.209 15.212 16.3 15.212 C 16.517 15.212 16.75 15.115 16.95 14.983 C 17.167 14.84 17.6 14.411 17.6 14.411 C 17.6 14.411 18.033 14.84 18.25 14.983 C 18.45 15.115 18.683 15.212 18.9 15.212 C 19.117 15.212 19.35 15.115 19.55 14.983 C 19.767 14.84 20.2 14.411 20.2 14.411 C 20.2 14.411 20.207 14.418 20.219 14.43 L 20.411 18.196 L 19.156 20.369 L 17.258 17.297 L 15.724 16.246 L 16.021 15.165 L 16.021 15.165 Z M 22.556 20.172 L 25.456 18.749 L 25.987 17.859 L 23.995 18.373 L 22.556 20.172 L 22.556 20.172 Z M 4.43 14.575 L 4.219 15.172 L 4.797 17.995 L 4.295 19.937 C 3.655 18.491 3.3 16.893 3.3 15.212 C 3.3 15.122 3.301 15.032 3.303 14.942 C 3.305 15.032 3.308 15.122 3.312 15.212 C 3.525 15.208 3.754 15.113 3.95 14.983 C 4.079 14.898 4.284 14.712 4.43 14.575 L 4.43 14.575 Z M 23.618 16.536 L 20.701 17.215 L 20.548 18.749 L 23.447 18.021 L 23.618 16.536 L 23.618 16.536 Z M 13.402 18.591 L 16.939 17.506 L 15 16.098 L 13.828 16.128 L 13.402 18.591 L 13.402 18.591 Z M 26.658 16.215 C 26.622 16.638 26.563 17.056 26.483 17.465 L 24.076 17.94 L 23.688 17.551 L 23.985 16.686 L 26.614 16.079 L 26.658 16.215 Z M 5.636 15.17 C 5.725 15.197 5.814 15.212 5.9 15.212 C 6.117 15.212 6.35 15.115 6.55 14.983 C 6.767 14.84 7.2 14.411 7.2 14.411 C 7.2 14.411 7.633 14.84 7.85 14.983 C 8.05 15.115 8.283 15.212 8.5 15.212 C 8.717 15.212 8.95 15.115 9.15 14.983 C 9.367 14.84 9.8 14.411 9.8 14.411 C 9.8 14.411 10.233 14.84 10.45 14.983 C 10.65 15.115 10.883 15.212 11.1 15.212 C 11.187 15.212 11.277 15.196 11.366 15.169 L 11.335 15.212 L 7.5 16.194 L 5.181 17.752 L 5.521 15.595 L 5.636 15.17 L 5.636 15.17 Z M 10.96 15.793 L 8.295 17.214 L 9.305 17.651 L 10.96 15.793 Z M 6.429 17.171 L 7.847 17.054 L 9.786 15.932 L 7.489 16.478 L 6.429 17.171 Z M 4.685 14.494 C 4.823 14.626 5.093 14.88 5.25 14.983 C 5.303 15.018 5.358 15.051 5.415 15.079 L 4.984 16.972 L 4.451 15.16 L 4.685 14.494 Z M 20.496 14.691 C 20.619 14.804 20.755 14.921 20.85 14.983 C 20.895 15.013 20.942 15.041 20.99 15.066 L 20.977 16.138 L 20.655 16.833 L 20.496 14.691 L 20.496 14.691 Z M 21.156 15.142 C 21.27 15.186 21.387 15.212 21.5 15.212 C 21.717 15.212 21.95 15.115 22.15 14.983 C 22.367 14.84 22.8 14.411 22.8 14.411 C 22.8 14.411 23.233 14.84 23.45 14.983 C 23.65 15.115 23.883 15.212 24.1 15.212 C 24.317 15.212 24.55 15.115 24.75 14.983 C 24.967 14.84 25.4 14.411 25.4 14.411 C 25.4 14.411 25.833 14.84 26.05 14.983 C 26.191 15.077 26.349 15.152 26.506 15.189 L 23.897 16.206 L 21.259 16.727 L 21.156 15.142 L 21.156 15.142 Z M 23.985 16.437 L 26.258 15.98 L 26.233 15.601 L 23.985 16.437 Z M 15.378 14.765 C 15.476 14.852 15.576 14.934 15.65 14.983 C 15.701 15.017 15.754 15.048 15.808 15.076 L 15.429 15.872 L 14.212 15.832 L 15.378 14.765 L 15.378 14.765 Z M 11.731 14.996 C 11.737 14.992 11.744 14.987 11.75 14.983 C 11.967 14.84 12.4 14.411 12.4 14.411 C 12.4 14.411 12.833 14.84 13.05 14.983 C 13.25 15.115 13.483 15.212 13.7 15.212 C 13.917 15.212 14.15 15.115 14.35 14.983 C 14.567 14.84 15 14.411 15 14.411 C 15 14.411 15.06 14.47 15.146 14.552 L 14.467 15.212 L 13.96 15.555 L 11.731 14.996 L 11.731 14.996 Z M 26.697 14.942 C 26.698 14.999 26.699 15.056 26.7 15.113 L 26.692 15.116 C 26.694 15.058 26.696 15 26.697 14.942 L 26.697 14.942 Z" style="alignment-baseline : initial;"/>
  </symbol>
  <symbol id="severe-storms" viewBox="0 0 30 35">
    <title>Severe Storms</title>
    <path fill="#FFFFFF" d="M 8.755 16.553 C 8.744 16.554 5.945 16.84 6.123 14.33 C 6.181 13.517 7.086 12.725 7.636 12.806 C 7.371 12.379 7.587 10.845 9.353 10.168 C 10.252 9.823 11.754 9.631 13.464 10.472 C 13.464 10.472 13.119 9.952 12.339 9.751 C 13.264 7.376 19.205 8.099 19.261 9.256 C 19.306 8.91 19.107 8.61 18.641 8.468 C 19.755 7.919 22.854 9.679 21.99 12.208 C 23.588 11.899 24.645 14.43 23.204 15.295 C 23.206 14.922 23.014 14.661 22.996 14.669 C 23.226 16.067 21.996 16.55 21.99 16.553 L 16.692 16.553 L 16.004 17.961 L 18.065 18.346 L 12.74 25.591 L 15.398 19.633 L 13.597 19.263 L 14.599 16.553 L 8.755 16.553 L 8.755 16.553 Z M 19.261 12.437 C 19.027 11.477 17.78 10.125 16.084 11.268 C 17.874 10.732 19.349 12.069 18.844 14.076 C 19.133 13.662 19.312 13.257 19.287 12.854 C 20.742 13.146 20.738 14.439 20.216 15.295 C 21.134 14.651 21.041 12.664 19.261 12.437 Z M 11.963 12.497 C 10.924 10.996 7.703 12.481 9.459 14.937 C 8.696 12.528 11.137 11.701 11.963 12.497 L 11.963 12.497 Z"/>
  </symbol>
  <symbol id="snow" viewBox="0 0 30 35">
    <title>Snow</title>
    <path fill="#FFFFFF" d="M 24.111 20.073 C 24.111 20.073 24.287 20.317 24.094 20.652 C 23.9 20.986 23.602 20.955 23.602 20.955 C 23.347 20.929 22.956 20.802 22.734 20.674 L 21.037 19.695 C 20.816 19.566 20.688 19.663 20.754 19.912 L 21.01 20.868 C 21.077 21.115 21.098 21.526 21.057 21.778 C 21.057 21.778 21.009 22.075 20.636 22.175 C 20.264 22.275 20.073 22.043 20.073 22.043 C 19.911 21.843 19.726 21.477 19.66 21.23 L 19.04 18.922 C 18.974 18.674 18.738 18.366 18.515 18.238 L 18.05 17.969 C 17.828 17.841 17.465 17.841 17.243 17.969 L 16.104 18.627 C 15.882 18.755 15.7 19.07 15.7 19.326 L 15.7 19.885 C 15.7 20.142 15.848 20.5 16.029 20.681 L 17.705 22.357 C 17.886 22.538 18.109 22.883 18.2 23.123 C 18.2 23.123 18.309 23.404 18.035 23.677 C 17.761 23.95 17.481 23.843 17.481 23.843 C 17.241 23.751 16.896 23.529 16.715 23.347 L 16.029 22.66 C 15.847 22.479 15.7 22.54 15.7 22.797 L 15.7 24.735 C 15.7 24.992 15.613 25.393 15.509 25.627 C 15.509 25.627 15.386 25.901 15 25.901 C 14.613 25.901 14.491 25.627 14.491 25.627 C 14.386 25.393 14.3 24.992 14.3 24.735 L 14.3 22.797 C 14.3 22.54 14.152 22.479 13.97 22.66 L 13.284 23.347 C 13.102 23.529 12.759 23.751 12.518 23.843 C 12.518 23.843 12.238 23.95 11.965 23.677 C 11.691 23.404 11.798 23.123 11.798 23.123 C 11.89 22.883 12.113 22.538 12.295 22.357 L 13.97 20.681 C 14.152 20.5 14.3 20.142 14.3 19.885 L 14.3 19.326 C 14.3 19.07 14.118 18.755 13.896 18.627 L 12.757 17.969 C 12.536 17.841 12.172 17.841 11.95 17.969 L 11.484 18.238 C 11.262 18.366 11.026 18.674 10.959 18.922 L 10.341 21.23 C 10.274 21.477 10.088 21.843 9.926 22.043 C 9.926 22.043 9.736 22.274 9.364 22.175 C 8.99 22.075 8.943 21.778 8.943 21.778 C 8.902 21.526 8.923 21.115 8.989 20.868 L 9.246 19.912 C 9.312 19.663 9.184 19.566 8.962 19.695 L 7.266 20.674 C 7.043 20.802 6.654 20.929 6.398 20.955 C 6.398 20.955 6.098 20.986 5.906 20.652 C 5.714 20.317 5.888 20.073 5.888 20.073 C 6.039 19.866 6.343 19.591 6.565 19.462 L 8.239 18.496 C 8.461 18.368 8.44 18.209 8.193 18.143 L 7.273 17.896 C 7.026 17.83 6.661 17.643 6.461 17.482 C 6.461 17.482 6.229 17.292 6.328 16.919 C 6.412 16.607 6.695 16.4 7.004 16.4 C 7.063 16.4 7.388 16.478 7.635 16.545 L 9.906 17.153 C 10.154 17.219 10.539 17.169 10.76 17.041 L 11.25 16.758 C 11.472 16.63 11.654 16.315 11.654 16.058 L 11.654 14.744 C 11.654 14.487 11.472 14.172 11.25 14.044 L 10.797 13.783 C 10.575 13.655 10.191 13.604 9.944 13.67 L 7.635 14.289 C 7.388 14.355 6.977 14.376 6.725 14.335 C 6.725 14.335 6.428 14.288 6.328 13.914 C 6.228 13.542 6.461 13.352 6.461 13.352 C 6.661 13.19 7.026 13.004 7.273 12.937 L 8.229 12.681 C 8.478 12.614 8.499 12.455 8.276 12.328 L 6.565 11.339 C 6.343 11.211 6.038 10.936 5.888 10.729 C 5.888 10.729 5.713 10.485 5.905 10.151 C 6.036 9.926 6.27 9.8 6.512 9.8 C 6.63 9.8 7.043 10 7.266 10.128 L 8.952 11.102 C 9.174 11.231 9.302 11.133 9.235 10.884 L 8.989 9.966 C 8.922 9.718 8.901 9.308 8.942 9.055 C 8.942 9.055 8.989 8.759 9.363 8.659 C 9.423 8.642 9.485 8.634 9.544 8.634 C 9.854 8.634 9.951 8.772 9.951 8.772 C 10.099 8.982 10.274 9.356 10.34 9.604 L 10.949 11.874 C 11.015 12.122 11.251 12.43 11.473 12.559 L 11.949 12.832 C 12.171 12.961 12.535 12.961 12.757 12.832 L 13.896 12.175 C 14.118 12.047 14.3 11.732 14.3 11.476 L 14.3 10.948 C 14.3 10.692 14.151 10.333 13.97 10.152 L 12.294 8.476 C 12.113 8.295 11.89 7.95 11.798 7.711 C 11.798 7.711 11.691 7.431 11.964 7.157 C 12.101 7.021 12.28 6.952 12.46 6.952 C 12.638 6.952 13.102 7.306 13.284 7.487 L 13.97 8.173 C 14.151 8.354 14.3 8.293 14.3 8.037 L 14.3 6.067 C 14.3 5.811 14.386 5.409 14.491 5.175 C 14.491 5.175 14.613 4.901 14.999 4.901 C 15.386 4.901 15.508 5.175 15.508 5.177 C 15.612 5.41 15.699 5.812 15.699 6.069 L 15.699 8.038 C 15.699 8.294 15.847 8.356 16.028 8.174 L 16.714 7.488 C 16.896 7.307 17.24 7.083 17.48 6.993 C 17.48 6.993 17.76 6.885 18.033 7.159 C 18.307 7.432 18.2 7.712 18.2 7.712 C 18.109 7.951 17.886 8.296 17.705 8.478 L 16.028 10.153 C 15.847 10.334 15.699 10.693 15.699 10.949 L 15.699 11.476 C 15.699 11.733 15.881 12.048 16.103 12.176 L 17.243 12.834 C 17.464 12.962 17.827 12.962 18.049 12.834 L 18.525 12.559 C 18.747 12.431 18.983 12.123 19.049 11.875 L 19.658 9.605 C 19.724 9.357 19.899 8.983 20.049 8.773 C 20.049 8.773 20.146 8.636 20.455 8.636 C 20.514 8.636 20.575 8.643 20.635 8.66 C 21.008 8.759 21.056 9.056 21.056 9.056 C 21.097 9.309 21.076 9.719 21.009 9.967 L 20.764 10.886 C 20.698 11.134 20.824 11.232 21.046 11.103 L 22.733 10.128 C 22.956 10.001 23.368 9.802 23.487 9.802 C 23.728 9.802 23.963 9.927 24.094 10.152 C 24.286 10.486 24.111 10.729 24.111 10.729 C 23.96 10.938 23.654 11.212 23.432 11.341 L 21.722 12.328 C 21.5 12.456 21.521 12.616 21.769 12.682 L 22.726 12.938 C 22.973 13.005 23.338 13.192 23.537 13.354 C 23.537 13.354 23.771 13.543 23.67 13.916 C 23.571 14.289 23.274 14.337 23.274 14.337 C 23.021 14.378 22.611 14.356 22.362 14.29 L 20.056 13.672 C 19.807 13.606 19.422 13.656 19.2 13.784 L 18.75 14.045 C 18.528 14.173 18.345 14.488 18.345 14.745 L 18.345 16.06 C 18.345 16.316 18.528 16.631 18.75 16.76 L 19.238 17.042 C 19.46 17.17 19.845 17.221 20.094 17.154 L 22.363 16.546 C 22.611 16.48 22.935 16.401 22.995 16.401 C 23.304 16.401 23.587 16.607 23.67 16.92 C 23.771 17.294 23.537 17.482 23.537 17.482 C 23.339 17.644 22.973 17.831 22.726 17.897 L 21.806 18.144 C 21.559 18.21 21.538 18.369 21.76 18.498 L 23.434 19.464 C 23.655 19.591 23.962 19.867 24.111 20.073 Z M 16.997 14.694 C 16.997 14.437 16.931 14.272 16.709 14.145 L 15.403 13.387 C 15.181 13.259 14.818 13.259 14.596 13.387 L 13.456 14.045 C 13.235 14.172 13.053 14.487 13.053 14.744 L 13.053 14.745 L 13.053 16.024 C 13.053 16.281 13.264 16.649 13.486 16.777 L 14.622 17.414 C 14.844 17.543 15.122 17.56 15.343 17.431 L 16.653 16.695 C 16.875 16.567 16.946 16.362 16.946 16.105 L 16.997 14.694 Z"/>
  </symbol>
  <symbol id="temperature-extremes" viewBox="0 0 30 35">
    <title>Temperature Extremes</title>
    <path fill="#FFFFFF" d="M 13.375 6.971 C 13.375 6.074 14.103 5.346 15 5.346 C 15.897 5.346 16.625 6.074 16.625 6.971 L 16.625 20.541 C 17.219 21.018 17.6 21.75 17.6 22.571 C 17.6 24.005 16.435 25.171 15 25.171 C 13.565 25.171 12.4 24.005 12.4 22.571 C 12.4 21.75 12.781 21.018 13.375 20.541 L 13.375 6.971 Z M 14.025 20.036 L 14.025 20.882 C 13.442 21.219 13.05 21.849 13.05 22.571 C 13.05 23.647 13.924 24.521 15 24.521 C 16.076 24.521 16.95 23.647 16.95 22.571 C 16.95 21.849 16.558 21.219 15.975 20.882 L 15.975 10.871 L 14.025 10.871 L 14.025 11.586 L 15 11.586 L 15 12.235 L 14.025 12.235 L 14.025 12.886 L 15 12.886 L 15 13.536 L 14.025 13.536 L 14.025 14.185 L 15 14.185 L 15 14.836 L 14.025 14.836 L 14.025 15.485 L 15 15.485 L 15 16.136 L 14.025 16.136 L 14.025 16.786 L 15 16.786 L 15 17.436 L 14.025 17.436 L 14.025 18.086 L 15 18.086 L 15 18.736 L 14.025 18.736 L 14.025 19.386 L 15 19.386 L 15 20.036 L 14.025 20.036 Z" style="alignment-baseline : initial;"/>
  </symbol>
  <symbol id="volcanoes" viewBox="0 0 30 35">
    <title>Volcanoes</title>
    <path fill="#FFFFFF" d="M 24.962 21.352 C 22.898 24.679 19.212 26.897 15.011 26.897 C 10.795 26.897 7.097 24.662 5.038 21.314 L 11.839 11.918 C 13.963 12.922 15.911 12.907 17.69 11.918 L 24.962 21.352 Z M 17.756 15.551 C 17.756 15.551 19.408 20.833 20.291 23.027 C 20.381 23.251 20.637 23.36 20.861 23.27 C 21.086 23.18 21.194 22.924 21.104 22.7 C 20.222 20.506 17.756 15.551 17.756 15.551 L 17.756 15.551 Z M 11.428 15.252 C 11.428 15.252 8.827 18.77 7.874 20.374 C 7.752 20.582 7.819 20.851 8.027 20.974 C 8.235 21.098 8.505 21.03 8.628 20.822 C 9.581 19.218 11.428 15.252 11.428 15.252 Z M 16.063 14.458 C 16.063 14.458 16.051 17.701 16.219 19.07 C 16.246 19.292 16.448 19.451 16.67 19.424 C 16.892 19.396 17.052 19.194 17.024 18.971 C 16.857 17.603 16.063 14.458 16.063 14.458 L 16.063 14.458 Z M 15.011 11.918 C 14.904 10.052 15.005 8.101 15.681 5.939 L 16.094 6.03 C 15.319 8.225 15.105 10.084 15.011 11.918 L 15.011 11.918 Z M 13.168 11.262 C 12.377 9.917 11.668 9.054 10.236 7.794 L 10.504 7.511 C 11.729 8.655 12.565 9.922 13.168 11.262 Z M 16.722 11.229 C 16.811 9.81 17.198 8.523 18.2 7.511 L 18.51 7.809 C 17.492 8.571 17.04 9.762 16.722 11.229 Z M 10.238 6.422 L 9.183 5.978 L 8.709 6.117 L 8.574 7.107 L 8.86 7.184 L 9.245 8.016 L 9.694 7.948 L 10.36 6.873 L 10.238 6.422 L 10.238 6.422 Z M 19.156 7.919 L 20.257 7.634 L 20.851 6.921 L 20.177 6.11 L 19.443 6.198 L 18.601 6.058 L 18.239 7.017 L 19.156 7.919 Z M 17.229 5.257 L 17.13 4.664 L 16.243 3.951 L 15.765 4.079 L 15.143 4.49 L 15.316 5.361 L 16.784 5.81 L 17.229 5.257 L 17.229 5.257 Z" style="alignment-baseline : initial;"/>
  </symbol>
  <symbol id="water-color" viewBox="0 0 30 35">
    <title>Water Color</title>
    <path fill="#FFFFFF" d="M 22.716 13.941 L 25.045 18.093 C 25.105 18.039 25.164 17.984 25.217 17.935 L 23.078 14.123 C 23.206 14.24 23.351 14.365 23.45 14.431 C 23.48 14.451 23.511 14.47 23.543 14.488 L 25.386 17.773 C 25.395 17.764 25.4 17.759 25.4 17.759 C 25.4 17.759 25.67 18.026 25.89 18.209 L 23.883 14.631 C 23.956 14.649 24.029 14.66 24.1 14.66 C 24.119 14.66 24.139 14.659 24.158 14.658 L 26.249 18.385 C 24.847 23.276 20.339 26.859 15 26.859 C 9.494 26.859 4.871 23.047 3.628 17.92 L 3.882 18.373 C 3.905 18.36 3.928 18.346 3.95 18.331 C 3.985 18.308 4.026 18.277 4.069 18.242 L 3.475 17.183 C 3.439 16.976 3.408 16.766 3.383 16.555 L 4.245 18.093 C 4.305 18.039 4.364 17.984 4.417 17.935 L 3.33 15.998 C 3.318 15.829 3.309 15.66 3.305 15.489 L 4.586 17.773 C 4.595 17.764 4.6 17.759 4.6 17.759 C 4.6 17.759 4.87 18.026 5.09 18.209 L 3.301 15.019 C 3.302 14.899 3.305 14.779 3.311 14.66 C 3.326 14.659 3.342 14.659 3.358 14.658 L 5.494 18.465 C 5.596 18.509 5.701 18.541 5.804 18.554 L 3.591 14.609 C 3.662 14.586 3.732 14.555 3.8 14.519 L 6.058 18.544 C 6.132 18.53 6.207 18.506 6.28 18.476 L 3.994 14.4 C 4.047 14.361 4.109 14.311 4.173 14.256 L 6.482 18.373 C 6.505 18.36 6.528 18.346 6.55 18.331 C 6.585 18.308 6.626 18.277 6.669 18.242 L 4.346 14.101 C 4.411 14.041 4.471 13.984 4.516 13.941 L 6.845 18.093 C 6.905 18.039 6.964 17.984 7.017 17.935 L 4.878 14.123 C 5.006 14.24 5.151 14.365 5.25 14.431 C 5.28 14.451 5.311 14.47 5.343 14.488 L 7.186 17.773 C 7.195 17.764 7.2 17.759 7.2 17.759 C 7.2 17.759 7.47 18.026 7.69 18.209 L 5.683 14.631 C 5.756 14.649 5.829 14.66 5.9 14.66 C 5.919 14.66 5.939 14.659 5.958 14.658 L 8.094 18.465 C 8.196 18.509 8.301 18.541 8.404 18.554 L 6.191 14.609 C 6.262 14.586 6.332 14.555 6.4 14.519 L 8.658 18.544 C 8.732 18.53 8.807 18.506 8.88 18.476 L 6.594 14.4 C 6.647 14.361 6.709 14.311 6.773 14.256 L 9.082 18.373 C 9.105 18.36 9.128 18.346 9.15 18.331 C 9.185 18.308 9.226 18.277 9.269 18.242 L 6.946 14.101 C 7.011 14.041 7.071 13.984 7.116 13.941 L 9.445 18.093 C 9.505 18.039 9.564 17.984 9.617 17.935 L 7.478 14.123 C 7.606 14.24 7.751 14.365 7.85 14.431 C 7.88 14.451 7.911 14.47 7.943 14.488 L 9.786 17.773 C 9.795 17.764 9.8 17.759 9.8 17.759 C 9.8 17.759 10.07 18.026 10.29 18.209 L 8.283 14.631 C 8.356 14.649 8.429 14.66 8.5 14.66 C 8.519 14.66 8.539 14.659 8.558 14.658 L 10.694 18.465 C 10.796 18.509 10.901 18.541 11.004 18.554 L 8.791 14.609 C 8.862 14.586 8.932 14.555 9 14.519 L 11.258 18.544 C 11.332 18.53 11.407 18.506 11.48 18.476 L 9.194 14.4 C 9.247 14.361 9.309 14.311 9.373 14.256 L 11.682 18.373 C 11.705 18.36 11.728 18.346 11.75 18.331 C 11.785 18.308 11.826 18.277 11.869 18.242 L 9.546 14.101 C 9.611 14.041 9.671 13.984 9.716 13.941 L 12.045 18.093 C 12.105 18.039 12.164 17.984 12.217 17.935 L 10.078 14.123 C 10.206 14.24 10.351 14.365 10.45 14.431 C 10.48 14.451 10.511 14.47 10.543 14.488 L 12.386 17.773 C 12.395 17.764 12.4 17.759 12.4 17.759 C 12.4 17.759 12.67 18.026 12.89 18.209 L 10.883 14.631 C 10.956 14.649 11.029 14.66 11.1 14.66 C 11.119 14.66 11.139 14.659 11.158 14.658 L 13.294 18.465 C 13.396 18.509 13.501 18.541 13.604 18.554 L 11.391 14.609 C 11.462 14.586 11.532 14.555 11.6 14.519 L 13.858 18.544 C 13.932 18.53 14.007 18.506 14.08 18.476 L 11.794 14.4 C 11.847 14.361 11.909 14.311 11.973 14.256 L 14.282 18.373 C 14.305 18.36 14.328 18.346 14.35 18.331 C 14.385 18.308 14.426 18.277 14.469 18.242 L 12.146 14.101 C 12.211 14.041 12.271 13.984 12.316 13.941 L 14.645 18.093 C 14.705 18.039 14.764 17.984 14.817 17.935 L 12.678 14.123 C 12.806 14.24 12.951 14.365 13.05 14.431 C 13.08 14.451 13.111 14.47 13.143 14.488 L 14.986 17.773 C 14.995 17.764 15 17.759 15 17.759 C 15 17.759 15.27 18.026 15.49 18.209 L 13.483 14.631 C 13.556 14.649 13.629 14.66 13.7 14.66 C 13.719 14.66 13.739 14.659 13.758 14.658 L 15.894 18.465 C 15.996 18.509 16.101 18.541 16.204 18.554 L 13.991 14.609 C 14.062 14.586 14.132 14.555 14.2 14.519 L 16.458 18.544 C 16.532 18.53 16.607 18.506 16.68 18.476 L 14.394 14.4 C 14.447 14.361 14.509 14.311 14.573 14.256 L 16.882 18.373 C 16.905 18.36 16.928 18.346 16.95 18.331 C 16.985 18.308 17.026 18.277 17.069 18.242 L 14.746 14.101 C 14.811 14.041 14.871 13.984 14.916 13.941 L 17.245 18.093 C 17.305 18.039 17.364 17.984 17.417 17.935 L 15.278 14.123 C 15.406 14.24 15.551 14.365 15.65 14.431 C 15.68 14.451 15.711 14.47 15.743 14.488 L 17.586 17.773 C 17.595 17.764 17.6 17.759 17.6 17.759 C 17.6 17.759 17.87 18.026 18.09 18.209 L 16.083 14.631 C 16.156 14.649 16.229 14.66 16.3 14.66 C 16.319 14.66 16.339 14.659 16.358 14.658 L 18.494 18.465 C 18.596 18.509 18.701 18.541 18.804 18.554 L 16.591 14.609 C 16.662 14.586 16.732 14.555 16.8 14.519 L 19.058 18.544 C 19.132 18.53 19.207 18.506 19.28 18.476 L 16.994 14.4 C 17.047 14.361 17.109 14.311 17.173 14.256 L 19.482 18.373 C 19.505 18.36 19.528 18.346 19.55 18.331 C 19.585 18.308 19.626 18.277 19.669 18.242 L 17.346 14.101 C 17.411 14.041 17.471 13.984 17.516 13.941 L 19.845 18.093 C 19.905 18.039 19.964 17.984 20.017 17.935 L 17.878 14.123 C 18.006 14.24 18.151 14.365 18.25 14.431 C 18.28 14.451 18.311 14.47 18.343 14.488 L 20.186 17.773 C 20.195 17.764 20.2 17.759 20.2 17.759 C 20.2 17.759 20.47 18.026 20.69 18.209 L 18.683 14.631 C 18.756 14.649 18.829 14.66 18.9 14.66 C 18.919 14.66 18.939 14.659 18.958 14.658 L 21.094 18.465 C 21.196 18.509 21.301 18.541 21.404 18.554 L 19.191 14.609 C 19.262 14.586 19.332 14.555 19.4 14.519 L 21.658 18.544 C 21.732 18.53 21.807 18.506 21.88 18.476 L 19.594 14.4 C 19.647 14.361 19.709 14.311 19.773 14.256 L 22.082 18.373 C 22.105 18.36 22.128 18.346 22.15 18.331 C 22.185 18.308 22.226 18.277 22.269 18.242 L 19.946 14.101 C 20.011 14.041 20.071 13.984 20.116 13.941 L 22.445 18.093 C 22.505 18.039 22.564 17.984 22.617 17.935 L 20.478 14.123 C 20.606 14.24 20.751 14.365 20.85 14.431 C 20.88 14.451 20.911 14.47 20.943 14.488 L 22.786 17.773 C 22.795 17.764 22.8 17.759 22.8 17.759 C 22.8 17.759 23.07 18.026 23.29 18.209 L 21.283 14.631 C 21.356 14.649 21.429 14.66 21.5 14.66 C 21.519 14.66 21.539 14.659 21.558 14.658 L 23.694 18.465 C 23.796 18.509 23.901 18.541 24.004 18.554 L 21.791 14.609 C 21.862 14.586 21.932 14.555 22 14.519 L 24.258 18.544 C 24.332 18.53 24.407 18.506 24.48 18.476 L 22.194 14.4 C 22.247 14.361 22.309 14.311 22.373 14.256 L 24.682 18.373 C 24.705 18.36 24.728 18.346 24.75 18.331 C 24.785 18.308 24.826 18.277 24.869 18.242 L 22.546 14.101 C 22.611 14.041 22.671 13.984 22.716 13.941 Z M 24.6 14.519 L 26.412 17.749 C 26.387 17.857 26.361 17.965 26.334 18.073 L 24.391 14.609 C 24.462 14.586 24.532 14.555 24.6 14.519 Z M 24.973 14.256 L 26.546 17.06 C 26.527 17.178 26.506 17.295 26.483 17.412 L 24.794 14.4 C 24.847 14.361 24.909 14.311 24.973 14.256 Z M 25.316 13.941 L 26.644 16.309 C 26.632 16.437 26.617 16.566 26.6 16.693 L 25.146 14.101 C 25.211 14.041 25.271 13.984 25.316 13.941 Z M 25.678 14.123 C 25.806 14.24 25.951 14.365 26.05 14.431 C 26.08 14.451 26.111 14.47 26.143 14.488 L 26.696 15.474 C 26.692 15.618 26.686 15.761 26.677 15.903 L 25.678 14.123 Z M 26.483 14.631 C 26.552 14.648 26.622 14.659 26.689 14.66 C 26.694 14.778 26.698 14.897 26.699 15.016 L 26.483 14.631 Z" style="alignment-baseline : initial;"/>
  </symbol>
  <symbol id="wildfires" viewBox="0 0 30 35">
    <title>Wildfires</title>
    <path fill="#FFFFFF" d="M 19.972 19.66 C 21.192 22.456 19.548 26.188 15.27 26.165 C 12.146 26.148 11.158 24.164 10.556 23.061 C 9.953 21.958 9.597 18.878 11.8 15.786 C 15.546 10.527 10.184 8.806 14.599 4.221 C 13.792 6.587 15.455 8.749 16.78 10.433 C 17.292 9.653 17.631 8.798 17.056 7.337 C 22.128 12.681 17.784 14.644 19.972 19.66 Z M 13.867 16.48 C 10.69 22.851 15.545 24.738 17.009 23.243 C 18.974 21.237 15.939 19.613 16.793 15.864 C 15.98 16.655 15.735 18.663 15.902 20.032 C 15.568 19.93 13.864 18.849 13.867 16.48 Z M 9.138 20.926 C 9.025 13.704 11.504 15.564 9.138 10.864 C 9.82 14.627 6.697 13.737 9.138 20.926 Z M 20.848 18.274 C 20.98 15.669 23.048 14.892 20.682 12.19 C 21.364 14.354 19.536 15.439 20.848 18.274 Z M 15.087 18.143 C 15.406 14.468 18.123 15.198 16.572 12.671 C 16.071 15.078 13.834 14.687 15.087 18.143 Z M 12.143 11.154 C 12.311 12.222 12.192 12.875 11.098 14.551 C 11.906 11.194 9.077 11.616 11.913 6.859 C 11.484 9.322 11.917 9.719 12.143 11.154 Z" style="alignment-baseline : initial;"/>
  </symbol>
</svg>
