<?xml version="1.0" encoding="UTF-8" standalone="no"?><!DOCTYPE svg PUBLIC "-//W3C//DTD SVG 1.1//EN" "http://www.w3.org/Graphics/SVG/1.1/DTD/svg11.dtd"><svg width="100%" height="100%" viewBox="0 0 1000 1000" version="1.1" xmlns="http://www.w3.org/2000/svg" xmlns:xlink="http://www.w3.org/1999/xlink" xml:space="preserve" style="fill-rule:evenodd;clip-rule:evenodd;stroke-linejoin:round;stroke-miterlimit:1.41421;"><circle cx="500" cy="502.125" r="500" style="fill:#b8aa45;"/><path d="M909.366,687c-71.047,155.128 -227.708,263 -409.366,263c-181.658,0 -338.319,-107.872 -409.366,-263l818.732,0Zm-361.054,-34.685c-174.564,0.14 -364.875,0.415 -364.875,0.415c199.935,-27.709 177.556,-134.08 321.115,-73.854c-61.615,-64.251 66.309,-163.357 155.814,-97.364c-14.045,-24.479 -56.434,-39.845 -93.387,-28.679c-28.316,-45.488 46.907,-126.521 121.927,-90.948c133.737,-41.093 190.421,70.364 186.467,103.221c80.67,40.984 18.808,188.61 -43.759,187.346c-11.99,-0.242 -115.1,-0.251 -235.687,-0.171c-2.743,0.35 -5.492,0.498 -8.241,0.435c-5.673,-0.131 -19.589,-0.266 -39.374,-0.401Zm-363.898,-60.791c-82.857,-87.342 90.784,-220.946 211.781,-131.203c-18.946,-33.239 -76.351,-54.233 -126.49,-39.238c-38.21,-61.775 90.389,-147.655 165.642,-92.823c48.858,-67.054 167.019,-56.706 192.818,2.626c-42.063,-5.488 -114.429,41.218 -95.186,117.947c-32.541,8.161 -72.076,38.639 -68.479,92.691c-120.545,-36.644 -123.977,95.034 -375.511,109.068c67.912,-14.48 94.079,-56.116 95.425,-59.068Zm160.086,27.976c5.519,0 10,4.481 10,10c0,5.519 -4.481,10 -10,10c-5.519,0 -10,-4.481 -10,-10c0,-5.519 4.481,-10 10,-10Zm-235.432,-9c5.519,0 10,4.481 10,10c0,5.519 -4.481,10 -10,10c-5.519,0 -10,-4.481 -10,-10c0,-5.519 4.481,-10 10,-10Zm262.432,-12c5.519,0 10,4.481 10,10c0,5.519 -4.481,10 -10,10c-5.519,0 -10,-4.481 -10,-10c0,-5.519 4.481,-10 10,-10Zm-218.432,-17.932c5.519,0 10,4.481 10,10c0,5.519 -4.481,10 -10,10c-5.519,0 -10,-4.481 -10,-10c0,-5.519 4.481,-10 10,-10Zm31.346,10.956l0.176,0.187c-0.051,-0.283 -0.107,-0.338 -0.176,-0.187Zm349.898,-35.648c5.519,0 10,4.48 10,10c0,5.519 -4.481,10 -10,10c-5.519,0 -10,-4.481 -10,-10c0,-5.52 4.481,-10 10,-10Zm-403.244,-1.308c5.519,0 10,4.481 10,10c0,5.519 -4.481,10 -10,10c-5.519,0 -10,-4.481 -10,-10c0,-5.519 4.481,-10 10,-10Zm695.967,-78.302c44.448,10.076 69.802,61.979 41.011,96.204c16.227,-48.485 -33.1,-106.04 -101.835,-86.872c17.937,-12.974 33.821,-14.351 46.838,-11.936c-8.523,-43.047 -57.275,-44.05 -90.749,-30.851c31.178,-36.054 99.254,-18.91 104.735,33.455Zm-630.621,71.234c5.519,0 10,4.481 10,10c0,5.519 -4.481,10 -10,10c-5.519,0 -10,-4.481 -10,-10c0,-5.519 4.481,-10 10,-10Zm324.377,-24.777c5.519,0 10,4.48 10,10c0,5.519 -4.481,10 -10,10c-5.519,0 -10,-4.481 -10,-10c0,-5.52 4.481,-10 10,-10Zm29.521,-18.125c5.519,0 10,4.48 10,10c0,5.519 -4.481,10 -10,10c-5.519,0 -10,-4.481 -10,-10c0,-5.52 4.481,-10 10,-10Zm-321.812,-28.332c5.519,0 10,4.481 10,10c0,5.519 -4.481,10 -10,10c-5.519,0 -10,-4.481 -10,-10c0,-5.519 4.481,-10 10,-10Zm27,-20.766c5.519,0 10,4.481 10,10c0,5.519 -4.481,10 -10,10c-5.519,0 -10,-4.481 -10,-10c0,-5.519 4.481,-10 10,-10Zm-44,-29.689c5.519,0 10,4.481 10,10c0,5.519 -4.481,10 -10,10c-5.519,0 -10,-4.481 -10,-10c0,-5.519 4.481,-10 10,-10Zm384,-14.728c5.519,0 10,4.481 10,10c0,5.519 -4.481,10 -10,10c-5.519,0 -10,-4.481 -10,-10c0,-5.519 4.481,-10 10,-10Zm-355,-4.762c5.519,0 10,4.481 10,10c0,5.52 -4.481,10 -10,10c-5.519,0 -10,-4.48 -10,-10c0,-5.519 4.481,-10 10,-10Zm378.665,-21.821c5.519,0 10,4.481 10,10c0,5.519 -4.481,10 -10,10c-5.519,0 -10,-4.481 -10,-10c0,-5.519 4.481,-10 10,-10Zm-324.665,-3c5.519,0 10,4.481 10,10c0,5.519 -4.481,10 -10,10c-5.519,0 -10,-4.481 -10,-10c0,-5.519 4.481,-10 10,-10Zm44,0c5.519,0 10,4.481 10,10c0,5.519 -4.481,10 -10,10c-5.519,0 -10,-4.481 -10,-10c0,-5.519 4.481,-10 10,-10Zm-22,-28c5.519,0 10,4.481 10,10c0,5.519 -4.481,10 -10,10c-5.519,0 -10,-4.481 -10,-10c0,-5.519 4.481,-10 10,-10Z" style="fill:#fff;"/></svg>