<?xml version="1.0" standalone="no"?><svg xmlns="http://www.w3.org/2000/svg" xmlns:xlink="http://www.w3.org/1999/xlink" style="isolation:isolate" viewBox="0 0 100 16" width="100" height="16"><defs><clipPath id="_clipPath_DeQN53fcEOCWCC7AsigSpUD8nxxk5Aow"><rect width="100" height="16"/></clipPath></defs><g clip-path="url(#_clipPath_DeQN53fcEOCWCC7AsigSpUD8nxxk5Aow)"><clipPath id="_clipPath_A8VC6l8kat5jAMqCGM40jeeicva1J0EP"><rect x="35" y="0" width="30" height="16" transform="matrix(1,0,0,1,0,0)" fill="rgb(255,255,255)"/></clipPath><g clip-path="url(#_clipPath_A8VC6l8kat5jAMqCGM40jeeicva1J0EP)"><g id="Group"><path d=" M 46.517 14 C 46.647 13.995 46.77 13.936 46.86 13.835 L 51.854 8.386 C 52.049 8.174 52.049 7.829 51.854 7.616 L 46.86 2.168 C 46.735 2.025 46.549 1.968 46.373 2.018 C 46.199 2.068 46.062 2.217 46.016 2.407 C 45.97 2.598 46.023 2.802 46.154 2.938 L 50.795 8.001 L 46.154 13.064 C 46.007 13.221 45.962 13.46 46.042 13.668 C 46.122 13.874 46.311 14.006 46.517 14 Z " fill="rgb(0,0,0)" vector-effect="non-scaling-stroke" stroke-width="1" stroke="rgb(0,0,0)" stroke-opacity="100" stroke-linejoin="miter" stroke-linecap="butt" stroke-miterlimit="4"/><path d=" M 46.517 14 C 46.647 13.995 46.77 13.936 46.86 13.835 L 51.854 8.386 C 52.049 8.174 52.049 7.829 51.854 7.616 L 46.86 2.168 C 46.735 2.025 46.549 1.968 46.373 2.018 C 46.199 2.068 46.062 2.217 46.016 2.407 C 45.97 2.598 46.023 2.802 46.154 2.938 L 50.795 8.001 L 46.154 13.064 C 46.007 13.221 45.962 13.46 46.042 13.668 C 46.122 13.874 46.311 14.006 46.517 14 Z " fill="rgb(255,255,255)"/></g></g></g></svg>
