<?xml version="1.0" standalone="no"?><svg xmlns="http://www.w3.org/2000/svg" xmlns:xlink="http://www.w3.org/1999/xlink" style="isolation:isolate" viewBox="0 0 30 16" width="30" height="16"><defs><clipPath id="_clipPath_t58cCUiIBQwtDGKPsdRu0ZOu6CCMkAae"><rect width="30" height="16"/></clipPath></defs><g clip-path="url(#_clipPath_t58cCUiIBQwtDGKPsdRu0ZOu6CCMkAae)"><path d=" M 11.517 14 C 11.647 13.995 11.77 13.936 11.86 13.835 L 16.854 8.386 C 17.049 8.174 17.049 7.829 16.854 7.616 L 11.86 2.168 C 11.735 2.025 11.549 1.968 11.373 2.018 C 11.199 2.068 11.062 2.217 11.016 2.407 C 10.97 2.598 11.023 2.802 11.154 2.938 L 15.795 8.001 L 11.154 13.064 C 11.007 13.221 10.962 13.46 11.042 13.668 C 11.122 13.874 11.311 14.006 11.517 14 Z " fill="rgb(0,0,0)" vector-effect="non-scaling-stroke" stroke-width="1" stroke="rgb(0,0,0)" stroke-linejoin="miter" stroke-linecap="butt" stroke-miterlimit="4"/><path d=" M 11.517 14 C 11.647 13.995 11.77 13.936 11.86 13.835 L 16.854 8.386 C 17.049 8.174 17.049 7.829 16.854 7.616 L 11.86 2.168 C 11.735 2.025 11.549 1.968 11.373 2.018 C 11.199 2.068 11.062 2.217 11.016 2.407 C 10.97 2.598 11.023 2.802 11.154 2.938 L 15.795 8.001 L 11.154 13.064 C 11.007 13.221 10.962 13.46 11.042 13.668 C 11.122 13.874 11.311 14.006 11.517 14 Z " fill="rgb(255,255,255)"/></g></svg>