<?xml version="1.0" encoding="UTF-8" standalone="no"?><!DOCTYPE svg PUBLIC "-//W3C//DTD SVG 1.1//EN" "http://www.w3.org/Graphics/SVG/1.1/DTD/svg11.dtd"><svg width="100%" height="100%" viewBox="0 0 1000 1000" version="1.1" xmlns="http://www.w3.org/2000/svg" xmlns:xlink="http://www.w3.org/1999/xlink" xml:space="preserve" style="fill-rule:evenodd;clip-rule:evenodd;stroke-linejoin:round;stroke-miterlimit:1.41421;"><circle cx="500" cy="502.125" r="500" style="fill:#c8703c;"/><path d="M882.676,736.748c-79.384,127.962 -221.149,213.252 -382.676,213.252c-162.145,0 -304.375,-85.943 -383.583,-214.722l261.583,-361.383c81.711,38.617 156.612,38.05 225,0l279.676,362.853Zm-277.149,-223.108c0,0 63.555,203.154 97.498,287.522c3.475,8.636 13.307,12.826 21.942,9.352c8.636,-3.475 12.826,-13.306 9.352,-21.942c-33.944,-84.368 -128.792,-274.932 -128.792,-274.932Zm-243.34,-11.515c0,0 -100.019,135.302 -136.671,196.981c-4.755,8.002 -2.119,18.359 5.883,23.114c8.003,4.756 18.36,2.119 23.115,-5.883c36.651,-61.679 107.673,-214.212 107.673,-214.212Zm178.23,-30.544c0,0 -0.443,124.746 6.007,177.395c1.048,8.551 8.84,14.642 17.391,13.595c8.55,-1.048 14.642,-8.84 13.594,-17.391c-6.45,-52.649 -36.992,-173.599 -36.992,-173.599Zm-40.417,-97.686c-4.129,-71.774 -0.23,-146.809 25.757,-229.947l15.875,3.5c-29.774,84.418 -38.009,155.923 -41.632,226.447Zm-70.895,-25.231c-30.403,-51.745 -57.675,-84.923 -112.749,-133.375l10.31,-10.879c47.087,43.985 79.25,92.698 102.439,144.254Zm136.688,-1.266c3.418,-54.594 18.31,-104.066 56.826,-142.988l11.924,11.442c-39.149,29.312 -56.526,75.131 -68.75,131.546Zm-249.386,-184.87l-40.559,-17.08l-18.236,5.335l-5.201,38.079l11.014,2.951l14.814,32.023l17.266,-2.62l25.627,-41.346l-4.725,-17.342Zm343.028,57.564l42.347,-10.966l22.818,-27.419l-25.903,-31.204l-28.259,3.377l-32.415,-5.387l-13.904,36.9l35.316,34.699Zm-74.156,-102.402l-3.802,-22.778l-34.088,-27.439l-18.372,4.927l-23.934,15.814l6.666,33.475l56.395,17.287l17.135,-21.286Z" style="fill:#fff;"/></svg>