<?xml version="1.0" encoding="utf-8"?>
<!-- Generator: Adobe Illustrator 25.3.1, SVG Export Plug-In . SVG Version: 6.00 Build 0)  -->
<svg version="1.1" id="Layer_1" xmlns="http://www.w3.org/2000/svg" xmlns:xlink="http://www.w3.org/1999/xlink" x="0px" y="0px"
	 viewBox="0 0 37 30" style="enable-background:new 0 0 37 30;" xml:space="preserve">
<style type="text/css">
	.st0{fill:#1D4899;}
	.st1{fill:#FFFFFF;}
	.st2{fill:#E9E8E8;}
	.st3{fill:#6DA6D9;}
</style>
<g>
	<circle class="st0" cx="18.5" cy="15" r="15"/>
	<path class="st1" d="M4,15C4,6.99,10.49,0.5,18.5,0.5l0,0C26.51,0.5,33,6.99,33,15l0,0h0c0,8.01-6.49,14.5-14.5,14.5l0,0
		C10.49,29.5,4,23.01,4,15L4,15z M8.53,5.03C5.97,7.58,4.39,11.1,4.39,15l0,0c0,3.9,1.58,7.42,4.13,9.97l0,0
		c2.55,2.55,6.08,4.13,9.97,4.13l0,0c3.9,0,7.42-1.58,9.97-4.13l0,0c2.55-2.55,4.13-6.08,4.13-9.97l0,0c0-3.9-1.58-7.42-4.13-9.97
		l0,0c-2.55-2.55-6.08-4.13-9.97-4.13l0,0C14.6,0.89,11.08,2.47,8.53,5.03L8.53,5.03z"/>
	<g>
		<path class="st1" d="M31.42,9.66c-1.55-1.49-3.36-2.71-5.35-3.59l-0.18,0.05c-0.02,0.01-0.06,0.06-0.07,0.07
			c-0.01,0.01-0.02,0.04-0.04,0.06c-0.01,0.02-0.05,0.05-0.07,0.06c-0.02,0.01-0.05,0.02-0.06,0.03c0,0,0,0-0.02,0.01
			c-0.03,0.01-0.04,0.02-0.04,0.02c0,0-0.01,0-0.01,0C27.71,7.15,29.68,8.26,31.42,9.66z"/>
		<path class="st1" d="M21.76,5.17c0-0.03,0.02-0.05,0.05-0.06l0.53-0.05c0.03,0,0.05,0,0.05,0c0,0,0.02,0,0.05,0l0.18-0.02
			c0.03,0,0.07-0.01,0.1-0.01l0.18-0.02c0.03,0,0.05,0,0.05,0c0,0,0.01,0,0.01,0c-1.43-0.35-2.93-0.54-4.47-0.54
			c-5.01,0-9.56,1.98-12.92,5.19c3.54-2.84,8.03-4.54,12.92-4.54c1.12,0,2.22,0.09,3.29,0.26L21.76,5.17z"/>
	</g>
	<path class="st1" d="M27.15,4.92l-0.28,0.03l0.42,0.53l0.3-0.05L27.15,4.92z M26.53,4.98l0.42,0.55l0.32-0.05l-0.42-0.53
		L26.53,4.98z M26.17,5.01l0.4,0.57l0.35-0.05l-0.42-0.55L26.17,5.01z M26.08,5.02L25.9,4.74l0.14-0.23
		c0.05-0.03,0.08-0.07,0.07-0.1c-0.02-0.06-0.16-0.07-0.33-0.02c-0.17,0.05-0.29,0.13-0.27,0.19c0,0,0,0,0,0.01l-0.08,0.01l0-0.05
		l-0.03-0.01l-0.1,0.08l-0.06,0.01l0.01,0.01l-0.09,0.22c0,0,0,0,0,0c-0.02-0.01-0.04,0.01-0.06,0.04
		c-0.01,0.02-0.01,0.04-0.01,0.05c-0.02,0-0.04,0.02-0.06,0.05c-0.02,0.04-0.02,0.07,0,0.08c0.01,0,0.02,0,0.03-0.01l-0.18,0.43
		l-0.34,0.02l-0.15-0.32l-0.45,0.04l0.25,0.69l0.5-0.08l-0.13-0.28l0.29-0.02l-0.04,0.1l0.04,0.13c-0.01,0.05-0.01,0.1,0,0.15
		c0.05,0.16,0.22,0.26,0.39,0.21c0.05-0.01,0.09-0.04,0.13-0.07c0.04-0.01,0.07-0.03,0.12-0.04c0.02-0.01,0.02-0.01,0.02-0.01
		c0.04-0.06,0.1-0.18,0.18-0.31c0.04-0.01,0.07-0.03,0.11-0.05c0.01-0.01,0.02-0.01,0.03-0.02l0.01,0.02
		c-0.01,0.01-0.01,0.03-0.01,0.04c0,0,0.01,0.01,0.01,0.01c0,0,0,0,0,0c0,0,0.01,0.01,0.01,0.01c0,0,0,0,0,0
		c0,0,0.01,0.01,0.01,0.01c0,0,0,0,0,0c0,0,0.01,0.01,0.01,0.01c0,0,0,0,0,0c0,0,0.01,0.01,0.01,0.01c0,0,0,0,0,0
		c0,0,0.01,0.01,0.01,0.01c0,0,0,0,0,0c0,0,0,0.01,0.01,0.01c0,0,0,0,0,0c0,0,0,0.01,0.01,0.01c0,0,0,0,0,0c0,0,0,0.01,0.01,0.01
		c0,0,0,0,0,0c0,0.01,0.01,0.01,0.02,0.01c0,0,0,0,0,0.01c0,0,0,0,0,0c0,0,0,0,0,0c0,0,0,0,0,0c0,0,0,0,0,0c0,0,0,0,0,0c0,0,0,0,0,0
		c0,0,0,0,0,0c0,0,0,0,0,0c0,0,0,0,0,0c0,0,0,0,0,0c0,0,0,0,0,0c0,0,0,0,0,0c0,0,0,0,0,0c0,0,0,0,0,0c0,0,0,0,0,0c0,0,0,0,0,0
		c0,0,0,0,0,0c0,0,0,0,0,0c0,0.01,0.01,0.01,0.02,0c0.01,0,0.01-0.01,0.01-0.02c0,0,0,0,0,0c0,0,0,0,0,0c0,0,0,0,0,0c0,0,0,0,0-0.01
		c0,0,0,0,0,0c0,0,0,0,0-0.01c0,0,0,0,0,0c0,0,0,0,0-0.01c0,0,0,0,0,0c0,0,0,0,0-0.01c0,0,0,0,0,0c0,0,0,0,0-0.01c0,0,0,0,0,0
		c0,0,0,0,0-0.01c0,0,0,0,0,0c0,0,0,0,0-0.01c0,0,0,0,0,0c0,0,0,0,0,0c0,0,0,0,0,0c0.01-0.01,0.01-0.02,0-0.03c0,0,0,0,0,0
		c0,0,0-0.01,0-0.01c0,0,0,0,0,0c0,0,0-0.01,0-0.01c0,0,0,0,0,0c0,0,0-0.01,0-0.01c0,0,0,0,0,0c0,0,0-0.01,0-0.01c0,0,0,0,0,0
		c0,0,0-0.01,0-0.01c0,0,0,0,0,0c0,0,0-0.01,0-0.01c0,0,0,0,0,0c0,0,0-0.01,0-0.01c0,0,0,0,0,0c0,0,0-0.01,0-0.01c0,0,0,0,0,0
		c0,0,0-0.01,0-0.01c-0.01-0.02-0.03-0.02-0.05-0.01l-0.01-0.02c0.07-0.05,0.13-0.11,0.17-0.16l0.13,0.19l0.38-0.06l-0.41-0.57
		L26.08,5.02z M25.11,4.96C25.11,4.96,25.1,4.96,25.11,4.96C25.11,4.96,25.11,4.96,25.11,4.96L25.11,4.96z M25.88,4.71L25.81,4.6
		c0.01,0,0.02,0,0.03-0.01c0.06-0.02,0.11-0.04,0.15-0.06L25.88,4.71z M22.84,5.33L23,6.1l0.6-0.09l-0.22-0.73L22.84,5.33z
		 M22.2,5.39l0.1,0.82l0.66-0.1L22.8,5.33L22.2,5.39z M23.42,5.28L23.63,6l0.53-0.08l-0.25-0.69L23.42,5.28z"/>
	<polygon class="st2" points="24.84,5.62 24.96,5.34 25.16,5.74 25.03,6.03 	"/>
	<polygon class="st2" points="25.04,5.19 25.11,5.03 25.3,5.39 25.22,5.55 	"/>
	<polygon class="st2" points="25.14,4.96 25.21,4.8 25.31,4.97 25.23,5.15 	"/>
	<path class="st1" d="M28.97,22.02c0.68-0.45,1.35-0.96,2-1.55c0.01-0.03,0.02-0.05,0.03-0.08c-0.56,0.42-1.14,0.8-1.72,1.13
		c-4.07,2.22-7.1,1.48-9.79,0.24c-2.42-1.11-4.43-2.57-7.54-2.62c-1.45,0-3.24,0.3-5.9,1.36c0.48,1.08,1.09,2.09,1.82,3
		c2.97-1.5,4.85-1.89,6.32-1.9c2.57,0.02,4.29,1.2,6.28,2.08c2.18,0.96,4.56,1.5,7.72-0.3c0.68-0.4,1.35-0.89,2-1.46
		c-0.57,0.41-1.14,0.76-1.72,1.05c-2.05,1-3.77,1.12-5.29,0.79C24.91,23.82,26.8,23.39,28.97,22.02z"/>
	<path class="st3" d="M17.97,25.34c2.16,0.92,4.4,1.47,7.3-0.07c0.23-0.13,0.46-0.26,0.69-0.41c-2.25,0.64-4.05,0.16-5.71-0.56
		c-1.86-0.81-3.45-1.86-5.87-1.95c-1.2-0.02-2.69,0.19-4.88,1.01c0.71-0.16,1.35-0.21,1.95-0.2C13.99,23.25,15.92,24.46,17.97,25.34
		z"/>
	<g>
		<path class="st3" d="M18.67,14.86c0-1.21,0.98-2.19,2.19-2.19l0,0c1.21,0,2.19,0.98,2.19,2.19l0,0h0c0,1.21-0.98,2.19-2.19,2.19
			l0,0C19.65,17.05,18.67,16.07,18.67,14.86L18.67,14.86z M19.76,14.86c0,0.61,0.49,1.1,1.1,1.1l0,0c0.61,0,1.1-0.49,1.1-1.1l0,0h0
			c0-0.61-0.49-1.1-1.1-1.1l0,0C20.26,13.76,19.76,14.25,19.76,14.86L19.76,14.86z"/>
		<path class="st3" d="M23.09,14.86c0-1.21,0.98-2.19,2.19-2.19l0,0c1.21,0,2.19,0.98,2.19,2.19l0,0h0c0,1.21-0.98,2.19-2.19,2.19
			l0,0C24.07,17.05,23.09,16.07,23.09,14.86L23.09,14.86z M24.18,14.86c0,0.61,0.49,1.1,1.1,1.1l0,0c0.61,0,1.1-0.49,1.1-1.1l0,0h0
			c0-0.61-0.49-1.1-1.1-1.1l0,0C24.67,13.77,24.18,14.26,24.18,14.86L24.18,14.86z"/>
		<rect x="5.42" y="14.86" class="st1" width="1.07" height="4.11"/>
		<rect x="21.97" y="14.78" class="st3" width="1.07" height="2.24"/>
		<rect x="26.39" y="14.78" class="st3" width="1.07" height="2.24"/>
		<path class="st3" d="M30.68,15.48c-0.19,0.33-0.55,0.56-0.96,0.56c-0.61,0-1.1-0.49-1.1-1.1c0-0.61,0.49-1.1,1.1-1.1
			c0.41,0,0.77,0.23,0.96,0.57h1.17c-0.24-0.95-1.1-1.66-2.13-1.66c-1.21,0-2.19,0.98-2.19,2.19c0,1.21,0.98,2.19,2.19,2.19
			c1.02,0,1.88-0.7,2.12-1.65H30.68z"/>
		<path class="st1" d="M7.61,17.05c-1.21,0-2.19-0.98-2.19-2.19c0-1.21,0.98-2.19,2.19-2.19s2.19,0.98,2.19,2.19
			C9.8,16.06,8.82,17.05,7.61,17.05z M7.61,13.76c-0.61,0-1.1,0.49-1.1,1.1c0,0.61,0.49,1.1,1.1,1.1s1.1-0.49,1.1-1.1
			C8.71,14.25,8.22,13.76,7.61,13.76z"/>
		<path class="st1" d="M12.01,17.05c-1.21,0-2.19-0.98-2.19-2.19c0-1.21,0.98-2.19,2.19-2.19c1.21,0,2.19,0.98,2.19,2.19
			C14.2,16.06,13.22,17.05,12.01,17.05z M12.01,13.76c-0.61,0-1.1,0.49-1.1,1.1c0,0.61,0.49,1.1,1.1,1.1c0.61,0,1.1-0.49,1.1-1.1
			C13.11,14.25,12.62,13.76,12.01,13.76z"/>
		<path class="st3" d="M14.25,14.94c0-1.21,0.98-2.19,2.19-2.19l0,0c1.21,0,2.19,0.98,2.19,2.19l0,0c0,1.21-0.98,2.19-2.19,2.19l0,0
			C15.23,17.13,14.25,16.15,14.25,14.94L14.25,14.94z M15.34,14.94c0,0.61,0.49,1.1,1.1,1.1l0,0c0.61,0,1.1-0.49,1.1-1.1l0,0
			c0-0.61-0.49-1.1-1.1-1.1l0,0C15.83,13.84,15.34,14.33,15.34,14.94L15.34,14.94z"/>
		<rect x="17.56" y="10.8" class="st3" width="1.07" height="4.11"/>
	</g>
</g>
</svg>
