<?xml version="1.0"?>
<!DOCTYPE svg PUBLIC "-//W3C//DTD SVG 1.1//EN" "http://www.w3.org/Graphics/SVG/1.1/DTD/svg11.dtd">
<svg xmlns="http://www.w3.org/2000/svg" xmlns:xl="http://www.w3.org/1999/xlink" version="1.1" viewBox="0 0 144 144" width="12pc" height="12pc"><metadata xmlns:dc="http://purl.org/dc/elements/1.1/"><dc:date>2013-04-16 14:01Z</dc:date><!-- Produced by OmniGraffle Professional 5.4.2 --></metadata><defs><filter id="Shadow" filterUnits="userSpaceOnUse"><feGaussianBlur in="SourceAlpha" result="blur" stdDeviation="3.488"/><feOffset in="blur" result="offset" dx="0" dy="2"/><feFlood flood-color="black" flood-opacity=".4" result="flood"/><feComposite in="flood" in2="offset" operator="in"/></filter></defs><g stroke="none" stroke-opacity="1" stroke-dasharray="none" fill="none" fill-opacity="1"><title>Canvas 1</title><g><title>Layer 1</title><g><use xl:href="#id9_Graphic" filter="url(#Shadow)"/><use xl:href="#id12_Graphic" filter="url(#Shadow)"/><use xl:href="#id13_Graphic" filter="url(#Shadow)"/><use xl:href="#id14_Graphic" filter="url(#Shadow)"/></g><g id="id9_Graphic"><path d="M 83.105983 97.97763 L 97.24711 83.834473 L 118.15061 104.73497 L 125.22117 97.6634 L 125.2232 125.94767 L 96.93893 125.9497 L 104.00949 118.87813 Z" fill="white"/><path d="M 83.105983 97.97763 L 97.24711 83.834473 L 118.15061 104.73497 L 125.22117 97.6634 L 125.2232 125.94767 L 96.93893 125.9497 L 104.00949 118.87813 Z" stroke="#ccc" stroke-linecap="round" stroke-linejoin="round" stroke-width="1"/></g><g id="id12_Graphic"><path d="M 46.763874 83.283316 L 60.906015 97.425457 L 40.37432 117.95715 L 47.445385 125.02822 L 19.161114 125.02822 L 19.161114 96.743946 L 26.232179 103.81501 Z" fill="white"/><path d="M 46.763874 83.283316 L 60.906015 97.425457 L 40.37432 117.95715 L 47.445385 125.02822 L 19.161114 125.02822 L 19.161114 96.743946 L 26.232179 103.81501 Z" stroke="#ccc" stroke-linecap="round" stroke-linejoin="round" stroke-width="1"/></g><g id="id13_Graphic"><path d="M 60.68083 47.313941 L 46.538689 61.456082 L 25.383033 40.300427 L 18.311968 47.371492 L 18.311966 19.087219 L 46.59624 19.08722 L 39.525174 26.158286 Z" fill="white"/><path d="M 60.68083 47.313941 L 46.538689 61.456082 L 25.383033 40.300427 L 18.311968 47.371492 L 18.311966 19.087219 L 46.59624 19.08722 L 39.525174 26.158286 Z" stroke="#ccc" stroke-linecap="round" stroke-linejoin="round" stroke-width="1"/></g><g id="id14_Graphic"><path d="M 97.190843 61.12419 L 83.0487 46.982048 L 104.21075 25.82 L 97.139685 18.748934 L 125.42396 18.748933 L 125.42396 47.033205 L 118.35289 39.96214 Z" fill="white"/><path d="M 97.190843 61.12419 L 83.0487 46.982048 L 104.21075 25.82 L 97.139685 18.748934 L 125.42396 18.748933 L 125.42396 47.033205 L 118.35289 39.96214 Z" stroke="#ccc" stroke-linecap="round" stroke-linejoin="round" stroke-width="1"/></g></g></g></svg>
