<?xml version="1.0" encoding="UTF-8"?>
<svg id="Layer_2" data-name="Layer 2" xmlns="http://www.w3.org/2000/svg" viewBox="0 0 206.59 206.59">
  <defs>
    <style>
      .cls-1 {
        fill: #eee;
      }
    </style>
  </defs>
  <g id="Layer_1-2" data-name="Layer 1">
    <path class="cls-1" d="M178.59,16c6.6,0,12,5.4,12,12v150.59c0,6.6-5.4,12-12,12H28c-6.6,0-12-5.4-12-12V28c0-6.6,5.4-12,12-12h150.59M178.59,0H28C12.56,0,0,12.56,0,28v150.59c0,15.44,12.56,28,28,28h150.59c15.44,0,28-12.56,28-28V28c0-15.44-12.56-28-28-28h0ZM177.72,90.09c-11.63,12.09-27.37,28.98-35.69,36.97-3.43,3.29-10.04,3.33-13.52.08l-28.37-27.49c-2.2-2.05-5.62-2.04-7.8.03-11.89,11.3-43.89,42.71-45.01,43.55-11.51,10.67-26.62-5.69-18.87-13.45l60.57-60.1c3.85-3.8,10.01-3.88,13.96-.19l27.67,27.37c2.24,2.1,5.73,2.08,7.95-.03,0,0,13.91-14.85,22.9-23.51,8.99-8.66,27.62,3.41,16.22,16.77Z"/>
  </g>
</svg>